<svg width="330" height="51" viewBox="0 0 330 51" fill="none" xmlns="http://www.w3.org/2000/svg">
<path d="M1.41581 29.5C1.08418 29.5 0.982135 29.3852 0.982135 29.0663V20.8776C0.982135 20.5587 1.08418 20.4439 1.41581 20.4439H1.97703C2.34692 20.4439 2.44896 20.5077 2.58927 20.7756L5.25506 25.5204L7.89535 20.7883C8.04841 20.5077 8.13769 20.4439 8.48208 20.4439H9.10707C9.4387 20.4439 9.5535 20.5587 9.5535 20.8776V29.0663C9.5535 29.3852 9.4387 29.5 9.10707 29.5H8.45657C8.13769 29.5 8.0229 29.3852 8.0229 29.0663V25.1761C8.0229 24.449 8.12494 23.6199 8.32902 22.6378H8.25249C7.92086 23.5944 7.60198 24.2322 7.19382 24.9592L5.94383 27.1786C5.81628 27.4082 5.71424 27.4847 5.44639 27.4847H5.03823C4.78313 27.4847 4.69384 27.4337 4.54078 27.1786L3.26528 24.9592C2.83161 24.2194 2.60202 23.6582 2.28315 22.6251H2.19386C2.39794 23.6327 2.47447 24.3852 2.47447 25.1888V29.0663C2.47447 29.3852 2.35968 29.5 2.0408 29.5H1.41581ZM14.0731 32.5102C12.6955 32.5102 11.8792 32.0255 11.4328 31.2729C11.2414 30.9923 11.2925 30.7883 11.5858 30.6352L12.0705 30.3673C12.3766 30.2143 12.5169 30.2525 12.7083 30.5204C12.9761 30.9413 13.3588 31.1837 14.0475 31.1837C14.9404 31.1837 15.3996 30.699 15.3996 29.7934V29.1939C15.0169 29.2832 14.5195 29.3724 13.8817 29.3724C12.0578 29.3724 11.2287 28.4158 11.2287 26.8087V23.2756C11.2287 22.9822 11.318 22.8929 11.6113 22.8929H12.3129C12.6062 22.8929 12.7083 22.9822 12.7083 23.2756V26.7577C12.7083 27.6123 13.1547 28.0204 14.0986 28.0204C14.6215 28.0204 15.0552 27.9311 15.3996 27.8418V23.2756C15.3996 22.9822 15.5016 22.8929 15.795 22.8929H16.4837C16.7899 22.8929 16.8792 22.9822 16.8792 23.2756V29.7168C16.8792 31.3877 16.0756 32.5102 14.0731 32.5102ZM20.7351 29.5C20.4418 29.5 20.2632 29.449 20.1994 29.1556L18.0949 20.8649C18.0183 20.5715 18.0566 20.4439 18.3755 20.4439H19.2683C19.6255 20.4439 19.7785 20.5077 19.8423 20.8266L20.8882 25.5842C20.9775 26.0306 21.0795 27.0765 21.0923 27.2934H21.1688C21.1816 27.0255 21.2964 26.0817 21.4239 25.5842L22.7122 20.8649C22.8015 20.546 22.9673 20.4822 23.2989 20.4822H23.9749C24.3065 20.4822 24.4851 20.546 24.5616 20.8649L25.8116 25.5842C25.9647 26.1327 26.0667 27.051 26.0922 27.2934H26.1688C26.1815 27.0893 26.2836 26.0944 26.3856 25.597L27.406 20.8266C27.4698 20.5077 27.6228 20.4439 27.98 20.4439H28.758C29.0769 20.4439 29.1152 20.5715 29.0387 20.8649L26.9341 29.1429C26.8575 29.449 26.6917 29.5 26.3984 29.5H25.6968C25.4035 29.5 25.2249 29.4362 25.1611 29.1556L23.8346 24.0919C23.7326 23.6837 23.6433 23.1353 23.6178 22.6506H23.5412C23.5157 23.1353 23.4265 23.6455 23.3117 24.0791L21.9596 29.1429C21.8831 29.449 21.73 29.5 21.4239 29.5H20.7351ZM30.8245 29.5C30.4929 29.5 30.3909 29.3852 30.3909 29.0663V20.8776C30.3909 20.5587 30.4929 20.4439 30.8245 20.4439H35.901C36.2199 20.4439 36.3347 20.5587 36.3347 20.8776V21.5026C36.3347 21.8215 36.2199 21.9363 35.901 21.9363H31.9853V24.1684H35.2888C35.6204 24.1684 35.7225 24.2832 35.7225 24.6021V25.2271C35.7225 25.5459 35.6204 25.6607 35.2888 25.6607H31.9853V28.0077H36.0413C36.3602 28.0077 36.475 28.1225 36.475 28.4413V29.0663C36.475 29.3852 36.3602 29.5 36.0413 29.5H30.8245ZM38.3978 29.5C38.0662 29.5 37.9642 29.3852 37.9642 29.0663V20.8776C37.9642 20.5587 38.0662 20.4439 38.3978 20.4439H41.9437C43.5764 20.4439 44.5457 21.2985 44.5457 22.8291C44.5457 23.7475 44.2524 24.3597 43.5891 24.7551V24.8062C44.4054 25.0995 44.8901 25.8648 44.8901 27.0128C44.8901 28.6199 43.6784 29.5 42.0203 29.5H38.3978ZM39.5585 24.1812H41.7396C42.5049 24.1812 42.9131 23.824 42.9131 23.0587C42.9131 22.3062 42.5049 21.9363 41.7396 21.9363H39.5585V24.1812ZM39.5585 28.0077H41.9692C42.7728 28.0077 43.1937 27.6123 43.1937 26.8342C43.1937 26.0561 42.7728 25.6352 41.9692 25.6352H39.5585V28.0077ZM49.559 29.6913C47.5819 29.6913 46.5743 28.9388 46.0513 27.5612C45.9493 27.2424 46.0131 27.1021 46.3319 27L47.0207 26.7449C47.3268 26.6429 47.4416 26.7067 47.5692 27.0128C47.9008 27.7653 48.5641 28.199 49.559 28.199C50.8727 28.199 51.587 27.7908 51.587 26.8725C51.587 25.9924 50.6559 25.801 49.5717 25.6863C48.0156 25.5204 46.1151 25.2781 46.1151 23.046C46.1151 21.4261 47.3013 20.2526 49.61 20.2526C51.4212 20.2526 52.3523 20.9159 52.9518 22.1786C53.1048 22.472 53.0283 22.6251 52.7222 22.7654L52.0079 23.0715C51.7273 23.199 51.6125 23.148 51.4595 22.8546C51.1151 22.1786 50.6176 21.7832 49.61 21.7832C48.36 21.7832 47.7477 22.1659 47.7477 22.9567C47.7477 23.875 48.7937 24.0409 49.9544 24.1684C51.4595 24.3342 53.1941 24.7041 53.1941 26.8342C53.1941 28.5306 51.9059 29.6913 49.559 29.6913ZM55.1512 29.5C54.8196 29.5 54.7176 29.3852 54.7176 29.0663V20.8776C54.7176 20.5587 54.8196 20.4439 55.1512 20.4439H55.8783C56.2099 20.4439 56.3119 20.5587 56.3119 20.8776V29.0663C56.3119 29.3852 56.2099 29.5 55.8783 29.5H55.1512ZM60.6524 29.5C60.3335 29.5 60.2187 29.3852 60.2187 29.0663V21.9363H57.9994C57.6805 21.9363 57.5657 21.8215 57.5657 21.5026V20.8776C57.5657 20.5587 57.6805 20.4439 57.9994 20.4439H64.0325C64.3641 20.4439 64.4662 20.5587 64.4662 20.8776V21.5026C64.4662 21.8215 64.3641 21.9363 64.0325 21.9363H61.8131V29.0663C61.8131 29.3852 61.7111 29.5 61.3795 29.5H60.6524ZM66.1499 29.5C65.8183 29.5 65.7163 29.3852 65.7163 29.0663V20.8776C65.7163 20.5587 65.8183 20.4439 66.1499 20.4439H71.2264C71.5453 20.4439 71.6601 20.5587 71.6601 20.8776V21.5026C71.6601 21.8215 71.5453 21.9363 71.2264 21.9363H67.3106V24.1684H70.6142C70.9458 24.1684 71.0478 24.2832 71.0478 24.6021V25.2271C71.0478 25.5459 70.9458 25.6607 70.6142 25.6607H67.3106V28.0077H71.3667C71.6856 28.0077 71.8004 28.1225 71.8004 28.4413V29.0663C71.8004 29.3852 71.6856 29.5 71.3667 29.5H66.1499ZM76.5471 26.7959C76.2155 26.7959 76.1135 26.6811 76.1135 26.3495V25.801C76.1135 25.4694 76.2155 25.3674 76.5471 25.3674H81.4451C81.7639 25.3674 81.8787 25.4694 81.8787 25.801V26.3495C81.8787 26.6811 81.7639 26.7959 81.4451 26.7959H76.5471ZM89.078 29.6913C87.1903 29.6913 86.3102 28.7475 86.3102 27.1148V25.3674C86.3102 23.6455 87.2158 22.7016 88.976 22.7016C89.6137 22.7016 90.1495 22.8036 90.4938 22.8674V20.4567C90.4938 20.1633 90.5959 20.0613 90.8892 20.0613H91.578C91.8714 20.0613 91.9734 20.1633 91.9734 20.4567V28.5816C91.9734 29.0026 91.8841 29.1173 91.476 29.2832C90.9658 29.4745 90.2387 29.6913 89.078 29.6913ZM89.2183 28.3393C89.6775 28.3393 90.0729 28.2883 90.3918 28.199C90.4811 28.1607 90.4938 28.1352 90.4938 28.0587V24.2194C90.2005 24.1557 89.7668 24.0536 89.2694 24.0536C88.2617 24.0536 87.7898 24.5 87.7898 25.4056V27.0638C87.7898 27.8929 88.3 28.3393 89.2183 28.3393ZM94.2905 21.7577C93.7038 21.7577 93.538 21.6047 93.538 21.0179V20.9031C93.538 20.3164 93.7038 20.1761 94.2905 20.1761H94.3926C94.9793 20.1761 95.1451 20.3164 95.1451 20.9031V21.0179C95.1451 21.6047 94.9793 21.7577 94.3926 21.7577H94.2905ZM93.9972 29.5C93.7038 29.5 93.6018 29.398 93.6018 29.1046V23.2756C93.6018 22.9822 93.7038 22.8929 93.9972 22.8929H94.6859C94.9793 22.8929 95.0814 22.9822 95.0814 23.2756V29.1046C95.0814 29.398 94.9793 29.5 94.6859 29.5H93.9972Z" fill="#003A5C"/>
<path d="M156.055 48C155.865 48 155.798 47.9335 155.798 47.753V41.502C155.798 41.3215 155.865 41.255 156.055 41.255H156.473C156.653 41.255 156.72 41.3215 156.72 41.502V47.753C156.72 47.9335 156.653 48 156.473 48H156.055ZM158.426 48C158.255 48 158.198 47.943 158.198 47.772V41.198C158.198 41.027 158.255 40.97 158.426 40.97H158.825C158.987 40.97 159.044 41.027 159.044 41.198V47.772C159.044 47.943 158.987 48 158.825 48H158.426ZM164.584 48.1425C163.511 48.1425 162.817 47.753 162.513 46.974C162.456 46.822 162.494 46.727 162.656 46.67L162.988 46.556C163.131 46.5085 163.207 46.5275 163.283 46.6985C163.473 47.202 163.9 47.392 164.565 47.392C165.373 47.392 165.762 47.1355 165.762 46.6605C165.762 46.0905 165.287 45.986 164.489 45.91C163.539 45.815 162.57 45.6535 162.57 44.428C162.57 43.5445 163.207 42.9555 164.48 42.9555C165.572 42.9555 166.171 43.364 166.465 43.9815C166.551 44.1525 166.503 44.2475 166.342 44.314L166.019 44.447C165.857 44.5135 165.81 44.4945 165.705 44.3425C165.534 43.972 165.23 43.7155 164.499 43.7155C163.758 43.7155 163.406 43.953 163.406 44.409C163.406 45.017 163.91 45.093 164.698 45.169C165.781 45.264 166.589 45.5015 166.589 46.6225C166.589 47.525 165.914 48.1425 164.584 48.1425ZM169.539 48.1425C168.218 48.1425 167.61 47.4395 167.61 46.2615V43.326C167.61 43.155 167.667 43.098 167.838 43.098H168.237C168.408 43.098 168.456 43.155 168.456 43.326V46.233C168.456 46.9835 168.836 47.3635 169.662 47.3635C170.118 47.3635 170.46 47.297 170.736 47.202C170.85 47.1545 170.869 47.088 170.869 46.9835V43.326C170.869 43.155 170.926 43.098 171.097 43.098H171.496C171.657 43.098 171.714 43.155 171.714 43.326V47.2875C171.714 47.582 171.648 47.696 171.353 47.8195C170.983 47.962 170.422 48.1425 169.539 48.1425ZM174.956 48.1425C173.56 48.1425 172.895 47.411 172.895 46.233V44.865C172.895 43.687 173.579 42.9555 175.013 42.9555C176.163 42.9555 176.78 43.478 177.018 44.2285C177.075 44.409 177.027 44.4945 176.866 44.5515L176.543 44.656C176.362 44.7225 176.286 44.675 176.22 44.504C176.039 43.9815 175.688 43.706 174.985 43.706C174.149 43.706 173.74 44.124 173.74 44.827V46.2615C173.74 46.974 174.168 47.392 174.985 47.392C175.669 47.392 176.058 47.107 176.229 46.5655C176.296 46.385 176.372 46.3565 176.552 46.4135L176.885 46.5085C177.046 46.575 177.113 46.651 177.037 46.8315C176.742 47.677 176.096 48.1425 174.956 48.1425ZM180.011 48.1425C178.615 48.1425 177.95 47.411 177.95 46.233V44.865C177.95 43.687 178.634 42.9555 180.068 42.9555C181.218 42.9555 181.835 43.478 182.073 44.2285C182.13 44.409 182.082 44.4945 181.921 44.5515L181.598 44.656C181.417 44.7225 181.341 44.675 181.275 44.504C181.094 43.9815 180.743 43.706 180.04 43.706C179.204 43.706 178.795 44.124 178.795 44.827V46.2615C178.795 46.974 179.223 47.392 180.04 47.392C180.724 47.392 181.113 47.107 181.284 46.5655C181.351 46.385 181.427 46.3565 181.607 46.4135L181.94 46.5085C182.101 46.575 182.168 46.651 182.092 46.8315C181.797 47.677 181.151 48.1425 180.011 48.1425ZM185.105 48.1425C183.623 48.1425 182.986 47.3255 182.986 46.1665V44.9885C182.986 43.706 183.737 42.9555 185.133 42.9555C186.596 42.9555 187.28 43.801 187.28 44.922V45.473C187.28 45.6725 187.195 45.8055 186.938 45.8055H183.832V46.2615C183.832 46.9835 184.278 47.411 185.105 47.411C185.789 47.411 186.197 47.145 186.435 46.746C186.549 46.594 186.634 46.5655 186.805 46.6605L187.062 46.7935C187.223 46.879 187.252 47.0025 187.147 47.164C186.805 47.7435 186.197 48.1425 185.105 48.1425ZM183.832 45.15H186.435V44.8745C186.435 44.124 185.998 43.6775 185.133 43.6775C184.278 43.6775 183.832 44.124 183.832 44.8745V45.15ZM190.213 48.1425C189.14 48.1425 188.446 47.753 188.142 46.974C188.085 46.822 188.123 46.727 188.285 46.67L188.617 46.556C188.76 46.5085 188.836 46.5275 188.912 46.6985C189.102 47.202 189.529 47.392 190.194 47.392C191.002 47.392 191.391 47.1355 191.391 46.6605C191.391 46.0905 190.916 45.986 190.118 45.91C189.168 45.815 188.199 45.6535 188.199 44.428C188.199 43.5445 188.836 42.9555 190.109 42.9555C191.201 42.9555 191.8 43.364 192.094 43.9815C192.18 44.1525 192.132 44.2475 191.971 44.314L191.648 44.447C191.486 44.5135 191.439 44.4945 191.334 44.3425C191.163 43.972 190.859 43.7155 190.128 43.7155C189.387 43.7155 189.035 43.953 189.035 44.409C189.035 45.017 189.539 45.093 190.327 45.169C191.41 45.264 192.218 45.5015 192.218 46.6225C192.218 47.525 191.543 48.1425 190.213 48.1425ZM195.111 48.1425C194.037 48.1425 193.344 47.753 193.04 46.974C192.983 46.822 193.021 46.727 193.182 46.67L193.515 46.556C193.657 46.5085 193.733 46.5275 193.809 46.6985C193.999 47.202 194.427 47.392 195.092 47.392C195.899 47.392 196.289 47.1355 196.289 46.6605C196.289 46.0905 195.814 45.986 195.016 45.91C194.066 45.815 193.097 45.6535 193.097 44.428C193.097 43.5445 193.733 42.9555 195.006 42.9555C196.099 42.9555 196.697 43.364 196.992 43.9815C197.077 44.1525 197.03 44.2475 196.868 44.314L196.545 44.447C196.384 44.5135 196.336 44.4945 196.232 44.3425C196.061 43.972 195.757 43.7155 195.025 43.7155C194.284 43.7155 193.933 43.953 193.933 44.409C193.933 45.017 194.436 45.093 195.225 45.169C196.308 45.264 197.115 45.5015 197.115 46.6225C197.115 47.525 196.441 48.1425 195.111 48.1425ZM200.151 48.1425C198.811 48.1425 198.023 47.449 198.023 46.328V44.77C198.023 43.649 198.811 42.9555 200.151 42.9555C201.519 42.9555 202.288 43.649 202.288 44.77V46.328C202.288 47.449 201.519 48.1425 200.151 48.1425ZM200.151 47.373C200.968 47.373 201.443 46.9835 201.443 46.328V44.77C201.443 44.105 200.968 43.725 200.151 43.725C199.362 43.725 198.868 44.105 198.868 44.77V46.328C198.868 46.9835 199.362 47.373 200.151 47.373ZM207.68 48.1425C206.293 48.1425 205.656 47.449 205.656 46.233V44.8935C205.656 43.6585 206.283 42.9555 207.575 42.9555C208.174 42.9555 208.658 43.098 208.915 43.1645V41.198C208.915 41.027 208.972 40.97 209.133 40.97H209.532C209.703 40.97 209.76 41.027 209.76 41.198V47.3255C209.76 47.639 209.684 47.7245 209.38 47.848C209.01 47.9905 208.487 48.1425 207.68 48.1425ZM207.756 47.3635C208.174 47.3635 208.525 47.297 208.782 47.221C208.905 47.164 208.915 47.145 208.915 47.031V43.9435C208.696 43.877 208.269 43.725 207.737 43.725C206.882 43.725 206.502 44.1335 206.502 44.922V46.2045C206.502 46.9645 206.92 47.3635 207.756 47.3635ZM213.024 48.1425C211.542 48.1425 210.906 47.3255 210.906 46.1665V44.9885C210.906 43.706 211.656 42.9555 213.053 42.9555C214.516 42.9555 215.2 43.801 215.2 44.922V45.473C215.2 45.6725 215.114 45.8055 214.858 45.8055H211.751V46.2615C211.751 46.9835 212.198 47.411 213.024 47.411C213.708 47.411 214.117 47.145 214.354 46.746C214.468 46.594 214.554 46.5655 214.725 46.6605L214.981 46.7935C215.143 46.879 215.171 47.0025 215.067 47.164C214.725 47.7435 214.117 48.1425 213.024 48.1425ZM211.751 45.15H214.354V44.8745C214.354 44.124 213.917 43.6775 213.053 43.6775C212.198 43.6775 211.751 44.124 211.751 44.8745V45.15ZM216.565 48C216.394 48 216.337 47.943 216.337 47.772V41.198C216.337 41.027 216.394 40.97 216.565 40.97H216.964C217.125 40.97 217.182 41.027 217.182 41.198V47.772C217.182 47.943 217.125 48 216.964 48H216.565ZM218.828 48C218.657 48 218.6 47.943 218.6 47.772V41.198C218.6 41.027 218.657 40.97 218.828 40.97H219.227C219.388 40.97 219.445 41.027 219.445 41.198V47.772C219.445 47.943 219.388 48 219.227 48H218.828ZM222.772 48.1425C221.29 48.1425 220.654 47.3255 220.654 46.1665V44.9885C220.654 43.706 221.404 42.9555 222.801 42.9555C224.264 42.9555 224.948 43.801 224.948 44.922V45.473C224.948 45.6725 224.862 45.8055 224.606 45.8055H221.499V46.2615C221.499 46.9835 221.946 47.411 222.772 47.411C223.456 47.411 223.865 47.145 224.102 46.746C224.216 46.594 224.302 46.5655 224.473 46.6605L224.729 46.7935C224.891 46.879 224.919 47.0025 224.815 47.164C224.473 47.7435 223.865 48.1425 222.772 48.1425ZM221.499 45.15H224.102V44.8745C224.102 44.124 223.665 43.6775 222.801 43.6775C221.946 43.6775 221.499 44.124 221.499 44.8745V45.15ZM228.745 48C228.555 48 228.489 47.9335 228.489 47.753V41.502C228.489 41.3215 228.555 41.255 228.745 41.255H231.272C232.621 41.255 233.467 42.0625 233.467 43.4115C233.467 44.751 232.621 45.549 231.272 45.549H229.41V47.753C229.41 47.9335 229.344 48 229.163 48H228.745ZM229.41 44.7035H231.187C232.013 44.7035 232.507 44.2285 232.507 43.4115C232.507 42.585 232.013 42.11 231.187 42.11H229.41V44.7035ZM234.867 48C234.677 48 234.611 47.9335 234.611 47.753V41.502C234.611 41.3215 234.677 41.255 234.867 41.255H235.19C235.399 41.255 235.456 41.293 235.542 41.445L237.736 45.3305L239.912 41.4545C239.997 41.293 240.054 41.255 240.244 41.255H240.605C240.795 41.255 240.852 41.3215 240.852 41.502V47.753C240.852 47.9335 240.795 48 240.605 48H240.235C240.045 48 239.978 47.9335 239.978 47.753L239.988 44.314C239.988 43.7915 240.035 43.2025 240.159 42.5375H240.102C239.864 43.1645 239.636 43.6205 239.351 44.124L238.135 46.2805C238.059 46.4135 238.002 46.461 237.85 46.461H237.613C237.451 46.461 237.404 46.423 237.318 46.2805L236.083 44.1145C235.789 43.611 235.599 43.193 235.371 42.528H235.323C235.428 43.212 235.466 43.7535 235.466 44.314V47.753C235.466 47.9335 235.409 48 235.219 48H234.867ZM242.678 48C242.488 48 242.421 47.9335 242.421 47.753V41.502C242.421 41.3215 242.488 41.255 242.678 41.255H243.096C243.276 41.255 243.343 41.3215 243.343 41.502V47.753C243.343 47.9335 243.276 48 243.096 48H242.678ZM247.33 48C247.159 48 247.102 47.943 247.102 47.772V43.8105C247.102 43.516 247.168 43.402 247.463 43.2785C247.843 43.1265 248.394 42.9555 249.277 42.9555C250.607 42.9555 251.206 43.6585 251.206 44.8365V47.772C251.206 47.943 251.149 48 250.978 48H250.588C250.417 48 250.36 47.943 250.36 47.772V44.865C250.36 44.1145 249.98 43.725 249.163 43.725C248.698 43.725 248.327 43.8105 248.061 43.9055C247.966 43.9435 247.947 44.0005 247.947 44.0765V47.772C247.947 47.943 247.89 48 247.719 48H247.33ZM254.457 48.1425C252.975 48.1425 252.339 47.3255 252.339 46.1665V44.9885C252.339 43.706 253.089 42.9555 254.486 42.9555C255.949 42.9555 256.633 43.801 256.633 44.922V45.473C256.633 45.6725 256.547 45.8055 256.291 45.8055H253.184V46.2615C253.184 46.9835 253.631 47.411 254.457 47.411C255.141 47.411 255.55 47.145 255.787 46.746C255.901 46.594 255.987 46.5655 256.158 46.6605L256.414 46.7935C256.576 46.879 256.604 47.0025 256.5 47.164C256.158 47.7435 255.55 48.1425 254.457 48.1425ZM253.184 45.15H255.787V44.8745C255.787 44.124 255.35 43.6775 254.486 43.6775C253.631 43.6775 253.184 44.124 253.184 44.8745V45.15ZM257.998 48C257.827 48 257.77 47.943 257.77 47.772V41.198C257.77 41.027 257.827 40.97 257.998 40.97H258.397C258.558 40.97 258.615 41.027 258.615 41.198V47.772C258.615 47.943 258.558 48 258.397 48H257.998ZM262.541 48C262.37 48 262.313 47.943 262.313 47.772V43.8105C262.313 43.516 262.389 43.3925 262.674 43.269C263.025 43.117 263.519 42.9555 264.308 42.9555C264.849 42.9555 265.248 43.079 265.533 43.3165C265.79 43.212 266.36 42.9555 267.243 42.9555C268.507 42.9555 269.058 43.6205 269.058 44.7985V47.772C269.058 47.943 269.001 48 268.83 48H268.44C268.269 48 268.212 47.943 268.212 47.772V44.827C268.212 44.0955 267.861 43.725 267.129 43.725C266.588 43.725 266.189 43.9055 265.989 43.9815C266.094 44.2095 266.132 44.485 266.132 44.7985V47.772C266.132 47.943 266.084 48 265.913 48H265.514C265.343 48 265.286 47.943 265.286 47.772V44.827C265.286 44.0955 264.925 43.725 264.184 43.725C263.804 43.725 263.538 43.7915 263.282 43.8865C263.168 43.934 263.158 44.0005 263.158 44.086V47.772C263.158 47.943 263.101 48 262.93 48H262.541ZM272.322 48.1425C270.983 48.1425 270.194 47.449 270.194 46.328V44.77C270.194 43.649 270.983 42.9555 272.322 42.9555C273.69 42.9555 274.46 43.649 274.46 44.77V46.328C274.46 47.449 273.69 48.1425 272.322 48.1425ZM272.322 47.373C273.139 47.373 273.614 46.9835 273.614 46.328V44.77C273.614 44.105 273.139 43.725 272.322 43.725C271.534 43.725 271.04 44.105 271.04 44.77V46.328C271.04 46.9835 271.534 47.373 272.322 47.373ZM275.861 48C275.69 48 275.633 47.943 275.633 47.772V43.8105C275.633 43.516 275.7 43.402 275.994 43.2785C276.374 43.1265 276.925 42.9555 277.809 42.9555C279.139 42.9555 279.737 43.6585 279.737 44.8365V47.772C279.737 47.943 279.68 48 279.509 48H279.12C278.949 48 278.892 47.943 278.892 47.772V44.865C278.892 44.1145 278.512 43.725 277.695 43.725C277.229 43.725 276.859 43.8105 276.593 43.9055C276.498 43.9435 276.479 44.0005 276.479 44.0765V47.772C276.479 47.943 276.422 48 276.251 48H275.861ZM282.922 48.1425C281.535 48.1425 280.899 47.449 280.899 46.233V44.8935C280.899 43.6585 281.526 42.9555 282.818 42.9555C283.416 42.9555 283.901 43.098 284.157 43.1645V41.198C284.157 41.027 284.214 40.97 284.376 40.97H284.775C284.946 40.97 285.003 41.027 285.003 41.198V47.3255C285.003 47.639 284.927 47.7245 284.623 47.848C284.252 47.9905 283.73 48.1425 282.922 48.1425ZM282.998 47.3635C283.416 47.3635 283.768 47.297 284.024 47.221C284.148 47.164 284.157 47.145 284.157 47.031V43.9435C283.939 43.877 283.511 43.725 282.979 43.725C282.124 43.725 281.744 44.1335 281.744 44.922V46.2045C281.744 46.9645 282.162 47.3635 282.998 47.3635ZM288.295 48.1425C286.956 48.1425 286.167 47.449 286.167 46.328V44.77C286.167 43.649 286.956 42.9555 288.295 42.9555C289.663 42.9555 290.433 43.649 290.433 44.77V46.328C290.433 47.449 289.663 48.1425 288.295 48.1425ZM288.295 47.373C289.112 47.373 289.587 46.9835 289.587 46.328V44.77C289.587 44.105 289.112 43.725 288.295 43.725C287.507 43.725 287.013 44.105 287.013 44.77V46.328C287.013 46.9835 287.507 47.373 288.295 47.373ZM295.825 48.1425C294.438 48.1425 293.801 47.449 293.801 46.233V44.8935C293.801 43.6585 294.428 42.9555 295.72 42.9555C296.319 42.9555 296.803 43.098 297.06 43.1645V41.198C297.06 41.027 297.117 40.97 297.278 40.97H297.677C297.848 40.97 297.905 41.027 297.905 41.198V47.3255C297.905 47.639 297.829 47.7245 297.525 47.848C297.155 47.9905 296.632 48.1425 295.825 48.1425ZM295.901 47.3635C296.319 47.3635 296.67 47.297 296.927 47.221C297.05 47.164 297.06 47.145 297.06 47.031V43.9435C296.841 43.877 296.414 43.725 295.882 43.725C295.027 43.725 294.647 44.1335 294.647 44.922V46.2045C294.647 46.9645 295.065 47.3635 295.901 47.3635ZM299.621 42.091C299.269 42.091 299.174 42.015 299.174 41.654V41.5875C299.174 41.236 299.269 41.1505 299.621 41.1505H299.687C300.029 41.1505 300.134 41.236 300.134 41.5875V41.654C300.134 42.0055 300.029 42.091 299.687 42.091H299.621ZM299.459 48C299.288 48 299.231 47.943 299.231 47.772V43.326C299.231 43.155 299.288 43.098 299.459 43.098H299.849C300.02 43.098 300.077 43.155 300.077 43.326V47.772C300.077 47.943 300.02 48 299.849 48H299.459ZM303.329 50.299C302.303 50.299 301.723 49.9095 301.391 49.3205C301.286 49.159 301.315 49.045 301.486 48.9595L301.761 48.8075C301.942 48.7125 302.018 48.7505 302.132 48.9025C302.36 49.2825 302.673 49.539 303.31 49.539C304.136 49.539 304.526 49.0735 304.526 48.2755V47.734C304.26 47.8195 303.775 47.9715 303.186 47.9715C301.866 47.9715 301.267 47.2685 301.267 46.0905V44.922C301.267 43.649 301.942 42.9555 303.357 42.9555C304.089 42.9555 304.678 43.098 305.02 43.25C305.324 43.383 305.371 43.459 305.371 43.7725V48.2375C305.371 49.4725 304.792 50.299 303.329 50.299ZM303.3 47.202C303.861 47.202 304.298 47.0595 304.526 46.9835V44.067C304.526 43.953 304.507 43.9245 304.393 43.877C304.155 43.801 303.813 43.725 303.414 43.725C302.531 43.725 302.113 44.1335 302.113 44.9505V46.0715C302.113 46.7935 302.512 47.202 303.3 47.202ZM307.087 42.091C306.735 42.091 306.64 42.015 306.64 41.654V41.5875C306.64 41.236 306.735 41.1505 307.087 41.1505H307.153C307.495 41.1505 307.6 41.236 307.6 41.5875V41.654C307.6 42.0055 307.495 42.091 307.153 42.091H307.087ZM306.925 48C306.754 48 306.697 47.943 306.697 47.772V43.326C306.697 43.155 306.754 43.098 306.925 43.098H307.315C307.486 43.098 307.543 43.155 307.543 43.326V47.772C307.543 47.943 307.486 48 307.315 48H306.925ZM311.46 48C309.921 48 309.38 47.5725 309.38 45.986V43.877H308.591C308.42 43.877 308.363 43.82 308.363 43.6585V43.326C308.363 43.155 308.42 43.098 308.591 43.098H309.38V42.186C309.38 42.015 309.437 41.958 309.608 41.958H309.997C310.168 41.958 310.225 42.015 310.225 42.186V43.098H311.47C311.641 43.098 311.698 43.155 311.698 43.326V43.6585C311.698 43.82 311.641 43.877 311.47 43.877H310.225V45.9575C310.225 47.0025 310.529 47.1925 311.46 47.1925C311.631 47.1925 311.688 47.2495 311.688 47.43V47.7625C311.688 47.9335 311.631 48 311.46 48ZM314.401 48.1425C312.739 48.1425 312.321 47.601 312.321 46.632C312.321 45.5205 312.938 45.15 314.439 45.15C314.914 45.15 315.361 45.207 315.532 45.2165V44.846C315.532 44.1715 315.294 43.706 314.401 43.706C313.822 43.706 313.442 43.9055 313.214 44.295C313.119 44.4375 313.071 44.466 312.91 44.3995L312.606 44.276C312.444 44.2095 312.397 44.124 312.482 43.953C312.815 43.326 313.442 42.9555 314.42 42.9555C315.95 42.9555 316.377 43.801 316.377 44.8745V47.354C316.377 47.6865 316.301 47.7815 316.035 47.8955C315.684 48.0475 315.142 48.1425 314.401 48.1425ZM314.325 47.4395C314.838 47.4395 315.161 47.392 315.38 47.316C315.503 47.278 315.532 47.24 315.532 47.107V45.891C315.342 45.872 314.819 45.8245 314.344 45.8245C313.451 45.8245 313.176 46.0905 313.176 46.6225C313.176 47.126 313.375 47.4395 314.325 47.4395ZM317.899 48C317.728 48 317.671 47.943 317.671 47.772V41.198C317.671 41.027 317.728 40.97 317.899 40.97H318.298C318.459 40.97 318.516 41.027 318.516 41.198V47.772C318.516 47.943 318.459 48 318.298 48H317.899ZM321.843 48.1425C320.361 48.1425 319.724 47.3255 319.724 46.1665V44.9885C319.724 43.706 320.475 42.9555 321.871 42.9555C323.334 42.9555 324.018 43.801 324.018 44.922V45.473C324.018 45.6725 323.933 45.8055 323.676 45.8055H320.57V46.2615C320.57 46.9835 321.016 47.411 321.843 47.411C322.527 47.411 322.935 47.145 323.173 46.746C323.287 46.594 323.372 46.5655 323.543 46.6605L323.8 46.7935C323.961 46.879 323.99 47.0025 323.885 47.164C323.543 47.7435 322.935 48.1425 321.843 48.1425ZM320.57 45.15H323.173V44.8745C323.173 44.124 322.736 43.6775 321.871 43.6775C321.016 43.6775 320.57 44.124 320.57 44.8745V45.15Z" fill="#003A5C"/>
<path fill-rule="evenodd" clip-rule="evenodd" d="M158.217 31.8671H156.878C156.253 31.8671 156.074 31.6794 156.074 31.0225V12.9099C156.074 12.2529 156.253 12.0652 156.878 12.0652H158.217C158.842 12.0652 159.021 12.2529 159.021 12.9099V31.0225C159.021 31.6794 158.842 31.8671 158.217 31.8671Z" fill="#003B5C"/>
<path fill-rule="evenodd" clip-rule="evenodd" d="M173.755 23.0454C173.755 19.7608 171.79 17.6961 167.95 17.6961C164.2 17.6961 162.146 19.7608 162.146 23.0454V26.7993C162.146 30.084 164.2 32.1486 167.95 32.1486C171.701 32.1486 173.755 30.084 173.755 26.7993V23.0454ZM165.093 23.0454C165.093 21.45 166.075 20.5115 167.95 20.5115C169.826 20.5115 170.897 21.45 170.808 23.0454V26.7993C170.808 28.3947 169.826 29.3332 167.95 29.3332C166.165 29.3332 165.093 28.3947 165.093 26.7993V23.0454Z" fill="#003B5C"/>
<path fill-rule="evenodd" clip-rule="evenodd" d="M182.327 17.6961C185.363 17.6961 187.149 19.1977 187.774 21.1685C187.953 21.8254 187.774 22.2008 187.238 22.3885L186.167 22.7639C185.542 23.0454 185.274 22.8577 185.006 22.2008C184.56 21.0746 183.756 20.4177 182.238 20.4177C180.363 20.4177 179.47 21.3562 179.47 23.0454V26.7993C179.47 28.4886 180.452 29.4271 182.238 29.4271C183.756 29.4271 184.56 28.7701 185.006 27.5501C185.274 26.8932 185.452 26.7993 186.167 26.987L187.328 27.3624C187.953 27.6439 188.131 27.9255 187.863 28.5824C187.06 30.8348 185.274 32.1486 182.238 32.1486C178.398 32.1486 176.612 30.084 176.612 26.7055V23.1393C176.434 19.8546 178.309 17.6961 182.327 17.6961Z" fill="#003B5C"/>
<path fill-rule="evenodd" clip-rule="evenodd" d="M200.99 23.1393C200.99 20.0423 199.74 17.6961 195.543 17.6961C192.864 17.6961 191.167 18.8223 190.364 20.3238C190.096 20.9808 190.185 21.2623 190.81 21.5439L191.793 22.0131C192.328 22.2946 192.507 22.2008 192.864 21.6377C193.4 20.7931 194.293 20.3238 195.543 20.3238C197.418 20.3238 198.043 21.2623 198.043 22.9516V23.7962C197.863 23.7962 197.597 23.781 197.278 23.7628C196.806 23.7358 196.219 23.7024 195.632 23.7024C191.614 23.7024 189.917 24.7347 189.917 27.8316C189.917 30.5532 191.078 32.1486 195.543 32.1486C197.597 32.1486 199.115 31.8671 200.097 31.3979C200.811 31.1163 200.99 30.8348 200.99 29.8963V23.1393ZM192.864 27.9255C192.864 26.7993 193.311 26.1424 195.275 26.1424C195.84 26.1424 196.494 26.1734 197.049 26.1998C197.459 26.2193 197.816 26.2362 198.043 26.2362V29.0517C198.043 29.192 198.043 29.2624 198.01 29.3093C197.977 29.3565 197.91 29.38 197.775 29.4271C197.731 29.4363 197.685 29.4465 197.635 29.4573C197.182 29.5561 196.482 29.7086 195.275 29.7086C193.311 29.7086 192.864 28.9578 192.864 27.9255Z" fill="#003B5C"/>
<path fill-rule="evenodd" clip-rule="evenodd" d="M206.437 31.8671H205.098C204.473 31.8671 204.294 31.6794 204.294 31.0225V12.9099C204.294 12.2529 204.473 12.0652 205.098 12.0652H206.437C207.062 12.0652 207.241 12.2529 207.241 12.9099V31.0225C207.241 31.6794 207.062 31.8671 206.437 31.8671Z" fill="#003B5C"/>
<path fill-rule="evenodd" clip-rule="evenodd" d="M215.545 17.6961C218.492 17.6961 220.189 18.8223 220.992 20.5115C221.26 21.1685 221.082 21.45 220.546 21.7316L219.385 22.2008C218.76 22.4823 218.671 22.3885 218.313 21.8254C217.867 20.9808 217.242 20.4177 215.545 20.4177C213.849 20.4177 213.134 20.8869 213.134 21.9192C213.134 23.1393 214.117 23.327 216.081 23.5147C219.117 23.7962 221.26 24.547 221.26 27.6439C221.26 30.2717 219.385 32.1486 215.724 32.1486C212.777 32.1486 210.902 31.0225 210.098 28.9578C209.83 28.3947 210.009 28.0193 210.545 27.8316L211.706 27.4563C212.241 27.2686 212.509 27.3624 212.777 27.9255C213.224 28.9578 214.117 29.4271 215.635 29.4271C217.421 29.4271 218.313 28.864 218.313 27.8316C218.313 26.6116 217.331 26.3301 215.277 26.1424C212.777 25.8608 210.098 25.4855 210.098 22.0131C210.277 19.4792 212.063 17.6961 215.545 17.6961Z" fill="#003B5C"/>
<path fill-rule="evenodd" clip-rule="evenodd" d="M235.458 23.1393C235.458 20.1361 233.583 17.6961 229.565 17.6961C225.725 17.6961 223.671 19.7608 223.761 23.2331V26.3301C223.761 29.6147 225.368 32.0548 229.565 32.0548C232.422 32.0548 234.119 31.1163 235.012 29.5209C235.369 28.9578 235.369 28.4886 234.744 28.207L233.851 27.7378C233.226 27.3624 232.958 27.4563 232.512 28.0193C231.976 28.864 230.994 29.4271 229.476 29.4271C227.69 29.4271 226.618 28.5824 226.618 26.7993V25.8608H234.298C235.191 25.8608 235.458 25.3916 235.458 24.7347V23.1393ZM226.618 22.9516C226.618 21.3562 227.69 20.3238 229.565 20.3238C231.44 20.3238 232.512 21.3562 232.512 23.0454V23.6085H226.618V22.9516Z" fill="#003B5C"/>
<path fill-rule="evenodd" clip-rule="evenodd" d="M248.764 23.1393C248.764 20.0423 247.513 17.6961 243.316 17.6961C240.638 17.6961 238.941 18.8223 238.137 20.3238C237.869 20.9808 237.959 21.2623 238.584 21.5439L239.566 22.0131C240.102 22.2946 240.28 22.2008 240.638 21.6377C241.173 20.7931 242.066 20.3238 243.316 20.3238C245.192 20.3238 245.817 21.2623 245.817 22.9516V23.7962C245.637 23.7962 245.37 23.781 245.052 23.7628C244.579 23.7358 243.992 23.7024 243.406 23.7024C239.387 23.7024 237.691 24.7347 237.691 27.8316C237.691 30.5532 238.852 32.1486 243.316 32.1486C245.37 32.1486 246.888 31.8671 247.871 31.3979C248.585 31.1163 248.764 30.8348 248.764 29.8963V23.1393ZM240.638 27.9255C240.638 26.7993 241.084 26.1424 243.049 26.1424C243.614 26.1424 244.267 26.1734 244.822 26.1998C245.233 26.2193 245.589 26.2362 245.817 26.2362V29.0517C245.817 29.192 245.817 29.2624 245.784 29.3093C245.75 29.3565 245.683 29.38 245.549 29.4271C245.505 29.4363 245.458 29.4465 245.409 29.4573C244.955 29.5561 244.256 29.7086 243.049 29.7086C241.084 29.7086 240.638 28.9578 240.638 27.9255Z" fill="#003B5C"/>
<path fill-rule="evenodd" clip-rule="evenodd" d="M258.497 17.6961C259.122 17.6961 259.3 17.8838 259.3 18.5407V19.7608C259.3 20.4177 259.122 20.6054 258.497 20.6054H257.604C256.622 20.6054 255.818 20.6992 255.193 20.8869C255.014 20.9808 254.925 21.0746 254.925 21.1685V30.9286C254.925 31.5855 254.746 31.7732 254.121 31.7732H252.782C252.157 31.7732 251.978 31.5855 251.978 30.9286V20.0423C251.978 19.1977 252.157 18.8223 252.96 18.5407C253.943 18.1653 255.371 17.79 257.693 17.6961H258.497V17.6961Z" fill="#003B5C"/>
<path fill-rule="evenodd" clip-rule="evenodd" d="M266.533 17.6961C269.57 17.6961 271.355 19.1977 271.981 21.1685C272.159 21.8254 271.981 22.2008 271.445 22.3885L270.373 22.7639C269.748 23.0454 269.48 22.8577 269.212 22.2008C268.766 21.0746 267.962 20.4177 266.444 20.4177C264.569 20.4177 263.676 21.3562 263.676 23.0454V26.7993C263.676 28.4886 264.658 29.4271 266.444 29.4271C267.962 29.4271 268.766 28.7701 269.212 27.5501C269.48 26.8932 269.659 26.7993 270.373 26.987L271.534 27.3624C272.159 27.6439 272.338 27.9255 272.07 28.5824C271.266 30.8348 269.48 32.1486 266.444 32.1486C262.604 32.1486 260.818 30.084 260.818 26.7055V23.1393C260.729 19.8546 262.515 17.6961 266.533 17.6961Z" fill="#003B5C"/>
<path fill-rule="evenodd" clip-rule="evenodd" d="M277.695 12.9099V18.1653C278.499 17.9776 279.392 17.7899 280.732 17.7899C284.393 17.7899 286 19.7607 286 23.1393V31.0225C286 31.6794 285.821 31.8671 285.196 31.8671H283.768C283.143 31.8671 282.964 31.6794 282.964 31.0225V23.2331C282.964 21.5439 281.982 20.6054 280.196 20.6054C278.946 20.6054 277.785 20.8869 277.606 20.9808V31.0225C277.606 31.6794 277.428 31.8671 276.803 31.8671H275.463C274.838 31.8671 274.659 31.6794 274.659 31.0225V12.9099C274.659 12.2529 274.838 12.0652 275.463 12.0652H276.803C277.517 12.0652 277.695 12.2529 277.695 12.9099Z" fill="#003B5C"/>
<path fill-rule="evenodd" clip-rule="evenodd" d="M136.668 29.1197L133.685 32.0876C125.819 39.8222 117.953 32.0876 117.953 32.0876L114.97 29.1197C107.104 21.3851 114.97 13.6505 114.97 13.6505L117.953 10.6825C125.819 2.94793 133.685 10.6825 133.685 10.6825L136.668 13.6505C144.534 21.3851 136.668 29.1197 136.668 29.1197Z" fill="white"/>
<path fill-rule="evenodd" clip-rule="evenodd" d="M125.638 27.0511C128.984 27.0511 131.696 24.353 131.696 21.0253C131.696 17.6977 128.984 14.9995 125.638 14.9995C122.293 14.9995 119.581 17.6977 119.581 21.0253C119.49 24.353 122.203 27.0511 125.638 27.0511" fill="url(#paint0_linear_1412_1539)"/>
<path fill-rule="evenodd" clip-rule="evenodd" d="M135.584 4.47688L142.726 11.5819C152.111 20.9183 143.942 30.176 142.918 31.3362C142.847 31.4165 142.811 31.4581 142.816 31.4581L135.674 38.5631C125.729 48.5461 115.693 38.5631 115.693 38.5631L108.551 31.4581C98.5151 21.475 108.551 11.5819 108.551 11.5819L115.603 4.47688C125.548 -5.50615 135.584 4.47688 135.584 4.47688ZM133.052 31.6379L135.855 28.8499C135.855 28.8499 143.268 21.475 135.855 14.1002L133.052 11.3121C133.052 11.3121 125.638 3.93726 118.225 11.3121L115.422 14.1002C115.422 14.1002 108.008 21.475 115.422 28.8499L118.225 31.6379C118.225 31.6379 125.638 39.0128 133.052 31.6379Z" fill="url(#paint1_linear_1412_1539)"/>
<mask id="mask0_1412_1539" style="mask-type:luminance" maskUnits="userSpaceOnUse" x="104" y="0" width="44" height="43">
<path fill-rule="evenodd" clip-rule="evenodd" d="M142.726 11.5819L135.584 4.47688C135.584 4.47688 125.548 -5.5961 115.512 4.47688L108.46 11.5819C108.46 11.5819 98.4247 21.475 108.46 31.4581L115.603 38.5631C115.603 38.5631 125.638 48.5461 135.584 38.5631L142.726 31.4581C142.726 31.548 152.762 21.565 142.726 11.5819ZM136.307 28.4002L133.233 31.548C125.819 38.9228 118.858 32.0876 118.858 32.0876L115.241 28.67C107.827 21.3851 115.422 14.1002 115.331 14.0102L118.134 11.2222C125.548 3.93725 132.962 11.2222 132.962 11.2222L135.764 14.0102C143.178 21.475 136.307 28.4002 136.307 28.4002Z" fill="white"/>
</mask>
<g mask="url(#mask0_1412_1539)">
<path fill-rule="evenodd" clip-rule="evenodd" d="M135.764 32.897C126 42.4304 116.236 32.7172 116.236 32.7172V32.7172C114.156 33.4367 112.077 33.4367 110.268 33.0769L115.874 38.5631C115.874 38.5631 125.819 48.3662 135.674 38.5631L142.726 31.548C142.726 31.548 145.529 28.7599 146.614 24.7127L142.455 28.8499C140.104 31.1882 137.934 32.3574 135.764 32.897Z" fill="url(#paint2_linear_1412_1539)"/>
<path opacity="0.8" fill-rule="evenodd" clip-rule="evenodd" d="M132.69 17.5178C132.51 23.2737 128.26 27.5008 128.26 27.5008L126.452 29.2995C128.079 30.2889 130.611 31.2782 133.414 30.8285L135.584 28.67C135.584 28.67 137.121 27.0511 138.115 24.7127C137.663 23.1838 136.759 21.5649 135.131 19.9461L132.69 17.5178Z" fill="url(#paint3_linear_1412_1539)"/>
<path opacity="0.8" fill-rule="evenodd" clip-rule="evenodd" d="M121.66 0.519616C121.751 0.429679 121.841 0.429679 121.841 0.339742C121.57 0.429679 121.389 0.519616 121.118 0.519616L121.389 0.789428L121.66 0.519616Z" fill="url(#paint4_linear_1412_1539)"/>
<path opacity="0.6" fill-rule="evenodd" clip-rule="evenodd" d="M121.479 34.7857L121.208 35.0555C118.677 37.7536 117.953 38.1134 117.953 38.1134C119.219 39.1926 124.644 43.6895 130.701 39.3725C125.548 38.7429 121.751 35.0555 121.751 35.0555L121.479 34.7857Z" fill="url(#paint5_linear_1412_1539)"/>
<path opacity="0.24" fill-rule="evenodd" clip-rule="evenodd" d="M104.211 23.9932C105.477 20.1259 108.189 17.6976 108.189 17.6976L111.082 14.8196C112.258 10.6825 115.06 7.89447 115.06 7.89447L116.959 6.00579C116.507 5.73598 115.874 5.37623 115.241 5.10641L108.641 11.6718C108.551 11.6718 102.945 17.0681 104.211 23.9932Z" fill="#66C5E3"/>
<path opacity="0.5" fill-rule="evenodd" clip-rule="evenodd" d="M126.271 5.64606L126.814 6.18568C131.515 7.08505 134.86 10.4127 134.86 10.4127L142.003 17.5178C143.088 18.597 143.992 19.7662 144.625 20.8455C145.348 19.0467 145.619 16.7983 144.715 14.37C144.082 13.4706 143.359 12.4813 142.364 11.5819L136.307 5.28631C133.866 3.93725 130.068 3.12781 126.271 5.64606Z" fill="url(#paint6_linear_1412_1539)"/>
<path opacity="0.8" fill-rule="evenodd" clip-rule="evenodd" d="M115.332 28.8499C113.975 27.5008 112.89 25.3423 112.348 24.0832L112.258 24.353C111.534 26.2417 111.263 28.67 112.348 31.1882C113.614 31.0983 114.789 30.5587 116.145 29.7492L115.332 28.8499Z" fill="url(#paint7_linear_1412_1539)"/>
<path opacity="0.8" fill-rule="evenodd" clip-rule="evenodd" d="M132.69 17.5178L135.131 19.9461C136.759 21.5649 137.663 23.1838 138.115 24.7127C139.29 21.9247 139.562 17.8775 135.584 13.9203L132.781 11.1322C132.781 11.1322 131.515 9.8731 129.616 8.97372C131.877 11.9417 132.69 14.9096 132.69 17.5178Z" fill="url(#paint8_linear_1412_1539)"/>
<path opacity="0.8" fill-rule="evenodd" clip-rule="evenodd" d="M123.921 13.8303C123.378 12.6612 122.564 11.402 121.299 10.1429C121.118 10.3228 118.677 12.841 118.134 16.3486C120.214 14.6398 122.112 14.0102 123.921 13.8303Z" fill="url(#paint9_linear_1412_1539)"/>
<path fill-rule="evenodd" clip-rule="evenodd" d="M131.063 39.1027C124.192 44.0492 117.863 37.6637 117.863 37.6637L117.773 37.5738C117.049 37.9335 116.326 38.2933 115.603 38.4731V38.4731C115.603 38.4731 125.458 48.2763 135.403 38.653C133.956 39.1926 132.419 39.2826 131.063 39.1027Z" fill="url(#paint10_linear_1412_1539)"/>
<path opacity="0.4" fill-rule="evenodd" clip-rule="evenodd" d="M112.258 31.0983C111.173 28.5801 111.444 26.1517 112.167 24.2631C110.359 22.4643 109.184 19.5863 109.907 15.809C109.907 15.809 105.115 19.7662 104.121 23.9933C104.482 25.8819 105.386 27.9505 107.014 30.019C108.551 30.7385 110.268 31.2782 112.258 31.0983Z" fill="url(#paint11_linear_1412_1539)"/>
<path opacity="0.8" fill-rule="evenodd" clip-rule="evenodd" d="M129.978 9.24354C131.967 10.2328 133.142 11.402 133.142 11.402L135.945 14.1901C139.923 18.1473 139.652 22.1046 138.477 24.9826C138.838 26.3316 138.838 27.5907 138.658 28.7599C138.929 28.4901 139.2 28.3102 139.471 28.0404L142.274 25.2524C142.274 25.2524 143.901 23.6335 144.896 21.0253C144.263 19.9461 143.359 18.8668 142.274 17.6976L135.132 10.5926C135.132 10.5926 131.244 6.99511 126.542 6.09573V6.18567L126.814 6.27561L126.995 6.36555C128.26 7.26492 129.616 8.79385 129.978 9.24354Z" fill="url(#paint12_linear_1412_1539)"/>
<path opacity="0.8" fill-rule="evenodd" clip-rule="evenodd" d="M114.518 27.5008L116.416 29.3895C117.14 28.9398 117.773 28.4002 118.496 27.6807L121.299 24.8926V24.8926C118.315 21.8347 117.682 18.8668 118.134 16.3486" fill="url(#paint13_linear_1412_1539)"/>
<path opacity="0.8" fill-rule="evenodd" clip-rule="evenodd" d="M126.362 29.3895L121.66 34.0662C124.463 35.2354 128.532 35.6851 132.6 31.548L133.233 30.9184C130.521 31.3681 127.989 30.3788 126.362 29.3895Z" fill="url(#paint14_linear_1412_1539)"/>
<path fill-rule="evenodd" clip-rule="evenodd" d="M121.389 0.789438L126.271 5.64605C130.068 3.12781 133.956 3.93724 136.307 5.19636L135.312 4.20705C135.312 4.20705 129.255 -1.63887 121.841 0.339752C121.751 0.429689 121.66 0.429689 121.66 0.519627L121.389 0.789438Z" fill="url(#paint15_linear_1412_1539)"/>
<path fill-rule="evenodd" clip-rule="evenodd" d="M109.184 15.8089L114.789 10.3228C116.055 9.06365 117.321 8.07434 118.586 7.44478L118.496 7.35485C118.496 7.35485 116.778 5.73598 115.06 5.10641L111.444 8.97372C111.444 8.88378 108.641 11.7618 109.184 15.8089Z" fill="url(#paint16_linear_1412_1539)"/>
<path fill-rule="evenodd" clip-rule="evenodd" d="M133.142 31.7278C129.074 35.775 125.005 35.4153 122.203 34.2461L121.841 34.1562L122.203 34.8757C122.203 34.8757 125.91 38.5631 131.153 39.1926C131.696 38.8329 132.238 38.3832 132.781 37.7536L135.584 34.9656C135.584 34.9656 138.205 32.3574 138.748 28.7599C137.03 30.1989 135.403 30.9184 133.866 31.1882L133.142 31.7278Z" fill="url(#paint17_linear_1412_1539)"/>
<path fill-rule="evenodd" clip-rule="evenodd" d="M144.805 21.1153C145.71 22.5542 146.433 23.8134 146.704 25.1624C147.699 22.1945 147.789 18.4171 145.167 14.5498C145.981 16.8882 145.438 19.3165 144.805 21.1153Z" fill="url(#paint18_linear_1412_1539)"/>
<path opacity="0.8" fill-rule="evenodd" clip-rule="evenodd" d="M117.321 17.0681C117.592 16.7983 117.863 16.5284 118.134 16.3486C118.677 12.841 121.118 10.3228 121.299 10.1429V10.1429L120.304 9.15359C119.49 9.60328 118.586 10.3228 117.773 11.1322L114.97 13.9203C114.97 13.9203 110.721 18.7769 112.258 24.2631C113.252 21.8347 114.518 19.8561 114.518 19.8561L117.321 17.0681Z" fill="url(#paint19_linear_1412_1539)"/>
<path fill-rule="evenodd" clip-rule="evenodd" d="M117.321 17.0681C117.592 16.7983 117.863 16.5284 118.134 16.3486C118.677 12.841 121.118 10.3228 121.299 10.1429V10.1429L120.304 9.15359C119.49 9.60328 118.586 10.3228 117.773 11.1322L114.97 13.9203C114.97 13.9203 110.721 18.7769 112.258 24.2631C113.252 21.8347 114.518 19.8561 114.518 19.8561L117.321 17.0681Z" fill="url(#paint20_linear_1412_1539)"/>
<path opacity="0.4" fill-rule="evenodd" clip-rule="evenodd" d="M114.97 14.0102L117.773 11.2222C118.586 10.4127 119.49 9.69322 120.304 9.24354L118.586 7.53473C117.321 8.25423 116.055 9.1536 114.789 10.4127L110.54 14.6398C109.726 17.4278 111.353 22.1046 112.258 24.0832C110.721 19.4064 114.97 14.0102 114.97 14.0102Z" fill="url(#paint21_linear_1412_1539)"/>
<path opacity="0.4" fill-rule="evenodd" clip-rule="evenodd" d="M114.879 14.0102L118.315 10.5926C118.858 9.96304 120.304 9.1536 120.304 9.1536L118.586 7.44479C117.321 8.16429 115.784 9.1536 114.518 10.5027L110.268 14.7297C108.46 20.9354 112.167 24.353 112.258 24.353C110.721 18.8668 114.879 14.0102 114.879 14.0102Z" fill="url(#paint22_linear_1412_1539)"/>
<path opacity="0.4" fill-rule="evenodd" clip-rule="evenodd" d="M115.151 14.0102L118.044 11.1322C118.858 10.3228 119.49 9.60329 120.394 9.1536L118.677 7.44479C117.411 8.16429 116.416 9.06366 115.06 10.3228L110.811 14.5498C109.726 20.4857 112.258 23.9033 112.258 23.9033C110.721 18.5071 115.151 14.0102 115.151 14.0102Z" fill="url(#paint23_linear_1412_1539)"/>
<path opacity="0.8" fill-rule="evenodd" clip-rule="evenodd" d="M121.389 24.8926V24.8926L124.282 27.7706C124.282 27.7706 125.096 28.58 126.452 29.3895L128.26 27.5907C128.26 27.5907 132.51 23.3637 132.69 17.6077L132.238 17.158C132.238 17.158 128.622 13.5605 124.011 13.9203C126.452 19.6763 121.57 24.7127 121.389 24.8926Z" fill="url(#paint24_linear_1412_1539)"/>
<path fill-rule="evenodd" clip-rule="evenodd" d="M126.723 6.09573L126.271 5.64605C126.09 5.73598 126 5.82592 125.819 6.0058C126.09 6.0058 126.362 6.09573 126.723 6.09573Z" fill="#6EC7E0"/>
<path fill-rule="evenodd" clip-rule="evenodd" d="M121.66 34.0662L120.575 33.4367C118.858 32.5373 118.225 31.7279 118.225 31.7279L116.145 29.6593C114.789 30.4687 113.614 31.0084 112.348 31.0983C112.89 32.2675 114.066 33.8864 115.241 35.1455L117.863 37.6637C119.038 36.8543 119.852 35.865 121.118 34.6059L121.66 34.0662Z" fill="url(#paint25_linear_1412_1539)"/>
<path fill-rule="evenodd" clip-rule="evenodd" d="M114.699 4.83661C115.331 5.10642 115.874 5.37623 116.416 5.73598L121.389 0.789435L121.118 0.519623C119.219 1.14918 117.23 2.31837 115.241 4.29699L114.699 4.83661Z" fill="url(#paint26_linear_1412_1539)"/>
<path fill-rule="evenodd" clip-rule="evenodd" d="M124.192 7.35486L123.559 7.98442C125.819 7.62467 128.531 8.34417 129.616 8.97373C129.255 8.52404 128.712 8.07436 128.26 7.62467L126.723 6.09574C126.452 6.0058 126.09 6.0058 125.819 5.91586C125.277 6.36555 124.734 6.81524 124.192 7.35486Z" fill="#45ADD0"/>
<path opacity="0.6" fill-rule="evenodd" clip-rule="evenodd" d="M123.378 8.25423C125.005 7.71461 127.537 8.16429 128.803 8.61398C129.255 8.79385 129.797 8.97373 129.888 9.06366C128.893 7.71461 127.266 6.36555 127.266 6.36555C126.994 6.18567 126.271 6.0058 125.91 6.0058C124.825 6.63536 123.378 8.25423 123.378 8.25423Z" fill="#65C4F0"/>
<path opacity="0.8" fill-rule="evenodd" clip-rule="evenodd" d="M114.789 34.6958C113.523 33.4367 112.8 32.3574 112.348 31.0983C110.359 31.1882 108.551 30.6486 107.195 29.9291C107.556 30.4687 107.918 30.8285 108.37 31.2782L115.693 38.5631C116.416 38.2933 117.14 38.0235 117.863 37.6637L114.789 34.6958Z" fill="url(#paint27_linear_1412_1539)"/>
<path opacity="0.8" fill-rule="evenodd" clip-rule="evenodd" d="M115.151 35.0555C113.885 33.7964 112.8 32.3574 112.348 31.0983C110.359 31.1882 108.551 30.6486 107.195 30.019C107.556 30.5587 107.918 30.9184 108.37 31.3681L115.693 38.653C116.416 38.3832 117.14 38.1134 117.863 37.7536L115.151 35.0555Z" fill="url(#paint28_linear_1412_1539)"/>
<path opacity="0.6" fill-rule="evenodd" clip-rule="evenodd" d="M118.586 7.44479C121.118 6.09573 123.559 5.73598 125.729 6.00579C125.91 5.91585 126 5.73598 126.181 5.64604L121.299 0.789429L116.326 5.73598C117.682 6.54541 118.405 7.35485 118.405 7.35485L118.586 7.44479Z" fill="#8FD1E7"/>
<path opacity="0.6" fill-rule="evenodd" clip-rule="evenodd" d="M118.586 7.44479C121.118 6.09573 123.559 5.73598 125.729 6.0058C125.91 5.91586 126 5.73598 126.181 5.64605L120.123 -6.49548L114.699 4.83661C116.055 5.64605 118.405 7.35485 118.405 7.35485L118.586 7.44479Z" fill="url(#paint29_linear_1412_1539)"/>
<path opacity="0.8" fill-rule="evenodd" clip-rule="evenodd" d="M121.389 10.1429V10.1429V10.1429L123.559 7.98441C122.564 8.16428 121.479 8.52403 120.395 9.15359L121.389 10.1429Z" fill="url(#paint30_linear_1412_1539)"/>
<path fill-rule="evenodd" clip-rule="evenodd" d="M123.559 7.98443L124.192 7.35487C124.734 6.81524 125.186 6.36556 125.729 6.00581C123.559 5.736 121.118 6.09575 118.586 7.4448L120.304 9.15361C121.479 8.52405 122.474 8.1643 123.559 7.98443Z" fill="url(#paint31_linear_1412_1539)"/>
<path fill-rule="evenodd" clip-rule="evenodd" d="M123.378 8.25421L124.373 7.2649C124.825 6.81522 125.367 6.36553 125.91 6.00578C123.83 5.73597 121.118 6.18566 118.767 7.44478L120.666 9.4234C121.57 8.79384 122.384 8.52403 123.378 8.25421Z" fill="#6DC8F2"/>
<path opacity="0.8" fill-rule="evenodd" clip-rule="evenodd" d="M116.416 23.5436L114.427 21.3851C108.189 14.6398 114.427 7.98443 114.427 7.98443L116.778 5.37625C120.214 1.68882 123.649 2.04857 126 3.12781L126.452 2.67813C128.079 0.879384 129.797 -0.199863 131.425 -0.829424V-0.829424C131.425 -0.829424 123.016 -9.91309 114.699 -0.829424L108.731 5.64606C108.731 5.64606 100.323 14.7297 108.731 23.7234L114.699 30.1989C114.699 30.1989 117.501 33.1669 121.479 33.9763L120.214 32.6272C117.23 29.4794 116.326 26.3316 116.416 23.5436Z" fill="url(#paint32_linear_1412_1539)"/>
</g>
<mask id="mask1_1412_1539" style="mask-type:luminance" maskUnits="userSpaceOnUse" x="119" y="14" width="13" height="14">
<path fill-rule="evenodd" clip-rule="evenodd" d="M125.548 27.0511C128.893 27.0511 131.605 24.353 131.605 21.0253C131.605 17.6977 128.893 14.9995 125.548 14.9995C122.203 14.9995 119.49 17.6977 119.49 21.0253C119.49 24.353 122.203 27.0511 125.548 27.0511" fill="white"/>
</mask>
<g mask="url(#mask1_1412_1539)">
<path opacity="0.2" fill-rule="evenodd" clip-rule="evenodd" d="M127.266 19.6763C126.723 18.5071 125.91 17.248 124.644 15.9888C124.463 16.1687 122.022 18.6869 121.479 22.1945C123.559 20.4857 125.458 19.7662 127.266 19.6763Z" fill="url(#paint33_linear_1412_1539)"/>
<path opacity="0.8" fill-rule="evenodd" clip-rule="evenodd" d="M119.762 35.2354C120.485 34.7857 121.118 34.2461 121.841 33.5266L124.644 30.7386V30.7386C121.66 27.6807 121.027 24.7128 121.479 22.1945C121.208 22.4643 120.937 22.6442 120.666 22.914L117.863 25.7021C117.863 25.7021 116.326 27.3209 115.331 29.6593C115.422 29.9291 115.512 30.2889 115.603 30.5587C116.236 31.4581 116.959 32.3574 117.863 33.2568L119.762 35.2354Z" fill="url(#paint34_linear_1412_1539)"/>
<path opacity="0.2" fill-rule="evenodd" clip-rule="evenodd" d="M120.666 22.914C120.937 22.6442 121.208 22.3744 121.479 22.1945C122.022 18.687 124.463 16.1687 124.644 15.9889V15.9889L123.649 14.9995C122.836 15.4492 121.751 15.809 120.937 16.7084L118.315 19.8562C118.315 19.8562 113.795 24.353 115.332 29.8392C116.326 27.4109 117.863 25.882 117.863 25.882L120.666 22.914Z" fill="url(#paint35_linear_1412_1539)"/>
<path opacity="0.3" fill-rule="evenodd" clip-rule="evenodd" d="M120.666 22.914C120.937 22.6442 121.208 22.3744 121.479 22.1945C122.022 18.687 124.463 16.1687 124.644 15.9889V15.9889L123.649 14.9995C122.836 15.4492 121.932 15.809 121.118 16.7084L118.315 19.8562C118.315 19.8562 113.795 24.353 115.332 29.8392C116.326 27.4109 117.863 25.882 117.863 25.882L120.666 22.914Z" fill="url(#paint36_linear_1412_1539)"/>
<path fill-rule="evenodd" clip-rule="evenodd" d="M124.734 30.7385V30.7385L127.627 33.6165C127.627 33.6165 128.441 34.426 129.797 35.2354L131.605 33.4367C131.605 33.4367 135.855 29.2096 136.036 23.4536L135.583 23.0039C135.583 23.0039 131.967 19.4064 127.356 19.7662C129.797 25.5222 124.915 30.5587 124.734 30.7385Z" fill="url(#paint37_linear_1412_1539)"/>
<path opacity="0.4" fill-rule="evenodd" clip-rule="evenodd" d="M124.734 15.9888C126 17.248 126.814 18.5071 127.356 19.6763C132.057 19.4065 135.583 22.914 135.583 22.914L136.036 23.3637C136.126 20.7555 135.312 17.7876 132.781 14.8197C131.244 14.0102 129.164 13.4706 126.904 13.8303L124.734 15.9888V15.9888Z" fill="url(#paint38_linear_1412_1539)"/>
<path opacity="0.4" fill-rule="evenodd" clip-rule="evenodd" d="M124.734 15.9888V15.9888V15.9888L126.904 13.8304C125.91 14.0102 124.825 14.37 123.74 14.9995L124.734 15.9888Z" fill="url(#paint39_linear_1412_1539)"/>
<path opacity="0.6" fill-rule="evenodd" clip-rule="evenodd" d="M124.734 15.9888V15.9888V15.9888L126.904 13.8304C125.91 14.0102 124.825 14.37 123.74 14.9995L124.734 15.9888Z" fill="url(#paint40_linear_1412_1539)"/>
</g>
<defs>
<linearGradient id="paint0_linear_1412_1539" x1="115.521" y1="18.0556" x2="122.824" y2="30.0084" gradientUnits="userSpaceOnUse">
<stop offset="0.153" stop-color="#00B4EC"/>
<stop offset="0.49" stop-color="#05395C"/>
<stop offset="1" stop-color="#E2051D"/>
</linearGradient>
<linearGradient id="paint1_linear_1412_1539" x1="98.8698" y1="15.9902" x2="119.624" y2="49.8079" gradientUnits="userSpaceOnUse">
<stop stop-color="#00B0EA"/>
<stop offset="0.1177" stop-color="#00A7E7"/>
<stop offset="0.204" stop-color="#008FC9"/>
<stop offset="0.3907" stop-color="#00527E"/>
<stop offset="0.46" stop-color="#003A60"/>
<stop offset="0.5916" stop-color="#4B2947"/>
<stop offset="0.7184" stop-color="#8C1A30"/>
<stop offset="0.8244" stop-color="#BA0F20"/>
<stop offset="0.9054" stop-color="#D70817"/>
<stop offset="0.9518" stop-color="#E20613"/>
</linearGradient>
<linearGradient id="paint2_linear_1412_1539" x1="75.1807" y1="12.3815" x2="83.1647" y2="50.0975" gradientUnits="userSpaceOnUse">
<stop offset="0.0209" stop-color="#9D0C26" stop-opacity="0.01"/>
<stop offset="0.1897" stop-color="#A81428" stop-opacity="0.01"/>
<stop offset="0.4889" stop-color="#C72A2D" stop-opacity="0.01"/>
<stop offset="0.7567" stop-color="#E74133" stop-opacity="0.01"/>
<stop offset="0.8272" stop-color="#E73E31" stop-opacity="0.2899"/>
<stop offset="0.8863" stop-color="#E6332C" stop-opacity="0.5327"/>
<stop offset="0.9412" stop-color="#E42222" stop-opacity="0.7584"/>
<stop offset="0.9934" stop-color="#E20A15" stop-opacity="0.9728"/>
<stop offset="1" stop-color="#E20613"/>
</linearGradient>
<linearGradient id="paint3_linear_1412_1539" x1="126.367" y1="30.9404" x2="138.03" y2="30.9404" gradientUnits="userSpaceOnUse">
<stop stop-color="white"/>
<stop offset="0.5534" stop-color="#FFF6F4" stop-opacity="0.01"/>
<stop offset="0.8564" stop-color="#FFF8F6" stop-opacity="0.6784"/>
<stop offset="0.9811" stop-color="#FFFDFD" stop-opacity="0.9576"/>
<stop offset="1" stop-color="white"/>
</linearGradient>
<linearGradient id="paint4_linear_1412_1539" x1="105.105" y1="11.7618" x2="125.799" y2="45.6165" gradientUnits="userSpaceOnUse">
<stop stop-color="white"/>
<stop offset="0.5534" stop-color="#FFF6F4" stop-opacity="0.01"/>
<stop offset="0.8564" stop-color="#FFF8F6" stop-opacity="0.6784"/>
<stop offset="0.9811" stop-color="#FFFDFD" stop-opacity="0.9576"/>
<stop offset="1" stop-color="white"/>
</linearGradient>
<linearGradient id="paint5_linear_1412_1539" x1="73.7038" y1="16.2592" x2="79.3746" y2="52.3993" gradientUnits="userSpaceOnUse">
<stop stop-color="#F7C1B2"/>
<stop offset="0.5588" stop-color="#F29A9A" stop-opacity="0.01"/>
<stop offset="0.7331" stop-color="#F29A98" stop-opacity="0.3951"/>
<stop offset="0.8049" stop-color="#F29991" stop-opacity="0.5579"/>
<stop offset="0.8579" stop-color="#F29985" stop-opacity="0.6779"/>
<stop offset="0.9016" stop-color="#F29773" stop-opacity="0.777"/>
<stop offset="0.9396" stop-color="#F2965C" stop-opacity="0.863"/>
<stop offset="0.973" stop-color="#F29441" stop-opacity="0.9388"/>
<stop offset="1" stop-color="#F29224"/>
</linearGradient>
<linearGradient id="paint6_linear_1412_1539" x1="108.844" y1="7.03527" x2="126.073" y2="42.6274" gradientUnits="userSpaceOnUse">
<stop stop-color="#4EBFE0"/>
<stop offset="0.095" stop-color="#50BCDC" stop-opacity="0.8108"/>
<stop offset="0.1792" stop-color="#58B1D2" stop-opacity="0.643"/>
<stop offset="0.2595" stop-color="#649FC0" stop-opacity="0.4832"/>
<stop offset="0.3372" stop-color="#7585A6" stop-opacity="0.3284"/>
<stop offset="0.4131" stop-color="#8A6585" stop-opacity="0.1771"/>
<stop offset="0.4867" stop-color="#A53D5D" stop-opacity="0.0305"/>
<stop offset="0.502" stop-color="#AB3454" stop-opacity="0.01"/>
<stop offset="0.9976" stop-color="#DE091E" stop-opacity="0.01"/>
</linearGradient>
<linearGradient id="paint7_linear_1412_1539" x1="93.0348" y1="29.2508" x2="122.517" y2="48.5865" gradientUnits="userSpaceOnUse">
<stop stop-color="#1A77A4"/>
<stop offset="0.5562" stop-color="#ADDCED" stop-opacity="0.01"/>
<stop offset="0.7203" stop-color="#ABDAEB" stop-opacity="0.3697"/>
<stop offset="0.7879" stop-color="#A4D3E5" stop-opacity="0.522"/>
<stop offset="0.8377" stop-color="#98C8DB" stop-opacity="0.6343"/>
<stop offset="0.8788" stop-color="#86B7CB" stop-opacity="0.727"/>
<stop offset="0.9146" stop-color="#6FA1B8" stop-opacity="0.8075"/>
<stop offset="0.9466" stop-color="#5386A0" stop-opacity="0.8796"/>
<stop offset="0.9751" stop-color="#326783" stop-opacity="0.944"/>
<stop offset="1" stop-color="#0F4565"/>
</linearGradient>
<linearGradient id="paint8_linear_1412_1539" x1="117.186" y1="21.7204" x2="147.451" y2="38.6929" gradientUnits="userSpaceOnUse">
<stop stop-color="white"/>
<stop offset="0.5534" stop-color="#FFF6F4" stop-opacity="0.01"/>
<stop offset="0.8564" stop-color="#FFF8F6" stop-opacity="0.6784"/>
<stop offset="0.9811" stop-color="#FFFDFD" stop-opacity="0.9576"/>
<stop offset="1" stop-color="white"/>
</linearGradient>
<linearGradient id="paint9_linear_1412_1539" x1="102.025" y1="20.9068" x2="124.959" y2="53.1858" gradientUnits="userSpaceOnUse">
<stop stop-color="white"/>
<stop offset="0.5534" stop-color="#FFF6F4" stop-opacity="0.01"/>
<stop offset="0.8564" stop-color="#FFF8F6" stop-opacity="0.6784"/>
<stop offset="0.9811" stop-color="#FFFDFD" stop-opacity="0.9576"/>
<stop offset="1" stop-color="white"/>
</linearGradient>
<linearGradient id="paint10_linear_1412_1539" x1="47.7365" y1="17.3512" x2="49.2744" y2="51.9671" gradientUnits="userSpaceOnUse">
<stop stop-color="#E73374"/>
<stop offset="0.5526" stop-color="#D74B3F" stop-opacity="0.2"/>
<stop offset="0.7258" stop-color="#D54A3E" stop-opacity="0.5097"/>
<stop offset="0.7972" stop-color="#CE463B" stop-opacity="0.6373"/>
<stop offset="0.8498" stop-color="#C24036" stop-opacity="0.7314"/>
<stop offset="0.8932" stop-color="#B0382F" stop-opacity="0.8091"/>
<stop offset="0.9309" stop-color="#992C26" stop-opacity="0.8765"/>
<stop offset="0.9647" stop-color="#7D1E1B" stop-opacity="0.9369"/>
<stop offset="0.9949" stop-color="#5C0E0E" stop-opacity="0.9908"/>
<stop offset="1" stop-color="#560B0B"/>
</linearGradient>
<linearGradient id="paint11_linear_1412_1539" x1="96.8299" y1="37.1523" x2="125.798" y2="50.3749" gradientUnits="userSpaceOnUse">
<stop stop-color="#ADDCED"/>
<stop offset="0.5534" stop-color="#ADDCED" stop-opacity="0.01"/>
<stop offset="0.9349" stop-color="#ADDCED" stop-opacity="0.8543"/>
<stop offset="1" stop-color="#ADDCED"/>
</linearGradient>
<linearGradient id="paint12_linear_1412_1539" x1="114.439" y1="16.3303" x2="141.62" y2="45.1872" gradientUnits="userSpaceOnUse">
<stop stop-color="#55B7D7"/>
<stop offset="0.0694" stop-color="#59A7C7" stop-opacity="0.9065"/>
<stop offset="0.2831" stop-color="#637B9A" stop-opacity="0.6186"/>
<stop offset="0.4741" stop-color="#6A5B7A" stop-opacity="0.3613"/>
<stop offset="0.6336" stop-color="#6E4766" stop-opacity="0.1463"/>
<stop offset="0.7422" stop-color="#70405F" stop-opacity="0.01"/>
<stop offset="0.8042" stop-color="#774266" stop-opacity="0.01"/>
<stop offset="0.8962" stop-color="#89487A" stop-opacity="0.01"/>
<stop offset="1" stop-color="#A55299" stop-opacity="0.01"/>
</linearGradient>
<linearGradient id="paint13_linear_1412_1539" x1="99.9585" y1="29.6867" x2="129.858" y2="42.7737" gradientUnits="userSpaceOnUse">
<stop stop-color="white"/>
<stop offset="0.5534" stop-color="#FFF6F4" stop-opacity="0.01"/>
<stop offset="0.8564" stop-color="#FFF8F6" stop-opacity="0.6784"/>
<stop offset="0.9811" stop-color="#FFFDFD" stop-opacity="0.9576"/>
<stop offset="1" stop-color="white"/>
</linearGradient>
<linearGradient id="paint14_linear_1412_1539" x1="76.4708" y1="12.5409" x2="81.4644" y2="48.5008" gradientUnits="userSpaceOnUse">
<stop stop-color="white"/>
<stop offset="0.5534" stop-color="#FFF6F4" stop-opacity="0.01"/>
<stop offset="0.8564" stop-color="#FFF8F6" stop-opacity="0.6784"/>
<stop offset="0.9811" stop-color="#FFFDFD" stop-opacity="0.9576"/>
<stop offset="1" stop-color="white"/>
</linearGradient>
<linearGradient id="paint15_linear_1412_1539" x1="82.1751" y1="2.89406" x2="85.3866" y2="38.3177" gradientUnits="userSpaceOnUse">
<stop offset="0.0028" stop-color="#74C6E9"/>
<stop offset="0.5534" stop-color="#51B8E9" stop-opacity="0.01"/>
<stop offset="0.8893" stop-color="#52B8E7" stop-opacity="0.752"/>
<stop offset="1" stop-color="#53B8E2"/>
</linearGradient>
<linearGradient id="paint16_linear_1412_1539" x1="109.125" y1="15.8154" x2="118.609" y2="15.8154" gradientUnits="userSpaceOnUse">
<stop stop-color="#5BC4F1"/>
<stop offset="0.4635" stop-color="#5DC5F1" stop-opacity="0.7682"/>
<stop offset="0.6338" stop-color="#64C7F2" stop-opacity="0.6831"/>
<stop offset="0.7557" stop-color="#70CAF3" stop-opacity="0.6222"/>
<stop offset="0.8545" stop-color="#81D0F4" stop-opacity="0.5727"/>
<stop offset="0.9383" stop-color="#96D6F6" stop-opacity="0.5308"/>
<stop offset="1" stop-color="#ACDDF8" stop-opacity="0.5"/>
</linearGradient>
<linearGradient id="paint17_linear_1412_1539" x1="85.9831" y1="12.1005" x2="94.871" y2="49.8888" gradientUnits="userSpaceOnUse">
<stop stop-color="#E73374"/>
<stop offset="0.5694" stop-color="#F5B0A5" stop-opacity="0.02"/>
<stop offset="0.7288" stop-color="#F4AEA3" stop-opacity="0.3828"/>
<stop offset="0.7945" stop-color="#F2A79D" stop-opacity="0.5323"/>
<stop offset="0.8429" stop-color="#EE9B91" stop-opacity="0.6425"/>
<stop offset="0.8829" stop-color="#E98981" stop-opacity="0.7335"/>
<stop offset="0.9176" stop-color="#E2726C" stop-opacity="0.8125"/>
<stop offset="0.9487" stop-color="#D95652" stop-opacity="0.8833"/>
<stop offset="0.9764" stop-color="#CF3535" stop-opacity="0.9464"/>
<stop offset="1" stop-color="#C41315"/>
</linearGradient>
<linearGradient id="paint18_linear_1412_1539" x1="127.348" y1="39.8164" x2="151.131" y2="42.0263" gradientUnits="userSpaceOnUse">
<stop stop-color="#E73374"/>
<stop offset="0.5526" stop-color="#9A345E" stop-opacity="0.01"/>
<stop offset="0.7941" stop-color="#9B335C" stop-opacity="0.5398"/>
<stop offset="0.8936" stop-color="#A02F55" stop-opacity="0.7622"/>
<stop offset="0.9667" stop-color="#A82749" stop-opacity="0.9255"/>
<stop offset="1" stop-color="#AD2240"/>
</linearGradient>
<linearGradient id="paint19_linear_1412_1539" x1="102.606" y1="29.9176" x2="134.475" y2="49.7854" gradientUnits="userSpaceOnUse">
<stop stop-color="white"/>
<stop offset="0.5534" stop-color="#FFF6F4" stop-opacity="0.01"/>
<stop offset="0.8564" stop-color="#FFF8F6" stop-opacity="0.6784"/>
<stop offset="0.9811" stop-color="#FFFDFD" stop-opacity="0.9576"/>
<stop offset="1" stop-color="white"/>
</linearGradient>
<linearGradient id="paint20_linear_1412_1539" x1="99.9498" y1="25.6172" x2="131.819" y2="45.485" gradientUnits="userSpaceOnUse">
<stop stop-color="#ADDCED"/>
<stop offset="0.5534" stop-color="#ADDCED" stop-opacity="0.01"/>
<stop offset="0.9349" stop-color="#ADDCED" stop-opacity="0.8543"/>
<stop offset="1" stop-color="#ADDCED"/>
</linearGradient>
<linearGradient id="paint21_linear_1412_1539" x1="100.86" y1="25.395" x2="131.04" y2="43.185" gradientUnits="userSpaceOnUse">
<stop stop-color="#ADDCED"/>
<stop offset="0.5534" stop-color="#ADDCED" stop-opacity="0.01"/>
<stop offset="0.9349" stop-color="#ADDCED" stop-opacity="0.8543"/>
<stop offset="1" stop-color="#ADDCED"/>
</linearGradient>
<linearGradient id="paint22_linear_1412_1539" x1="102.65" y1="29.6117" x2="133.651" y2="49.0844" gradientUnits="userSpaceOnUse">
<stop stop-color="#ADDCED"/>
<stop offset="0.5534" stop-color="#ADDCED" stop-opacity="0.01"/>
<stop offset="0.9349" stop-color="#ADDCED" stop-opacity="0.8543"/>
<stop offset="1" stop-color="#ADDCED"/>
</linearGradient>
<linearGradient id="paint23_linear_1412_1539" x1="103.599" y1="29.5793" x2="133.739" y2="47.0697" gradientUnits="userSpaceOnUse">
<stop stop-color="#ACDDF8"/>
<stop offset="0.5534" stop-color="#ACDDF8" stop-opacity="0.01"/>
<stop offset="0.9349" stop-color="#ACDDF8" stop-opacity="0.8543"/>
<stop offset="1" stop-color="#ACDDF8"/>
</linearGradient>
<linearGradient id="paint24_linear_1412_1539" x1="98.8713" y1="9.87259" x2="127.535" y2="34.5598" gradientUnits="userSpaceOnUse">
<stop stop-color="white"/>
<stop offset="0.5534" stop-color="#FFF6F4" stop-opacity="0.01"/>
<stop offset="0.8564" stop-color="#FFF8F6" stop-opacity="0.6784"/>
<stop offset="0.9811" stop-color="#FFFDFD" stop-opacity="0.9576"/>
<stop offset="1" stop-color="white"/>
</linearGradient>
<linearGradient id="paint25_linear_1412_1539" x1="78.8542" y1="12.1512" x2="95.4081" y2="48.4244" gradientUnits="userSpaceOnUse">
<stop stop-color="#013854"/>
<stop offset="0.4853" stop-color="#8A345F" stop-opacity="0.01"/>
<stop offset="0.7022" stop-color="#8C335E" stop-opacity="0.1264"/>
<stop offset="0.7915" stop-color="#932F59" stop-opacity="0.1785"/>
<stop offset="0.8574" stop-color="#9F2950" stop-opacity="0.2169"/>
<stop offset="0.9117" stop-color="#B11F44" stop-opacity="0.2485"/>
<stop offset="0.9584" stop-color="#C71434" stop-opacity="0.2757"/>
<stop offset="1" stop-color="#E30521" stop-opacity="0.3"/>
</linearGradient>
<linearGradient id="paint26_linear_1412_1539" x1="91.2706" y1="2.64559" x2="104.957" y2="39.0941" gradientUnits="userSpaceOnUse">
<stop stop-color="#ADDCED"/>
<stop offset="0.5534" stop-color="#ADDCED" stop-opacity="0.01"/>
<stop offset="0.9349" stop-color="#ADDCED" stop-opacity="0.8543"/>
<stop offset="1" stop-color="#ADDCED"/>
</linearGradient>
<linearGradient id="paint27_linear_1412_1539" x1="79.6142" y1="23.1446" x2="94.4336" y2="59.7748" gradientUnits="userSpaceOnUse">
<stop stop-color="#ADDCED"/>
<stop offset="0.5508" stop-color="#ADDCED" stop-opacity="0.01"/>
<stop offset="0.9345" stop-color="#ADDCED" stop-opacity="0.8543"/>
<stop offset="1" stop-color="#ADDCED"/>
</linearGradient>
<linearGradient id="paint28_linear_1412_1539" x1="74.0209" y1="14.0823" x2="88.8066" y2="50.6289" gradientUnits="userSpaceOnUse">
<stop offset="0.0046" stop-color="#013854"/>
<stop offset="0.4907" stop-color="#8A345F" stop-opacity="0.01"/>
<stop offset="0.7053" stop-color="#8C335E" stop-opacity="0.2949"/>
<stop offset="0.7937" stop-color="#932F59" stop-opacity="0.4165"/>
<stop offset="0.8589" stop-color="#9F2950" stop-opacity="0.506"/>
<stop offset="0.9126" stop-color="#B11F44" stop-opacity="0.5799"/>
<stop offset="0.9588" stop-color="#C71434" stop-opacity="0.6434"/>
<stop offset="1" stop-color="#E30521" stop-opacity="0.7"/>
</linearGradient>
<linearGradient id="paint29_linear_1412_1539" x1="77.2104" y1="5.06545" x2="130.205" y2="63.2705" gradientUnits="userSpaceOnUse">
<stop stop-color="#D7EDFC"/>
<stop offset="0.5534" stop-color="#ACDDF8" stop-opacity="0.01"/>
<stop offset="0.7634" stop-color="#AEDEF8" stop-opacity="0.4702"/>
<stop offset="0.8499" stop-color="#B5E0F8" stop-opacity="0.6639"/>
<stop offset="0.9137" stop-color="#C1E5F8" stop-opacity="0.8067"/>
<stop offset="0.9659" stop-color="#D3ECF8" stop-opacity="0.9237"/>
<stop offset="1" stop-color="#E3F2F8"/>
</linearGradient>
<linearGradient id="paint30_linear_1412_1539" x1="96.5957" y1="14.6507" x2="107.149" y2="51.3685" gradientUnits="userSpaceOnUse">
<stop stop-color="white"/>
<stop offset="0.5534" stop-color="#FFF6F4" stop-opacity="0.01"/>
<stop offset="0.8564" stop-color="#FFF8F6" stop-opacity="0.6784"/>
<stop offset="0.9811" stop-color="#FFFDFD" stop-opacity="0.9576"/>
<stop offset="1" stop-color="white"/>
</linearGradient>
<linearGradient id="paint31_linear_1412_1539" x1="82.4329" y1="7.53176" x2="86.9616" y2="43.3532" gradientUnits="userSpaceOnUse">
<stop stop-color="#ADDCED"/>
<stop offset="0.5534" stop-color="#ADDCED" stop-opacity="0.01"/>
<stop offset="0.9349" stop-color="#ADDCED" stop-opacity="0.8543"/>
<stop offset="1" stop-color="#ADDCED"/>
</linearGradient>
<linearGradient id="paint32_linear_1412_1539" x1="106.71" y1="12.9661" x2="126.783" y2="28.9787" gradientUnits="userSpaceOnUse">
<stop stop-color="#A0D9F7"/>
<stop offset="0.5061" stop-color="#BCE3F9" stop-opacity="0.01"/>
</linearGradient>
<linearGradient id="paint33_linear_1412_1539" x1="105.359" y1="26.7333" x2="128.292" y2="59.0123" gradientUnits="userSpaceOnUse">
<stop stop-color="#ADDCED"/>
<stop offset="0.5534" stop-color="#ADDCED" stop-opacity="0.01"/>
<stop offset="0.9349" stop-color="#ADDCED" stop-opacity="0.8543"/>
<stop offset="1" stop-color="#ADDCED"/>
</linearGradient>
<linearGradient id="paint34_linear_1412_1539" x1="99.8199" y1="30.1818" x2="128.794" y2="54.1006" gradientUnits="userSpaceOnUse">
<stop stop-color="white"/>
<stop offset="0.5534" stop-color="#FFF6F4" stop-opacity="0.01"/>
<stop offset="0.8564" stop-color="#FFF8F6" stop-opacity="0.6784"/>
<stop offset="0.9811" stop-color="#FFFDFD" stop-opacity="0.9576"/>
<stop offset="1" stop-color="white"/>
</linearGradient>
<linearGradient id="paint35_linear_1412_1539" x1="105.809" y1="34.246" x2="136.187" y2="54.961" gradientUnits="userSpaceOnUse">
<stop stop-color="#ADDCED"/>
<stop offset="0.5534" stop-color="#ADDCED" stop-opacity="0.01"/>
<stop offset="0.9349" stop-color="#ADDCED" stop-opacity="0.8543"/>
<stop offset="1" stop-color="#ADDCED"/>
</linearGradient>
<linearGradient id="paint36_linear_1412_1539" x1="103.372" y1="30.0896" x2="133.563" y2="50.6779" gradientUnits="userSpaceOnUse">
<stop stop-color="#ADDCED"/>
<stop offset="0.5534" stop-color="#ADDCED" stop-opacity="0.01"/>
<stop offset="0.9349" stop-color="#ADDCED" stop-opacity="0.8543"/>
<stop offset="1" stop-color="#ADDCED"/>
</linearGradient>
<linearGradient id="paint37_linear_1412_1539" x1="102.204" y1="15.6991" x2="130.869" y2="40.3864" gradientUnits="userSpaceOnUse">
<stop stop-color="#E73374"/>
<stop offset="0.5526" stop-color="#824068" stop-opacity="0.01"/>
<stop offset="0.7751" stop-color="#843F66" stop-opacity="0.4973"/>
<stop offset="0.8667" stop-color="#8B3A60" stop-opacity="0.7021"/>
<stop offset="0.9341" stop-color="#973154" stop-opacity="0.8527"/>
<stop offset="0.9895" stop-color="#A92544" stop-opacity="0.9766"/>
<stop offset="1" stop-color="#AD2240"/>
</linearGradient>
<linearGradient id="paint38_linear_1412_1539" x1="107.019" y1="20.9572" x2="123.149" y2="56.8377" gradientUnits="userSpaceOnUse">
<stop stop-color="#55B7D7"/>
<stop offset="0.5534" stop-color="#55B7D7" stop-opacity="0.01"/>
<stop offset="0.9349" stop-color="#55B7D7" stop-opacity="0.8543"/>
<stop offset="1" stop-color="#55B7D7"/>
</linearGradient>
<linearGradient id="paint39_linear_1412_1539" x1="99.929" y1="20.4773" x2="110.482" y2="57.1951" gradientUnits="userSpaceOnUse">
<stop stop-color="#ADDCED"/>
<stop offset="0.5534" stop-color="#ADDCED" stop-opacity="0.01"/>
<stop offset="0.9349" stop-color="#ADDCED" stop-opacity="0.8543"/>
<stop offset="1" stop-color="#ADDCED"/>
</linearGradient>
<linearGradient id="paint40_linear_1412_1539" x1="91.7817" y1="7.28753" x2="102.335" y2="44.0053" gradientUnits="userSpaceOnUse">
<stop stop-color="#55B7D7"/>
<stop offset="0.5534" stop-color="#55B7D7" stop-opacity="0.01"/>
<stop offset="0.9349" stop-color="#55B7D7" stop-opacity="0.8543"/>
<stop offset="1" stop-color="#55B7D7"/>
</linearGradient>
</defs>
</svg>
