<svg width="354" height="51" viewBox="0 0 354 51" fill="none" xmlns="http://www.w3.org/2000/svg">
<path d="M1.41581 29.5C1.08418 29.5 0.982135 29.3852 0.982135 29.0663V20.8776C0.982135 20.5587 1.08418 20.4439 1.41581 20.4439H1.97703C2.34692 20.4439 2.44896 20.5077 2.58927 20.7756L5.25506 25.5204L7.89535 20.7883C8.04841 20.5077 8.13769 20.4439 8.48208 20.4439H9.10707C9.4387 20.4439 9.5535 20.5587 9.5535 20.8776V29.0663C9.5535 29.3852 9.4387 29.5 9.10707 29.5H8.45657C8.13769 29.5 8.0229 29.3852 8.0229 29.0663V25.1761C8.0229 24.449 8.12494 23.6199 8.32902 22.6378H8.25249C7.92086 23.5944 7.60198 24.2322 7.19382 24.9592L5.94383 27.1786C5.81628 27.4082 5.71424 27.4847 5.44639 27.4847H5.03823C4.78313 27.4847 4.69384 27.4337 4.54078 27.1786L3.26528 24.9592C2.83161 24.2194 2.60202 23.6582 2.28315 22.6251H2.19386C2.39794 23.6327 2.47447 24.3852 2.47447 25.1888V29.0663C2.47447 29.3852 2.35968 29.5 2.0408 29.5H1.41581ZM14.0731 32.5102C12.6955 32.5102 11.8792 32.0255 11.4328 31.2729C11.2414 30.9923 11.2925 30.7883 11.5858 30.6352L12.0705 30.3673C12.3766 30.2143 12.5169 30.2525 12.7083 30.5204C12.9761 30.9413 13.3588 31.1837 14.0475 31.1837C14.9404 31.1837 15.3996 30.699 15.3996 29.7934V29.1939C15.0169 29.2832 14.5195 29.3724 13.8817 29.3724C12.0578 29.3724 11.2287 28.4158 11.2287 26.8087V23.2756C11.2287 22.9822 11.318 22.8929 11.6113 22.8929H12.3129C12.6062 22.8929 12.7083 22.9822 12.7083 23.2756V26.7577C12.7083 27.6123 13.1547 28.0204 14.0986 28.0204C14.6215 28.0204 15.0552 27.9311 15.3996 27.8418V23.2756C15.3996 22.9822 15.5016 22.8929 15.795 22.8929H16.4837C16.7899 22.8929 16.8792 22.9822 16.8792 23.2756V29.7168C16.8792 31.3877 16.0756 32.5102 14.0731 32.5102ZM20.7351 29.5C20.4418 29.5 20.2632 29.449 20.1994 29.1556L18.0949 20.8649C18.0183 20.5715 18.0566 20.4439 18.3755 20.4439H19.2683C19.6255 20.4439 19.7785 20.5077 19.8423 20.8266L20.8882 25.5842C20.9775 26.0306 21.0795 27.0765 21.0923 27.2934H21.1688C21.1816 27.0255 21.2964 26.0817 21.4239 25.5842L22.7122 20.8649C22.8015 20.546 22.9673 20.4822 23.2989 20.4822H23.9749C24.3065 20.4822 24.4851 20.546 24.5616 20.8649L25.8116 25.5842C25.9647 26.1327 26.0667 27.051 26.0922 27.2934H26.1688C26.1815 27.0893 26.2836 26.0944 26.3856 25.597L27.406 20.8266C27.4698 20.5077 27.6228 20.4439 27.98 20.4439H28.758C29.0769 20.4439 29.1152 20.5715 29.0387 20.8649L26.9341 29.1429C26.8575 29.449 26.6917 29.5 26.3984 29.5H25.6968C25.4035 29.5 25.2249 29.4362 25.1611 29.1556L23.8346 24.0919C23.7326 23.6837 23.6433 23.1353 23.6178 22.6506H23.5412C23.5157 23.1353 23.4265 23.6455 23.3117 24.0791L21.9596 29.1429C21.8831 29.449 21.73 29.5 21.4239 29.5H20.7351ZM30.8245 29.5C30.4929 29.5 30.3909 29.3852 30.3909 29.0663V20.8776C30.3909 20.5587 30.4929 20.4439 30.8245 20.4439H35.901C36.2199 20.4439 36.3347 20.5587 36.3347 20.8776V21.5026C36.3347 21.8215 36.2199 21.9363 35.901 21.9363H31.9853V24.1684H35.2888C35.6204 24.1684 35.7225 24.2832 35.7225 24.6021V25.2271C35.7225 25.5459 35.6204 25.6607 35.2888 25.6607H31.9853V28.0077H36.0413C36.3602 28.0077 36.475 28.1225 36.475 28.4413V29.0663C36.475 29.3852 36.3602 29.5 36.0413 29.5H30.8245ZM38.3978 29.5C38.0662 29.5 37.9642 29.3852 37.9642 29.0663V20.8776C37.9642 20.5587 38.0662 20.4439 38.3978 20.4439H41.9437C43.5764 20.4439 44.5457 21.2985 44.5457 22.8291C44.5457 23.7475 44.2524 24.3597 43.5891 24.7551V24.8062C44.4054 25.0995 44.8901 25.8648 44.8901 27.0128C44.8901 28.6199 43.6784 29.5 42.0203 29.5H38.3978ZM39.5585 24.1812H41.7396C42.5049 24.1812 42.9131 23.824 42.9131 23.0587C42.9131 22.3062 42.5049 21.9363 41.7396 21.9363H39.5585V24.1812ZM39.5585 28.0077H41.9692C42.7728 28.0077 43.1937 27.6123 43.1937 26.8342C43.1937 26.0561 42.7728 25.6352 41.9692 25.6352H39.5585V28.0077ZM49.559 29.6913C47.5819 29.6913 46.5743 28.9388 46.0513 27.5612C45.9493 27.2424 46.0131 27.1021 46.3319 27L47.0207 26.7449C47.3268 26.6429 47.4416 26.7067 47.5692 27.0128C47.9008 27.7653 48.5641 28.199 49.559 28.199C50.8727 28.199 51.587 27.7908 51.587 26.8725C51.587 25.9924 50.6559 25.801 49.5717 25.6863C48.0156 25.5204 46.1151 25.2781 46.1151 23.046C46.1151 21.4261 47.3013 20.2526 49.61 20.2526C51.4212 20.2526 52.3523 20.9159 52.9518 22.1786C53.1048 22.472 53.0283 22.6251 52.7222 22.7654L52.0079 23.0715C51.7273 23.199 51.6125 23.148 51.4595 22.8546C51.1151 22.1786 50.6176 21.7832 49.61 21.7832C48.36 21.7832 47.7477 22.1659 47.7477 22.9567C47.7477 23.875 48.7937 24.0409 49.9544 24.1684C51.4595 24.3342 53.1941 24.7041 53.1941 26.8342C53.1941 28.5306 51.9059 29.6913 49.559 29.6913ZM55.1512 29.5C54.8196 29.5 54.7176 29.3852 54.7176 29.0663V20.8776C54.7176 20.5587 54.8196 20.4439 55.1512 20.4439H55.8783C56.2099 20.4439 56.3119 20.5587 56.3119 20.8776V29.0663C56.3119 29.3852 56.2099 29.5 55.8783 29.5H55.1512ZM60.6524 29.5C60.3335 29.5 60.2187 29.3852 60.2187 29.0663V21.9363H57.9994C57.6805 21.9363 57.5657 21.8215 57.5657 21.5026V20.8776C57.5657 20.5587 57.6805 20.4439 57.9994 20.4439H64.0325C64.3641 20.4439 64.4662 20.5587 64.4662 20.8776V21.5026C64.4662 21.8215 64.3641 21.9363 64.0325 21.9363H61.8131V29.0663C61.8131 29.3852 61.7111 29.5 61.3795 29.5H60.6524ZM66.1499 29.5C65.8183 29.5 65.7163 29.3852 65.7163 29.0663V20.8776C65.7163 20.5587 65.8183 20.4439 66.1499 20.4439H71.2264C71.5453 20.4439 71.6601 20.5587 71.6601 20.8776V21.5026C71.6601 21.8215 71.5453 21.9363 71.2264 21.9363H67.3106V24.1684H70.6142C70.9458 24.1684 71.0478 24.2832 71.0478 24.6021V25.2271C71.0478 25.5459 70.9458 25.6607 70.6142 25.6607H67.3106V28.0077H71.3667C71.6856 28.0077 71.8004 28.1225 71.8004 28.4413V29.0663C71.8004 29.3852 71.6856 29.5 71.3667 29.5H66.1499ZM76.5471 26.7959C76.2155 26.7959 76.1135 26.6811 76.1135 26.3495V25.801C76.1135 25.4694 76.2155 25.3674 76.5471 25.3674H81.4451C81.7639 25.3674 81.8787 25.4694 81.8787 25.801V26.3495C81.8787 26.6811 81.7639 26.7959 81.4451 26.7959H76.5471ZM89.078 29.6913C87.1903 29.6913 86.3102 28.7475 86.3102 27.1148V25.3674C86.3102 23.6455 87.2158 22.7016 88.976 22.7016C89.6137 22.7016 90.1495 22.8036 90.4938 22.8674V20.4567C90.4938 20.1633 90.5959 20.0613 90.8892 20.0613H91.578C91.8714 20.0613 91.9734 20.1633 91.9734 20.4567V28.5816C91.9734 29.0026 91.8841 29.1173 91.476 29.2832C90.9658 29.4745 90.2387 29.6913 89.078 29.6913ZM89.2183 28.3393C89.6775 28.3393 90.0729 28.2883 90.3918 28.199C90.4811 28.1607 90.4938 28.1352 90.4938 28.0587V24.2194C90.2005 24.1557 89.7668 24.0536 89.2694 24.0536C88.2617 24.0536 87.7898 24.5 87.7898 25.4056V27.0638C87.7898 27.8929 88.3 28.3393 89.2183 28.3393ZM96.3058 29.6913C94.214 29.6913 93.3722 28.5306 93.3722 26.9618V25.4567C93.3722 23.6837 94.4053 22.7016 96.3313 22.7016C98.3594 22.7016 99.2905 23.875 99.2905 25.3419V26.1199C99.2905 26.4516 99.1502 26.6684 98.7165 26.6684H94.8518V27.1403C94.8518 27.9694 95.3747 28.4158 96.3186 28.4158C97.0584 28.4158 97.5431 28.1607 97.8237 27.7398C98.015 27.4592 98.1553 27.4209 98.4614 27.5867L98.9079 27.8291C99.2012 27.9694 99.2395 28.1862 99.0609 28.4668C98.6017 29.2194 97.7599 29.6913 96.3058 29.6913ZM94.8518 25.5332H97.8109V25.2526C97.8109 24.4235 97.3007 23.9516 96.3313 23.9516C95.3747 23.9516 94.8518 24.4235 94.8518 25.2526V25.5332Z" fill="#003A5C"/>
<path d="M160.055 48C159.865 48 159.798 47.9335 159.798 47.753V41.502C159.798 41.3215 159.865 41.255 160.055 41.255H160.473C160.653 41.255 160.72 41.3215 160.72 41.502V47.145H163.712C163.902 47.145 163.959 47.2115 163.959 47.4015V47.753C163.959 47.9335 163.902 48 163.712 48H160.055ZM166.696 48.1425C165.214 48.1425 164.578 47.3255 164.578 46.1665V44.9885C164.578 43.706 165.328 42.9555 166.725 42.9555C168.188 42.9555 168.872 43.801 168.872 44.922V45.473C168.872 45.6725 168.786 45.8055 168.53 45.8055H165.423V46.2615C165.423 46.9835 165.87 47.411 166.696 47.411C167.38 47.411 167.789 47.145 168.026 46.746C168.14 46.594 168.226 46.5655 168.397 46.6605L168.653 46.7935C168.815 46.879 168.843 47.0025 168.739 47.164C168.397 47.7435 167.789 48.1425 166.696 48.1425ZM165.423 45.15H168.026V44.8745C168.026 44.124 167.589 43.6775 166.725 43.6775C165.87 43.6775 165.423 44.124 165.423 44.8745V45.15ZM174.132 48.1425C173.059 48.1425 172.365 47.753 172.061 46.974C172.004 46.822 172.042 46.727 172.204 46.67L172.536 46.556C172.679 46.5085 172.755 46.5275 172.831 46.6985C173.021 47.202 173.448 47.392 174.113 47.392C174.921 47.392 175.31 47.1355 175.31 46.6605C175.31 46.0905 174.835 45.986 174.037 45.91C173.087 45.815 172.118 45.6535 172.118 44.428C172.118 43.5445 172.755 42.9555 174.028 42.9555C175.12 42.9555 175.719 43.364 176.013 43.9815C176.099 44.1525 176.051 44.2475 175.89 44.314L175.567 44.447C175.405 44.5135 175.358 44.4945 175.253 44.3425C175.082 43.972 174.778 43.7155 174.047 43.7155C173.306 43.7155 172.954 43.953 172.954 44.409C172.954 45.017 173.458 45.093 174.246 45.169C175.329 45.264 176.137 45.5015 176.137 46.6225C176.137 47.525 175.462 48.1425 174.132 48.1425ZM179.087 48.1425C177.766 48.1425 177.158 47.4395 177.158 46.2615V43.326C177.158 43.155 177.215 43.098 177.386 43.098H177.785C177.956 43.098 178.004 43.155 178.004 43.326V46.233C178.004 46.9835 178.384 47.3635 179.21 47.3635C179.666 47.3635 180.008 47.297 180.284 47.202C180.398 47.1545 180.417 47.088 180.417 46.9835V43.326C180.417 43.155 180.474 43.098 180.645 43.098H181.044C181.205 43.098 181.262 43.155 181.262 43.326V47.2875C181.262 47.582 181.196 47.696 180.901 47.8195C180.531 47.962 179.97 48.1425 179.087 48.1425ZM184.504 48.1425C183.108 48.1425 182.443 47.411 182.443 46.233V44.865C182.443 43.687 183.127 42.9555 184.561 42.9555C185.711 42.9555 186.328 43.478 186.566 44.2285C186.623 44.409 186.575 44.4945 186.414 44.5515L186.091 44.656C185.91 44.7225 185.834 44.675 185.768 44.504C185.587 43.9815 185.236 43.706 184.533 43.706C183.697 43.706 183.288 44.124 183.288 44.827V46.2615C183.288 46.974 183.716 47.392 184.533 47.392C185.217 47.392 185.606 47.107 185.777 46.5655C185.844 46.385 185.92 46.3565 186.1 46.4135L186.433 46.5085C186.594 46.575 186.661 46.651 186.585 46.8315C186.29 47.677 185.644 48.1425 184.504 48.1425ZM189.559 48.1425C188.163 48.1425 187.498 47.411 187.498 46.233V44.865C187.498 43.687 188.182 42.9555 189.616 42.9555C190.766 42.9555 191.383 43.478 191.621 44.2285C191.678 44.409 191.63 44.4945 191.469 44.5515L191.146 44.656C190.965 44.7225 190.889 44.675 190.823 44.504C190.642 43.9815 190.291 43.706 189.588 43.706C188.752 43.706 188.343 44.124 188.343 44.827V46.2615C188.343 46.974 188.771 47.392 189.588 47.392C190.272 47.392 190.661 47.107 190.832 46.5655C190.899 46.385 190.975 46.3565 191.155 46.4135L191.488 46.5085C191.649 46.575 191.716 46.651 191.64 46.8315C191.345 47.677 190.699 48.1425 189.559 48.1425ZM195.356 42.319L193.684 41.521C193.541 41.4545 193.541 41.388 193.655 41.255L193.845 41.0365C193.959 40.8845 194.111 40.932 194.263 41.0175L195.736 41.92C195.85 41.9865 195.85 42.0435 195.755 42.167L195.641 42.3C195.574 42.3855 195.498 42.3665 195.356 42.319ZM194.653 48.1425C193.171 48.1425 192.534 47.3255 192.534 46.1665V44.9885C192.534 43.706 193.285 42.9555 194.681 42.9555C196.144 42.9555 196.828 43.801 196.828 44.922V45.473C196.828 45.6725 196.743 45.8055 196.486 45.8055H193.38V46.2615C193.38 46.9835 193.826 47.411 194.653 47.411C195.337 47.411 195.745 47.145 195.983 46.746C196.097 46.594 196.182 46.5655 196.353 46.6605L196.61 46.7935C196.771 46.879 196.8 47.0025 196.695 47.164C196.353 47.7435 195.745 48.1425 194.653 48.1425ZM193.38 45.15H195.983V44.8745C195.983 44.124 195.546 43.6775 194.681 43.6775C193.826 43.6775 193.38 44.124 193.38 44.8745V45.15ZM199.761 48.1425C198.687 48.1425 197.994 47.753 197.69 46.974C197.633 46.822 197.671 46.727 197.832 46.67L198.165 46.556C198.307 46.5085 198.383 46.5275 198.459 46.6985C198.649 47.202 199.077 47.392 199.742 47.392C200.549 47.392 200.939 47.1355 200.939 46.6605C200.939 46.0905 200.464 45.986 199.666 45.91C198.716 45.815 197.747 45.6535 197.747 44.428C197.747 43.5445 198.383 42.9555 199.656 42.9555C200.749 42.9555 201.347 43.364 201.642 43.9815C201.727 44.1525 201.68 44.2475 201.518 44.314L201.195 44.447C201.034 44.5135 200.986 44.4945 200.882 44.3425C200.711 43.972 200.407 43.7155 199.675 43.7155C198.934 43.7155 198.583 43.953 198.583 44.409C198.583 45.017 199.086 45.093 199.875 45.169C200.958 45.264 201.765 45.5015 201.765 46.6225C201.765 47.525 201.091 48.1425 199.761 48.1425ZM207.034 48.1425C205.647 48.1425 205.01 47.449 205.01 46.233V44.8935C205.01 43.6585 205.637 42.9555 206.929 42.9555C207.528 42.9555 208.012 43.098 208.269 43.1645V41.198C208.269 41.027 208.326 40.97 208.487 40.97H208.886C209.057 40.97 209.114 41.027 209.114 41.198V47.3255C209.114 47.639 209.038 47.7245 208.734 47.848C208.364 47.9905 207.841 48.1425 207.034 48.1425ZM207.11 47.3635C207.528 47.3635 207.879 47.297 208.136 47.221C208.259 47.164 208.269 47.145 208.269 47.031V43.9435C208.05 43.877 207.623 43.725 207.091 43.725C206.236 43.725 205.856 44.1335 205.856 44.922V46.2045C205.856 46.9645 206.274 47.3635 207.11 47.3635ZM212.378 48.1425C210.896 48.1425 210.26 47.3255 210.26 46.1665V44.9885C210.26 43.706 211.01 42.9555 212.407 42.9555C213.87 42.9555 214.554 43.801 214.554 44.922V45.473C214.554 45.6725 214.468 45.8055 214.212 45.8055H211.105V46.2615C211.105 46.9835 211.552 47.411 212.378 47.411C213.062 47.411 213.471 47.145 213.708 46.746C213.822 46.594 213.908 46.5655 214.079 46.6605L214.335 46.7935C214.497 46.879 214.525 47.0025 214.421 47.164C214.079 47.7435 213.471 48.1425 212.378 48.1425ZM211.105 45.15H213.708V44.8745C213.708 44.124 213.271 43.6775 212.407 43.6775C211.552 43.6775 211.105 44.124 211.105 44.8745V45.15ZM217.486 48.1425C216.413 48.1425 215.719 47.753 215.415 46.974C215.358 46.822 215.396 46.727 215.558 46.67L215.89 46.556C216.033 46.5085 216.109 46.5275 216.185 46.6985C216.375 47.202 216.802 47.392 217.467 47.392C218.275 47.392 218.664 47.1355 218.664 46.6605C218.664 46.0905 218.189 45.986 217.391 45.91C216.441 45.815 215.472 45.6535 215.472 44.428C215.472 43.5445 216.109 42.9555 217.382 42.9555C218.474 42.9555 219.073 43.364 219.367 43.9815C219.453 44.1525 219.405 44.2475 219.244 44.314L218.921 44.447C218.759 44.5135 218.712 44.4945 218.607 44.3425C218.436 43.972 218.132 43.7155 217.401 43.7155C216.66 43.7155 216.308 43.953 216.308 44.409C216.308 45.017 216.812 45.093 217.6 45.169C218.683 45.264 219.491 45.5015 219.491 46.6225C219.491 47.525 218.816 48.1425 217.486 48.1425ZM223.249 48C223.059 48 222.992 47.9335 222.992 47.753V41.502C222.992 41.3215 223.059 41.255 223.249 41.255H225.776C227.125 41.255 227.97 42.0625 227.97 43.4115C227.97 44.751 227.125 45.549 225.776 45.549H223.914V47.753C223.914 47.9335 223.847 48 223.667 48H223.249ZM223.914 44.7035H225.69C226.517 44.7035 227.011 44.2285 227.011 43.4115C227.011 42.585 226.517 42.11 225.69 42.11H223.914V44.7035ZM229.371 48C229.181 48 229.114 47.9335 229.114 47.753V41.502C229.114 41.3215 229.181 41.255 229.371 41.255H229.694C229.903 41.255 229.96 41.293 230.045 41.445L232.24 45.3305L234.415 41.4545C234.501 41.293 234.558 41.255 234.748 41.255H235.109C235.299 41.255 235.356 41.3215 235.356 41.502V47.753C235.356 47.9335 235.299 48 235.109 48H234.738C234.548 48 234.482 47.9335 234.482 47.753L234.491 44.314C234.491 43.7915 234.539 43.2025 234.662 42.5375H234.605C234.368 43.1645 234.14 43.6205 233.855 44.124L232.639 46.2805C232.563 46.4135 232.506 46.461 232.354 46.461H232.116C231.955 46.461 231.907 46.423 231.822 46.2805L230.587 44.1145C230.292 43.611 230.102 43.193 229.874 42.528H229.827C229.931 43.212 229.969 43.7535 229.969 44.314V47.753C229.969 47.9335 229.912 48 229.722 48H229.371ZM237.181 48C236.991 48 236.925 47.9335 236.925 47.753V41.502C236.925 41.3215 236.991 41.255 237.181 41.255H241C241.181 41.255 241.247 41.3215 241.247 41.502V41.8535C241.247 42.0435 241.181 42.11 241 42.11H237.846V44.1525H240.554C240.744 44.1525 240.801 44.219 240.801 44.409V44.7605C240.801 44.9505 240.744 45.0075 240.554 45.0075H237.846V47.145H241.105C241.295 47.145 241.361 47.2115 241.361 47.4015V47.753C241.361 47.9335 241.295 48 241.105 48H237.181ZM246.65 48.1425C245.263 48.1425 244.627 47.449 244.627 46.233V44.8935C244.627 43.6585 245.254 42.9555 246.546 42.9555C247.144 42.9555 247.629 43.098 247.885 43.1645V41.198C247.885 41.027 247.942 40.97 248.104 40.97H248.503C248.674 40.97 248.731 41.027 248.731 41.198V47.3255C248.731 47.639 248.655 47.7245 248.351 47.848C247.98 47.9905 247.458 48.1425 246.65 48.1425ZM246.726 47.3635C247.144 47.3635 247.496 47.297 247.752 47.221C247.876 47.164 247.885 47.145 247.885 47.031V43.9435C247.667 43.877 247.239 43.725 246.707 43.725C245.852 43.725 245.472 44.1335 245.472 44.922V46.2045C245.472 46.9645 245.89 47.3635 246.726 47.3635ZM251.871 48.1425C250.208 48.1425 249.79 47.601 249.79 46.632C249.79 45.5205 250.408 45.15 251.909 45.15C252.384 45.15 252.83 45.207 253.001 45.2165V44.846C253.001 44.1715 252.764 43.706 251.871 43.706C251.291 43.706 250.911 43.9055 250.683 44.295C250.588 44.4375 250.541 44.466 250.379 44.3995L250.075 44.276C249.914 44.2095 249.866 44.124 249.952 43.953C250.284 43.326 250.911 42.9555 251.89 42.9555C253.419 42.9555 253.847 43.801 253.847 44.8745V47.354C253.847 47.6865 253.771 47.7815 253.505 47.8955C253.153 48.0475 252.612 48.1425 251.871 48.1425ZM251.795 47.4395C252.308 47.4395 252.631 47.392 252.849 47.316C252.973 47.278 253.001 47.24 253.001 47.107V45.891C252.811 45.872 252.289 45.8245 251.814 45.8245C250.921 45.8245 250.645 46.0905 250.645 46.6225C250.645 47.126 250.845 47.4395 251.795 47.4395ZM255.321 48C255.15 48 255.093 47.943 255.093 47.772V43.8105C255.093 43.516 255.159 43.402 255.454 43.2785C255.834 43.1265 256.385 42.9555 257.268 42.9555C258.598 42.9555 259.197 43.6585 259.197 44.8365V47.772C259.197 47.943 259.14 48 258.969 48H258.579C258.408 48 258.351 47.943 258.351 47.772V44.865C258.351 44.1145 257.971 43.725 257.154 43.725C256.689 43.725 256.318 43.8105 256.052 43.9055C255.957 43.9435 255.938 44.0005 255.938 44.0765V47.772C255.938 47.943 255.881 48 255.71 48H255.321ZM262.334 48.1425C261.261 48.1425 260.567 47.753 260.263 46.974C260.206 46.822 260.244 46.727 260.406 46.67L260.738 46.556C260.881 46.5085 260.957 46.5275 261.033 46.6985C261.223 47.202 261.65 47.392 262.315 47.392C263.123 47.392 263.512 47.1355 263.512 46.6605C263.512 46.0905 263.037 45.986 262.239 45.91C261.289 45.815 260.32 45.6535 260.32 44.428C260.32 43.5445 260.957 42.9555 262.23 42.9555C263.322 42.9555 263.921 43.364 264.215 43.9815C264.301 44.1525 264.253 44.2475 264.092 44.314L263.769 44.447C263.607 44.5135 263.56 44.4945 263.455 44.3425C263.284 43.972 262.98 43.7155 262.249 43.7155C261.508 43.7155 261.156 43.953 261.156 44.409C261.156 45.017 261.66 45.093 262.448 45.169C263.531 45.264 264.339 45.5015 264.339 46.6225C264.339 47.525 263.664 48.1425 262.334 48.1425ZM267.992 48C267.821 48 267.764 47.943 267.764 47.772V41.198C267.764 41.027 267.821 40.97 267.992 40.97H268.391C268.553 40.97 268.61 41.027 268.61 41.198V47.772C268.61 47.943 268.553 48 268.391 48H267.992ZM271.936 48.1425C270.454 48.1425 269.818 47.3255 269.818 46.1665V44.9885C269.818 43.706 270.568 42.9555 271.965 42.9555C273.428 42.9555 274.112 43.801 274.112 44.922V45.473C274.112 45.6725 274.026 45.8055 273.77 45.8055H270.663V46.2615C270.663 46.9835 271.11 47.411 271.936 47.411C272.62 47.411 273.029 47.145 273.266 46.746C273.38 46.594 273.466 46.5655 273.637 46.6605L273.893 46.7935C274.055 46.879 274.083 47.0025 273.979 47.164C273.637 47.7435 273.029 48.1425 271.936 48.1425ZM270.663 45.15H273.266V44.8745C273.266 44.124 272.829 43.6775 271.965 43.6775C271.11 43.6775 270.663 44.124 270.663 44.8745V45.15ZM277.757 48C277.586 48 277.529 47.943 277.529 47.772V43.8105C277.529 43.516 277.605 43.3925 277.89 43.269C278.242 43.117 278.736 42.9555 279.524 42.9555C280.066 42.9555 280.465 43.079 280.75 43.3165C281.006 43.212 281.576 42.9555 282.46 42.9555C283.723 42.9555 284.274 43.6205 284.274 44.7985V47.772C284.274 47.943 284.217 48 284.046 48H283.657C283.486 48 283.429 47.943 283.429 47.772V44.827C283.429 44.0955 283.077 43.725 282.346 43.725C281.804 43.725 281.405 43.9055 281.206 43.9815C281.31 44.2095 281.348 44.485 281.348 44.7985V47.772C281.348 47.943 281.301 48 281.13 48H280.731C280.56 48 280.503 47.943 280.503 47.772V44.827C280.503 44.0955 280.142 43.725 279.401 43.725C279.021 43.725 278.755 43.7915 278.498 43.8865C278.384 43.934 278.375 44.0005 278.375 44.086V47.772C278.375 47.943 278.318 48 278.147 48H277.757ZM287.539 48.1425C286.199 48.1425 285.411 47.449 285.411 46.328V44.77C285.411 43.649 286.199 42.9555 287.539 42.9555C288.907 42.9555 289.676 43.649 289.676 44.77V46.328C289.676 47.449 288.907 48.1425 287.539 48.1425ZM287.539 47.373C288.356 47.373 288.831 46.9835 288.831 46.328V44.77C288.831 44.105 288.356 43.725 287.539 43.725C286.75 43.725 286.256 44.105 286.256 44.77V46.328C286.256 46.9835 286.75 47.373 287.539 47.373ZM291.078 48C290.907 48 290.85 47.943 290.85 47.772V43.8105C290.85 43.516 290.916 43.402 291.211 43.2785C291.591 43.1265 292.142 42.9555 293.025 42.9555C294.355 42.9555 294.954 43.6585 294.954 44.8365V47.772C294.954 47.943 294.897 48 294.726 48H294.336C294.165 48 294.108 47.943 294.108 47.772V44.865C294.108 44.1145 293.728 43.725 292.911 43.725C292.446 43.725 292.075 43.8105 291.809 43.9055C291.714 43.9435 291.695 44.0005 291.695 44.0765V47.772C291.695 47.943 291.638 48 291.467 48H291.078ZM298.139 48.1425C296.752 48.1425 296.115 47.449 296.115 46.233V44.8935C296.115 43.6585 296.742 42.9555 298.034 42.9555C298.633 42.9555 299.117 43.098 299.374 43.1645V41.198C299.374 41.027 299.431 40.97 299.592 40.97H299.991C300.162 40.97 300.219 41.027 300.219 41.198V47.3255C300.219 47.639 300.143 47.7245 299.839 47.848C299.469 47.9905 298.946 48.1425 298.139 48.1425ZM298.215 47.3635C298.633 47.3635 298.984 47.297 299.241 47.221C299.364 47.164 299.374 47.145 299.374 47.031V43.9435C299.155 43.877 298.728 43.725 298.196 43.725C297.341 43.725 296.961 44.1335 296.961 44.922V46.2045C296.961 46.9645 297.379 47.3635 298.215 47.3635ZM303.483 48.1425C302.001 48.1425 301.365 47.3255 301.365 46.1665V44.9885C301.365 43.706 302.115 42.9555 303.512 42.9555C304.975 42.9555 305.659 43.801 305.659 44.922V45.473C305.659 45.6725 305.573 45.8055 305.317 45.8055H302.21V46.2615C302.21 46.9835 302.657 47.411 303.483 47.411C304.167 47.411 304.576 47.145 304.813 46.746C304.927 46.594 305.013 46.5655 305.184 46.6605L305.44 46.7935C305.602 46.879 305.63 47.0025 305.526 47.164C305.184 47.7435 304.576 48.1425 303.483 48.1425ZM302.21 45.15H304.813V44.8745C304.813 44.124 304.376 43.6775 303.512 43.6775C302.657 43.6775 302.21 44.124 302.21 44.8745V45.15ZM309.304 48C309.133 48 309.076 47.943 309.076 47.772V43.8105C309.076 43.516 309.143 43.402 309.437 43.2785C309.817 43.1265 310.368 42.9555 311.252 42.9555C312.582 42.9555 313.18 43.6585 313.18 44.8365V47.772C313.18 47.943 313.123 48 312.952 48H312.563C312.392 48 312.335 47.943 312.335 47.772V44.865C312.335 44.1145 311.955 43.725 311.138 43.725C310.672 43.725 310.302 43.8105 310.036 43.9055C309.941 43.9435 309.922 44.0005 309.922 44.0765V47.772C309.922 47.943 309.865 48 309.694 48H309.304ZM316.375 48.1425C315.054 48.1425 314.446 47.4395 314.446 46.2615V43.326C314.446 43.155 314.503 43.098 314.674 43.098H315.073C315.244 43.098 315.292 43.155 315.292 43.326V46.233C315.292 46.9835 315.672 47.3635 316.498 47.3635C316.954 47.3635 317.296 47.297 317.572 47.202C317.686 47.1545 317.705 47.088 317.705 46.9835V43.326C317.705 43.155 317.762 43.098 317.933 43.098H318.332C318.493 43.098 318.55 43.155 318.55 43.326V47.2875C318.55 47.582 318.484 47.696 318.189 47.8195C317.819 47.962 317.258 48.1425 316.375 48.1425ZM320.101 48C319.93 48 319.873 47.943 319.873 47.772V43.8105C319.873 43.516 319.949 43.3925 320.234 43.269C320.586 43.117 321.08 42.9555 321.868 42.9555C322.41 42.9555 322.809 43.079 323.094 43.3165C323.35 43.212 323.92 42.9555 324.804 42.9555C326.067 42.9555 326.618 43.6205 326.618 44.7985V47.772C326.618 47.943 326.561 48 326.39 48H326.001C325.83 48 325.773 47.943 325.773 47.772V44.827C325.773 44.0955 325.421 43.725 324.69 43.725C324.148 43.725 323.749 43.9055 323.55 43.9815C323.654 44.2095 323.692 44.485 323.692 44.7985V47.772C323.692 47.943 323.645 48 323.474 48H323.075C322.904 48 322.847 47.943 322.847 47.772V44.827C322.847 44.0955 322.486 43.725 321.745 43.725C321.365 43.725 321.099 43.7915 320.842 43.8865C320.728 43.934 320.719 44.0005 320.719 44.086V47.772C320.719 47.943 320.662 48 320.491 48H320.101ZM329.237 42.319C329.094 42.3665 329.018 42.3855 328.952 42.3L328.838 42.167C328.743 42.0435 328.743 41.9865 328.857 41.92L330.329 41.0175C330.481 40.932 330.624 40.8845 330.747 41.0365L330.937 41.255C331.042 41.388 331.051 41.4545 330.899 41.521L329.237 42.319ZM329.854 48.1425C328.372 48.1425 327.736 47.3255 327.736 46.1665V44.9885C327.736 43.706 328.486 42.9555 329.883 42.9555C331.346 42.9555 332.03 43.801 332.03 44.922V45.473C332.03 45.6725 331.944 45.8055 331.688 45.8055H328.581V46.2615C328.581 46.9835 329.028 47.411 329.854 47.411C330.538 47.411 330.947 47.145 331.184 46.746C331.298 46.594 331.384 46.5655 331.555 46.6605L331.811 46.7935C331.973 46.879 332.001 47.0025 331.897 47.164C331.555 47.7435 330.947 48.1425 329.854 48.1425ZM328.581 45.15H331.184V44.8745C331.184 44.124 330.747 43.6775 329.883 43.6775C329.028 43.6775 328.581 44.124 328.581 44.8745V45.15ZM333.347 48C333.176 48 333.119 47.943 333.119 47.772V43.915C333.119 43.6205 333.186 43.5065 333.48 43.3925C333.832 43.25 334.383 43.098 335.219 43.098H335.523C335.694 43.098 335.751 43.155 335.751 43.326V43.6395C335.751 43.8105 335.694 43.8675 335.523 43.8675H335.2C334.734 43.8675 334.373 43.934 334.098 44.029C333.974 44.0765 333.965 44.143 333.965 44.219V47.772C333.965 47.943 333.908 48 333.737 48H333.347ZM336.978 42.091C336.627 42.091 336.532 42.015 336.532 41.654V41.5875C336.532 41.236 336.627 41.1505 336.978 41.1505H337.045C337.387 41.1505 337.491 41.236 337.491 41.5875V41.654C337.491 42.0055 337.387 42.091 337.045 42.091H336.978ZM336.817 48C336.646 48 336.589 47.943 336.589 47.772V43.326C336.589 43.155 336.646 43.098 336.817 43.098H337.206C337.377 43.098 337.434 43.155 337.434 43.326V47.772C337.434 47.943 337.377 48 337.206 48H336.817ZM342.112 50.09C341.95 50.09 341.893 50.033 341.893 49.862V47.8765C341.618 47.9715 341.133 48.1425 340.554 48.1425C339.224 48.1425 338.635 47.4395 338.635 46.2615V44.922C338.635 43.649 339.3 42.9555 340.725 42.9555C341.456 42.9555 342.045 43.098 342.378 43.25C342.682 43.383 342.739 43.459 342.739 43.7725V49.862C342.739 50.033 342.682 50.09 342.511 50.09H342.112ZM340.668 47.3635C341.2 47.3635 341.656 47.202 341.893 47.1165V44.0765C341.893 43.9625 341.865 43.9245 341.741 43.877C341.494 43.7915 341.181 43.725 340.782 43.725C339.889 43.725 339.48 44.1335 339.48 44.9505V46.2425C339.48 46.9645 339.87 47.3635 340.668 47.3635ZM345.946 48.1425C344.625 48.1425 344.017 47.4395 344.017 46.2615V43.326C344.017 43.155 344.074 43.098 344.245 43.098H344.644C344.815 43.098 344.863 43.155 344.863 43.326V46.233C344.863 46.9835 345.243 47.3635 346.069 47.3635C346.525 47.3635 346.867 47.297 347.143 47.202C347.257 47.1545 347.276 47.088 347.276 46.9835V43.326C347.276 43.155 347.333 43.098 347.504 43.098H347.903C348.064 43.098 348.121 43.155 348.121 43.326V47.2875C348.121 47.582 348.055 47.696 347.76 47.8195C347.39 47.962 346.829 48.1425 345.946 48.1425ZM351.401 48.1425C349.919 48.1425 349.283 47.3255 349.283 46.1665V44.9885C349.283 43.706 350.033 42.9555 351.43 42.9555C352.893 42.9555 353.577 43.801 353.577 44.922V45.473C353.577 45.6725 353.491 45.8055 353.235 45.8055H350.128V46.2615C350.128 46.9835 350.575 47.411 351.401 47.411C352.085 47.411 352.494 47.145 352.731 46.746C352.845 46.594 352.931 46.5655 353.102 46.6605L353.358 46.7935C353.52 46.879 353.548 47.0025 353.444 47.164C353.102 47.7435 352.494 48.1425 351.401 48.1425ZM350.128 45.15H352.731V44.8745C352.731 44.124 352.294 43.6775 351.43 43.6775C350.575 43.6775 350.128 44.124 350.128 44.8745V45.15Z" fill="#003A5C"/>
<path fill-rule="evenodd" clip-rule="evenodd" d="M162.217 31.8671H160.878C160.253 31.8671 160.074 31.6794 160.074 31.0225V12.9099C160.074 12.2529 160.253 12.0652 160.878 12.0652H162.217C162.842 12.0652 163.021 12.2529 163.021 12.9099V31.0225C163.021 31.6794 162.842 31.8671 162.217 31.8671Z" fill="#003B5C"/>
<path fill-rule="evenodd" clip-rule="evenodd" d="M177.755 23.0454C177.755 19.7608 175.79 17.6961 171.95 17.6961C168.2 17.6961 166.146 19.7608 166.146 23.0454V26.7993C166.146 30.084 168.2 32.1486 171.95 32.1486C175.701 32.1486 177.755 30.084 177.755 26.7993V23.0454ZM169.093 23.0454C169.093 21.45 170.075 20.5115 171.95 20.5115C173.826 20.5115 174.897 21.45 174.808 23.0454V26.7993C174.808 28.3947 173.826 29.3332 171.95 29.3332C170.165 29.3332 169.093 28.3947 169.093 26.7993V23.0454Z" fill="#003B5C"/>
<path fill-rule="evenodd" clip-rule="evenodd" d="M186.327 17.6961C189.363 17.6961 191.149 19.1977 191.774 21.1685C191.953 21.8254 191.774 22.2008 191.238 22.3885L190.167 22.7639C189.542 23.0454 189.274 22.8577 189.006 22.2008C188.56 21.0746 187.756 20.4177 186.238 20.4177C184.363 20.4177 183.47 21.3562 183.47 23.0454V26.7993C183.47 28.4886 184.452 29.4271 186.238 29.4271C187.756 29.4271 188.56 28.7701 189.006 27.5501C189.274 26.8932 189.452 26.7993 190.167 26.987L191.328 27.3624C191.953 27.6439 192.131 27.9255 191.863 28.5824C191.06 30.8348 189.274 32.1486 186.238 32.1486C182.398 32.1486 180.612 30.084 180.612 26.7055V23.1393C180.434 19.8546 182.309 17.6961 186.327 17.6961Z" fill="#003B5C"/>
<path fill-rule="evenodd" clip-rule="evenodd" d="M204.99 23.1393C204.99 20.0423 203.74 17.6961 199.543 17.6961C196.864 17.6961 195.167 18.8223 194.364 20.3238C194.096 20.9808 194.185 21.2623 194.81 21.5439L195.793 22.0131C196.328 22.2946 196.507 22.2008 196.864 21.6377C197.4 20.7931 198.293 20.3238 199.543 20.3238C201.418 20.3238 202.043 21.2623 202.043 22.9516V23.7962C201.863 23.7962 201.597 23.781 201.278 23.7628C200.806 23.7358 200.219 23.7024 199.632 23.7024C195.614 23.7024 193.917 24.7347 193.917 27.8316C193.917 30.5532 195.078 32.1486 199.543 32.1486C201.597 32.1486 203.115 31.8671 204.097 31.3979C204.811 31.1163 204.99 30.8348 204.99 29.8963V23.1393ZM196.864 27.9255C196.864 26.7993 197.311 26.1424 199.275 26.1424C199.84 26.1424 200.494 26.1734 201.049 26.1998C201.459 26.2193 201.816 26.2362 202.043 26.2362V29.0517C202.043 29.192 202.043 29.2624 202.01 29.3093C201.977 29.3565 201.91 29.38 201.775 29.4271C201.731 29.4363 201.685 29.4465 201.635 29.4573C201.182 29.5561 200.482 29.7086 199.275 29.7086C197.311 29.7086 196.864 28.9578 196.864 27.9255Z" fill="#003B5C"/>
<path fill-rule="evenodd" clip-rule="evenodd" d="M210.437 31.8671H209.098C208.473 31.8671 208.294 31.6794 208.294 31.0225V12.9099C208.294 12.2529 208.473 12.0652 209.098 12.0652H210.437C211.062 12.0652 211.241 12.2529 211.241 12.9099V31.0225C211.241 31.6794 211.062 31.8671 210.437 31.8671Z" fill="#003B5C"/>
<path fill-rule="evenodd" clip-rule="evenodd" d="M219.545 17.6961C222.492 17.6961 224.189 18.8223 224.992 20.5115C225.26 21.1685 225.082 21.45 224.546 21.7316L223.385 22.2008C222.76 22.4823 222.671 22.3885 222.313 21.8254C221.867 20.9808 221.242 20.4177 219.545 20.4177C217.849 20.4177 217.134 20.8869 217.134 21.9192C217.134 23.1393 218.117 23.327 220.081 23.5147C223.117 23.7962 225.26 24.547 225.26 27.6439C225.26 30.2717 223.385 32.1486 219.724 32.1486C216.777 32.1486 214.902 31.0225 214.098 28.9578C213.83 28.3947 214.009 28.0193 214.545 27.8316L215.706 27.4563C216.241 27.2686 216.509 27.3624 216.777 27.9255C217.224 28.9578 218.117 29.4271 219.635 29.4271C221.421 29.4271 222.313 28.864 222.313 27.8316C222.313 26.6116 221.331 26.3301 219.277 26.1424C216.777 25.8608 214.098 25.4855 214.098 22.0131C214.277 19.4792 216.063 17.6961 219.545 17.6961Z" fill="#003B5C"/>
<path fill-rule="evenodd" clip-rule="evenodd" d="M239.458 23.1393C239.458 20.1361 237.583 17.6961 233.565 17.6961C229.725 17.6961 227.671 19.7608 227.761 23.2331V26.3301C227.761 29.6147 229.368 32.0548 233.565 32.0548C236.422 32.0548 238.119 31.1163 239.012 29.5209C239.369 28.9578 239.369 28.4886 238.744 28.207L237.851 27.7378C237.226 27.3624 236.958 27.4563 236.512 28.0193C235.976 28.864 234.994 29.4271 233.476 29.4271C231.69 29.4271 230.618 28.5824 230.618 26.7993V25.8608H238.298C239.191 25.8608 239.458 25.3916 239.458 24.7347V23.1393ZM230.618 22.9516C230.618 21.3562 231.69 20.3238 233.565 20.3238C235.44 20.3238 236.512 21.3562 236.512 23.0454V23.6085H230.618V22.9516Z" fill="#003B5C"/>
<path fill-rule="evenodd" clip-rule="evenodd" d="M252.764 23.1393C252.764 20.0423 251.513 17.6961 247.316 17.6961C244.638 17.6961 242.941 18.8223 242.137 20.3238C241.869 20.9808 241.959 21.2623 242.584 21.5439L243.566 22.0131C244.102 22.2946 244.28 22.2008 244.638 21.6377C245.173 20.7931 246.066 20.3238 247.316 20.3238C249.192 20.3238 249.817 21.2623 249.817 22.9516V23.7962C249.637 23.7962 249.37 23.781 249.052 23.7628C248.579 23.7358 247.992 23.7024 247.406 23.7024C243.387 23.7024 241.691 24.7347 241.691 27.8316C241.691 30.5532 242.852 32.1486 247.316 32.1486C249.37 32.1486 250.888 31.8671 251.871 31.3979C252.585 31.1163 252.764 30.8348 252.764 29.8963V23.1393ZM244.638 27.9255C244.638 26.7993 245.084 26.1424 247.049 26.1424C247.614 26.1424 248.267 26.1734 248.822 26.1998C249.233 26.2193 249.589 26.2362 249.817 26.2362V29.0517C249.817 29.192 249.817 29.2624 249.784 29.3093C249.75 29.3565 249.683 29.38 249.549 29.4271C249.505 29.4363 249.458 29.4465 249.409 29.4573C248.955 29.5561 248.256 29.7086 247.049 29.7086C245.084 29.7086 244.638 28.9578 244.638 27.9255Z" fill="#003B5C"/>
<path fill-rule="evenodd" clip-rule="evenodd" d="M262.497 17.6961C263.122 17.6961 263.3 17.8838 263.3 18.5407V19.7608C263.3 20.4177 263.122 20.6054 262.497 20.6054H261.604C260.622 20.6054 259.818 20.6992 259.193 20.8869C259.014 20.9808 258.925 21.0746 258.925 21.1685V30.9286C258.925 31.5855 258.746 31.7732 258.121 31.7732H256.782C256.157 31.7732 255.978 31.5855 255.978 30.9286V20.0423C255.978 19.1977 256.157 18.8223 256.96 18.5407C257.943 18.1653 259.371 17.79 261.693 17.6961H262.497V17.6961Z" fill="#003B5C"/>
<path fill-rule="evenodd" clip-rule="evenodd" d="M270.533 17.6961C273.57 17.6961 275.355 19.1977 275.981 21.1685C276.159 21.8254 275.981 22.2008 275.445 22.3885L274.373 22.7639C273.748 23.0454 273.48 22.8577 273.212 22.2008C272.766 21.0746 271.962 20.4177 270.444 20.4177C268.569 20.4177 267.676 21.3562 267.676 23.0454V26.7993C267.676 28.4886 268.658 29.4271 270.444 29.4271C271.962 29.4271 272.766 28.7701 273.212 27.5501C273.48 26.8932 273.659 26.7993 274.373 26.987L275.534 27.3624C276.159 27.6439 276.338 27.9255 276.07 28.5824C275.266 30.8348 273.48 32.1486 270.444 32.1486C266.604 32.1486 264.818 30.084 264.818 26.7055V23.1393C264.729 19.8546 266.515 17.6961 270.533 17.6961Z" fill="#003B5C"/>
<path fill-rule="evenodd" clip-rule="evenodd" d="M281.695 12.9099V18.1653C282.499 17.9776 283.392 17.7899 284.732 17.7899C288.393 17.7899 290 19.7607 290 23.1393V31.0225C290 31.6794 289.821 31.8671 289.196 31.8671H287.768C287.143 31.8671 286.964 31.6794 286.964 31.0225V23.2331C286.964 21.5439 285.982 20.6054 284.196 20.6054C282.946 20.6054 281.785 20.8869 281.606 20.9808V31.0225C281.606 31.6794 281.428 31.8671 280.803 31.8671H279.463C278.838 31.8671 278.659 31.6794 278.659 31.0225V12.9099C278.659 12.2529 278.838 12.0652 279.463 12.0652H280.803C281.517 12.0652 281.695 12.2529 281.695 12.9099Z" fill="#003B5C"/>
<path fill-rule="evenodd" clip-rule="evenodd" d="M140.668 29.1197L137.685 32.0876C129.819 39.8222 121.953 32.0876 121.953 32.0876L118.97 29.1197C111.104 21.3851 118.97 13.6505 118.97 13.6505L121.953 10.6826C129.819 2.94795 137.685 10.6826 137.685 10.6826L140.668 13.6505C148.534 21.3851 140.668 29.1197 140.668 29.1197Z" fill="white"/>
<path fill-rule="evenodd" clip-rule="evenodd" d="M129.638 27.0511C132.984 27.0511 135.696 24.353 135.696 21.0253C135.696 17.6977 132.984 14.9995 129.638 14.9995C126.293 14.9995 123.581 17.6977 123.581 21.0253C123.49 24.353 126.203 27.0511 129.638 27.0511" fill="url(#paint0_linear_1412_1453)"/>
<path fill-rule="evenodd" clip-rule="evenodd" d="M139.584 4.47688L146.726 11.5819C156.111 20.9183 147.942 30.176 146.918 31.3362C146.847 31.4165 146.811 31.4581 146.816 31.4581L139.674 38.5631C129.729 48.5461 119.693 38.5631 119.693 38.5631L112.551 31.4581C102.515 21.475 112.551 11.5819 112.551 11.5819L119.603 4.47688C129.548 -5.50615 139.584 4.47688 139.584 4.47688ZM137.052 31.6379L139.855 28.8499C139.855 28.8499 147.268 21.475 139.855 14.1002L137.052 11.3121C137.052 11.3121 129.638 3.93726 122.225 11.3121L119.422 14.1002C119.422 14.1002 112.008 21.475 119.422 28.8499L122.225 31.6379C122.225 31.6379 129.638 39.0128 137.052 31.6379Z" fill="url(#paint1_linear_1412_1453)"/>
<mask id="mask0_1412_1453" style="mask-type:luminance" maskUnits="userSpaceOnUse" x="108" y="0" width="44" height="43">
<path fill-rule="evenodd" clip-rule="evenodd" d="M146.726 11.5819L139.584 4.47688C139.584 4.47688 129.548 -5.5961 119.512 4.47688L112.46 11.5819C112.46 11.5819 102.425 21.475 112.46 31.4581L119.603 38.5631C119.603 38.5631 129.638 48.5461 139.584 38.5631L146.726 31.4581C146.726 31.548 156.762 21.565 146.726 11.5819ZM140.307 28.4002L137.233 31.548C129.819 38.9228 122.858 32.0876 122.858 32.0876L119.241 28.67C111.827 21.3851 119.422 14.1002 119.331 14.0102L122.134 11.2222C129.548 3.93725 136.962 11.2222 136.962 11.2222L139.764 14.0102C147.178 21.475 140.307 28.4002 140.307 28.4002Z" fill="white"/>
</mask>
<g mask="url(#mask0_1412_1453)">
<path fill-rule="evenodd" clip-rule="evenodd" d="M139.764 32.897C130 42.4304 120.236 32.7172 120.236 32.7172V32.7172C118.156 33.4367 116.077 33.4367 114.268 33.0769L119.874 38.5631C119.874 38.5631 129.819 48.3662 139.674 38.5631L146.726 31.548C146.726 31.548 149.529 28.7599 150.614 24.7128L146.455 28.8499C144.104 31.1882 141.934 32.3574 139.764 32.897Z" fill="url(#paint2_linear_1412_1453)"/>
<path opacity="0.8" fill-rule="evenodd" clip-rule="evenodd" d="M136.69 17.5178C136.51 23.2738 132.26 27.5008 132.26 27.5008L130.452 29.2996C132.079 30.2889 134.611 31.2782 137.414 30.8285L139.584 28.67C139.584 28.67 141.121 27.0511 142.115 24.7128C141.663 23.1838 140.759 21.565 139.131 19.9461L136.69 17.5178Z" fill="url(#paint3_linear_1412_1453)"/>
<path opacity="0.8" fill-rule="evenodd" clip-rule="evenodd" d="M125.66 0.519632C125.751 0.429694 125.841 0.429694 125.841 0.339757C125.57 0.429694 125.389 0.519632 125.118 0.519632L125.389 0.789443L125.66 0.519632Z" fill="url(#paint4_linear_1412_1453)"/>
<path opacity="0.6" fill-rule="evenodd" clip-rule="evenodd" d="M125.479 34.7857L125.208 35.0555C122.677 37.7537 121.953 38.1134 121.953 38.1134C123.219 39.1927 128.644 43.6895 134.701 39.3725C129.548 38.743 125.751 35.0555 125.751 35.0555L125.479 34.7857Z" fill="url(#paint5_linear_1412_1453)"/>
<path opacity="0.24" fill-rule="evenodd" clip-rule="evenodd" d="M108.211 23.9933C109.477 20.126 112.189 17.6977 112.189 17.6977L115.082 14.8197C116.258 10.6826 119.06 7.8945 119.06 7.8945L120.959 6.00582C120.507 5.73601 119.874 5.37626 119.241 5.10645L112.641 11.6719C112.551 11.6719 106.945 17.0681 108.211 23.9933Z" fill="#66C5E3"/>
<path opacity="0.5" fill-rule="evenodd" clip-rule="evenodd" d="M130.271 5.64606L130.814 6.18568C135.515 7.08505 138.86 10.4127 138.86 10.4127L146.003 17.5178C147.088 18.597 147.992 19.7662 148.625 20.8455C149.348 19.0467 149.619 16.7983 148.715 14.37C148.082 13.4706 147.359 12.4813 146.364 11.5819L140.307 5.28631C137.866 3.93725 134.068 3.12781 130.271 5.64606Z" fill="url(#paint6_linear_1412_1453)"/>
<path opacity="0.8" fill-rule="evenodd" clip-rule="evenodd" d="M119.332 28.8499C117.975 27.5008 116.89 25.3423 116.348 24.0832L116.258 24.353C115.534 26.2417 115.263 28.67 116.348 31.1882C117.614 31.0983 118.789 30.5587 120.145 29.7492L119.332 28.8499Z" fill="url(#paint7_linear_1412_1453)"/>
<path opacity="0.8" fill-rule="evenodd" clip-rule="evenodd" d="M136.69 17.5178L139.131 19.9461C140.759 21.565 141.663 23.1838 142.115 24.7128C143.29 21.9247 143.562 17.8775 139.584 13.9203L136.781 11.1322C136.781 11.1322 135.515 9.87311 133.616 8.97374C135.877 11.9417 136.69 14.9096 136.69 17.5178Z" fill="url(#paint8_linear_1412_1453)"/>
<path opacity="0.8" fill-rule="evenodd" clip-rule="evenodd" d="M127.921 13.8304C127.378 12.6612 126.564 11.4021 125.299 10.1429C125.118 10.3228 122.677 12.841 122.134 16.3486C124.214 14.6398 126.112 14.0102 127.921 13.8304Z" fill="url(#paint9_linear_1412_1453)"/>
<path fill-rule="evenodd" clip-rule="evenodd" d="M135.063 39.1027C128.192 44.0493 121.863 37.6637 121.863 37.6637L121.773 37.5738C121.049 37.9335 120.326 38.2933 119.603 38.4732V38.4732C119.603 38.4732 129.458 48.2763 139.403 38.653C137.956 39.1927 136.419 39.2826 135.063 39.1027Z" fill="url(#paint10_linear_1412_1453)"/>
<path opacity="0.4" fill-rule="evenodd" clip-rule="evenodd" d="M116.258 31.0983C115.173 28.5801 115.444 26.1518 116.167 24.2631C114.359 22.4643 113.184 19.5863 113.907 15.809C113.907 15.809 109.115 19.7662 108.121 23.9933C108.482 25.8819 109.386 27.9505 111.014 30.0191C112.551 30.7386 114.268 31.2782 116.258 31.0983Z" fill="url(#paint11_linear_1412_1453)"/>
<path opacity="0.8" fill-rule="evenodd" clip-rule="evenodd" d="M133.978 9.24355C135.967 10.2329 137.142 11.402 137.142 11.402L139.945 14.1901C143.923 18.1473 143.652 22.1046 142.477 24.9826C142.838 26.3316 142.838 27.5908 142.658 28.7599C142.929 28.4901 143.2 28.3103 143.471 28.0404L146.274 25.2524C146.274 25.2524 147.901 23.6335 148.896 21.0253C148.263 19.9461 147.359 18.8668 146.274 17.6977L139.132 10.5926C139.132 10.5926 135.244 6.99512 130.542 6.09575V6.18569L130.814 6.27562L130.995 6.36556C132.26 7.26493 133.616 8.79387 133.978 9.24355Z" fill="url(#paint12_linear_1412_1453)"/>
<path opacity="0.8" fill-rule="evenodd" clip-rule="evenodd" d="M118.518 27.5008L120.416 29.3895C121.14 28.9398 121.773 28.4002 122.496 27.6807L125.299 24.8926V24.8926C122.315 21.8348 121.682 18.8668 122.134 16.3486" fill="url(#paint13_linear_1412_1453)"/>
<path opacity="0.8" fill-rule="evenodd" clip-rule="evenodd" d="M130.362 29.3895L125.66 34.0662C128.463 35.2354 132.532 35.6851 136.6 31.548L137.233 30.9184C134.521 31.3681 131.989 30.3788 130.362 29.3895Z" fill="url(#paint14_linear_1412_1453)"/>
<path fill-rule="evenodd" clip-rule="evenodd" d="M125.389 0.789454L130.271 5.64607C134.068 3.12782 137.956 3.93726 140.307 5.19638L139.312 4.20707C139.312 4.20707 133.255 -1.63885 125.841 0.339767C125.751 0.429705 125.66 0.429705 125.66 0.519642L125.389 0.789454Z" fill="url(#paint15_linear_1412_1453)"/>
<path fill-rule="evenodd" clip-rule="evenodd" d="M113.184 15.809L118.789 10.3228C120.055 9.06368 121.321 8.07437 122.586 7.44481L122.496 7.35488C122.496 7.35488 120.778 5.73601 119.06 5.10645L115.444 8.97375C115.444 8.88381 112.641 11.7618 113.184 15.809Z" fill="url(#paint16_linear_1412_1453)"/>
<path fill-rule="evenodd" clip-rule="evenodd" d="M137.142 31.7279C133.074 35.775 129.005 35.4153 126.203 34.2461L125.841 34.1562L126.203 34.8757C126.203 34.8757 129.91 38.5631 135.153 39.1927C135.696 38.8329 136.238 38.3832 136.781 37.7537L139.584 34.9656C139.584 34.9656 142.205 32.3574 142.748 28.7599C141.03 30.1989 139.403 30.9184 137.866 31.1882L137.142 31.7279Z" fill="url(#paint17_linear_1412_1453)"/>
<path fill-rule="evenodd" clip-rule="evenodd" d="M148.805 21.1153C149.71 22.5543 150.433 23.8134 150.704 25.1624C151.699 22.1945 151.789 18.4172 149.167 14.5499C149.981 16.8882 149.438 19.3165 148.805 21.1153Z" fill="url(#paint18_linear_1412_1453)"/>
<path opacity="0.8" fill-rule="evenodd" clip-rule="evenodd" d="M121.321 17.0681C121.592 16.7983 121.863 16.5285 122.134 16.3486C122.677 12.841 125.118 10.3228 125.299 10.1429V10.1429L124.304 9.15361C123.49 9.6033 122.586 10.3228 121.773 11.1322L118.97 13.9203C118.97 13.9203 114.721 18.7769 116.258 24.2631C117.252 21.8348 118.518 19.8561 118.518 19.8561L121.321 17.0681Z" fill="url(#paint19_linear_1412_1453)"/>
<path fill-rule="evenodd" clip-rule="evenodd" d="M121.321 17.0681C121.592 16.7983 121.863 16.5285 122.134 16.3486C122.677 12.841 125.118 10.3228 125.299 10.1429V10.1429L124.304 9.15361C123.49 9.6033 122.586 10.3228 121.773 11.1322L118.97 13.9203C118.97 13.9203 114.721 18.7769 116.258 24.2631C117.252 21.8348 118.518 19.8561 118.518 19.8561L121.321 17.0681Z" fill="url(#paint20_linear_1412_1453)"/>
<path opacity="0.4" fill-rule="evenodd" clip-rule="evenodd" d="M118.97 14.0102L121.773 11.2222C122.586 10.4127 123.49 9.69324 124.304 9.24355L122.586 7.53474C121.321 8.25424 120.055 9.15361 118.789 10.4127L114.54 14.6398C113.726 17.4278 115.353 22.1046 116.258 24.0832C114.721 19.4065 118.97 14.0102 118.97 14.0102Z" fill="url(#paint21_linear_1412_1453)"/>
<path opacity="0.4" fill-rule="evenodd" clip-rule="evenodd" d="M118.879 14.0102L122.315 10.5926C122.858 9.96305 124.304 9.15362 124.304 9.15362L122.586 7.44481C121.321 8.16431 119.784 9.15362 118.518 10.5027L114.268 14.7297C112.46 20.9354 116.167 24.353 116.258 24.353C114.721 18.8668 118.879 14.0102 118.879 14.0102Z" fill="url(#paint22_linear_1412_1453)"/>
<path opacity="0.4" fill-rule="evenodd" clip-rule="evenodd" d="M119.151 14.0102L122.044 11.1322C122.858 10.3228 123.49 9.6033 124.394 9.15362L122.677 7.44481C121.411 8.16431 120.416 9.06368 119.06 10.3228L114.811 14.5499C113.726 20.4857 116.258 23.9033 116.258 23.9033C114.721 18.5071 119.151 14.0102 119.151 14.0102Z" fill="url(#paint23_linear_1412_1453)"/>
<path opacity="0.8" fill-rule="evenodd" clip-rule="evenodd" d="M125.389 24.8926V24.8926L128.282 27.7706C128.282 27.7706 129.096 28.5801 130.452 29.3895L132.26 27.5908C132.26 27.5908 136.51 23.3637 136.69 17.6077L136.238 17.158C136.238 17.158 132.622 13.5605 128.011 13.9203C130.452 19.6763 125.57 24.7128 125.389 24.8926Z" fill="url(#paint24_linear_1412_1453)"/>
<path fill-rule="evenodd" clip-rule="evenodd" d="M130.723 6.09575L130.271 5.64606C130.09 5.736 130 5.82594 129.819 6.00581C130.09 6.00581 130.362 6.09575 130.723 6.09575Z" fill="#6EC7E0"/>
<path fill-rule="evenodd" clip-rule="evenodd" d="M125.66 34.0662L124.575 33.4367C122.858 32.5373 122.225 31.7279 122.225 31.7279L120.145 29.6593C118.789 30.4687 117.614 31.0084 116.348 31.0983C116.89 32.2675 118.066 33.8864 119.241 35.1455L121.863 37.6637C123.038 36.8543 123.852 35.865 125.118 34.6059L125.66 34.0662Z" fill="url(#paint25_linear_1412_1453)"/>
<path fill-rule="evenodd" clip-rule="evenodd" d="M118.699 4.83663C119.331 5.10644 119.874 5.37625 120.416 5.736L125.389 0.78945L125.118 0.519638C123.219 1.1492 121.23 2.31838 119.241 4.297L118.699 4.83663Z" fill="url(#paint26_linear_1412_1453)"/>
<path fill-rule="evenodd" clip-rule="evenodd" d="M128.192 7.35487L127.559 7.98444C129.819 7.62469 132.531 8.34418 133.616 8.97374C133.255 8.52406 132.712 8.07437 132.26 7.62469L130.723 6.09575C130.452 6.00582 130.09 6.00582 129.819 5.91588C129.277 6.36556 128.734 6.81525 128.192 7.35487Z" fill="#45ADD0"/>
<path opacity="0.6" fill-rule="evenodd" clip-rule="evenodd" d="M127.378 8.25425C129.005 7.71462 131.537 8.16431 132.803 8.61399C133.255 8.79387 133.797 8.97374 133.888 9.06368C132.893 7.71462 131.266 6.36556 131.266 6.36556C130.994 6.18569 130.271 6.00581 129.91 6.00581C128.825 6.63537 127.378 8.25425 127.378 8.25425Z" fill="#65C4F0"/>
<path opacity="0.8" fill-rule="evenodd" clip-rule="evenodd" d="M118.789 34.6958C117.523 33.4367 116.8 32.3574 116.348 31.0983C114.359 31.1882 112.551 30.6486 111.195 29.9291C111.556 30.4687 111.918 30.8285 112.37 31.2782L119.693 38.5631C120.416 38.2933 121.14 38.0235 121.863 37.6637L118.789 34.6958Z" fill="url(#paint27_linear_1412_1453)"/>
<path opacity="0.8" fill-rule="evenodd" clip-rule="evenodd" d="M119.151 35.0555C117.885 33.7964 116.8 32.3574 116.348 31.0983C114.359 31.1882 112.551 30.6486 111.195 30.0191C111.556 30.5587 111.918 30.9184 112.37 31.3681L119.693 38.653C120.416 38.3832 121.14 38.1134 121.863 37.7537L119.151 35.0555Z" fill="url(#paint28_linear_1412_1453)"/>
<path opacity="0.6" fill-rule="evenodd" clip-rule="evenodd" d="M122.586 7.4448C125.118 6.09574 127.559 5.73599 129.729 6.0058C129.91 5.91587 130 5.73599 130.181 5.64606L125.299 0.789444L120.326 5.73599C121.682 6.54543 122.405 7.35486 122.405 7.35486L122.586 7.4448Z" fill="#8FD1E7"/>
<path opacity="0.6" fill-rule="evenodd" clip-rule="evenodd" d="M122.586 7.44481C125.118 6.09575 127.559 5.736 129.729 6.00581C129.91 5.91587 130 5.736 130.181 5.64606L124.123 -6.49547L118.699 4.83663C120.055 5.64606 122.405 7.35487 122.405 7.35487L122.586 7.44481Z" fill="url(#paint29_linear_1412_1453)"/>
<path opacity="0.8" fill-rule="evenodd" clip-rule="evenodd" d="M125.389 10.1429V10.1429V10.1429L127.559 7.98444C126.564 8.16431 125.479 8.52406 124.395 9.15362L125.389 10.1429Z" fill="url(#paint30_linear_1412_1453)"/>
<path fill-rule="evenodd" clip-rule="evenodd" d="M127.559 7.98443L128.192 7.35487C128.734 6.81524 129.186 6.36556 129.729 6.00581C127.559 5.736 125.118 6.09575 122.586 7.4448L124.304 9.15361C125.479 8.52405 126.474 8.1643 127.559 7.98443Z" fill="url(#paint31_linear_1412_1453)"/>
<path fill-rule="evenodd" clip-rule="evenodd" d="M127.378 8.25424L128.373 7.26493C128.825 6.81525 129.367 6.36556 129.91 6.00581C127.83 5.736 125.118 6.18569 122.767 7.44481L124.666 9.42343C125.57 8.79387 126.384 8.52406 127.378 8.25424Z" fill="#6DC8F2"/>
<path opacity="0.8" fill-rule="evenodd" clip-rule="evenodd" d="M120.416 23.5436L118.427 21.3851C112.189 14.6398 118.427 7.98443 118.427 7.98443L120.778 5.37625C124.214 1.68882 127.649 2.04857 130 3.12781L130.452 2.67813C132.079 0.879384 133.797 -0.199863 135.425 -0.829424V-0.829424C135.425 -0.829424 127.016 -9.91309 118.699 -0.829424L112.731 5.64606C112.731 5.64606 104.323 14.7297 112.731 23.7234L118.699 30.1989C118.699 30.1989 121.501 33.1669 125.479 33.9763L124.214 32.6272C121.23 29.4794 120.326 26.3316 120.416 23.5436Z" fill="url(#paint32_linear_1412_1453)"/>
</g>
<mask id="mask1_1412_1453" style="mask-type:luminance" maskUnits="userSpaceOnUse" x="123" y="14" width="13" height="14">
<path fill-rule="evenodd" clip-rule="evenodd" d="M129.548 27.0511C132.893 27.0511 135.605 24.353 135.605 21.0253C135.605 17.6977 132.893 14.9995 129.548 14.9995C126.203 14.9995 123.49 17.6977 123.49 21.0253C123.49 24.353 126.203 27.0511 129.548 27.0511" fill="white"/>
</mask>
<g mask="url(#mask1_1412_1453)">
<path opacity="0.2" fill-rule="evenodd" clip-rule="evenodd" d="M131.266 19.6763C130.723 18.5071 129.91 17.248 128.644 15.9889C128.463 16.1687 126.022 18.687 125.479 22.1945C127.559 20.4857 129.458 19.7662 131.266 19.6763Z" fill="url(#paint33_linear_1412_1453)"/>
<path opacity="0.8" fill-rule="evenodd" clip-rule="evenodd" d="M123.762 35.2354C124.485 34.7857 125.118 34.2461 125.841 33.5266L128.644 30.7386V30.7386C125.66 27.6807 125.027 24.7128 125.479 22.1945C125.208 22.4643 124.937 22.6442 124.666 22.914L121.863 25.7021C121.863 25.7021 120.326 27.3209 119.331 29.6593C119.422 29.9291 119.512 30.2889 119.603 30.5587C120.236 31.4581 120.959 32.3574 121.863 33.2568L123.762 35.2354Z" fill="url(#paint34_linear_1412_1453)"/>
<path opacity="0.2" fill-rule="evenodd" clip-rule="evenodd" d="M124.666 22.914C124.937 22.6442 125.208 22.3744 125.479 22.1945C126.022 18.687 128.463 16.1687 128.644 15.9889V15.9889L127.649 14.9995C126.836 15.4492 125.751 15.809 124.937 16.7084L122.315 19.8562C122.315 19.8562 117.795 24.353 119.332 29.8392C120.326 27.4109 121.863 25.882 121.863 25.882L124.666 22.914Z" fill="url(#paint35_linear_1412_1453)"/>
<path opacity="0.3" fill-rule="evenodd" clip-rule="evenodd" d="M124.666 22.914C124.937 22.6442 125.208 22.3744 125.479 22.1945C126.022 18.687 128.463 16.1687 128.644 15.9889V15.9889L127.649 14.9995C126.836 15.4492 125.932 15.809 125.118 16.7084L122.315 19.8562C122.315 19.8562 117.795 24.353 119.332 29.8392C120.326 27.4109 121.863 25.882 121.863 25.882L124.666 22.914Z" fill="url(#paint36_linear_1412_1453)"/>
<path fill-rule="evenodd" clip-rule="evenodd" d="M128.734 30.7386V30.7386L131.627 33.6166C131.627 33.6166 132.441 34.426 133.797 35.2354L135.605 33.4367C135.605 33.4367 139.855 29.2096 140.036 23.4537L139.583 23.004C139.583 23.004 135.967 19.4065 131.356 19.7662C133.797 25.5222 128.915 30.5587 128.734 30.7386Z" fill="url(#paint37_linear_1412_1453)"/>
<path opacity="0.4" fill-rule="evenodd" clip-rule="evenodd" d="M128.734 15.9889C130 17.248 130.814 18.5071 131.356 19.6763C136.057 19.4065 139.583 22.914 139.583 22.914L140.036 23.3637C140.126 20.7555 139.312 17.7876 136.781 14.8197C135.244 14.0102 133.164 13.4706 130.904 13.8304L128.734 15.9889V15.9889Z" fill="url(#paint38_linear_1412_1453)"/>
<path opacity="0.4" fill-rule="evenodd" clip-rule="evenodd" d="M128.734 15.9888V15.9888V15.9888L130.904 13.8304C129.91 14.0102 128.825 14.37 127.74 14.9995L128.734 15.9888Z" fill="url(#paint39_linear_1412_1453)"/>
<path opacity="0.6" fill-rule="evenodd" clip-rule="evenodd" d="M128.734 15.9888V15.9888V15.9888L130.904 13.8304C129.91 14.0102 128.825 14.37 127.74 14.9995L128.734 15.9888Z" fill="url(#paint40_linear_1412_1453)"/>
</g>
<defs>
<linearGradient id="paint0_linear_1412_1453" x1="119.521" y1="18.0556" x2="126.824" y2="30.0084" gradientUnits="userSpaceOnUse">
<stop offset="0.153" stop-color="#00B4EC"/>
<stop offset="0.49" stop-color="#05395C"/>
<stop offset="1" stop-color="#E2051D"/>
</linearGradient>
<linearGradient id="paint1_linear_1412_1453" x1="102.87" y1="15.9902" x2="123.624" y2="49.8079" gradientUnits="userSpaceOnUse">
<stop stop-color="#00B0EA"/>
<stop offset="0.1177" stop-color="#00A7E7"/>
<stop offset="0.204" stop-color="#008FC9"/>
<stop offset="0.3907" stop-color="#00527E"/>
<stop offset="0.46" stop-color="#003A60"/>
<stop offset="0.5916" stop-color="#4B2947"/>
<stop offset="0.7184" stop-color="#8C1A30"/>
<stop offset="0.8244" stop-color="#BA0F20"/>
<stop offset="0.9054" stop-color="#D70817"/>
<stop offset="0.9518" stop-color="#E20613"/>
</linearGradient>
<linearGradient id="paint2_linear_1412_1453" x1="79.1807" y1="12.3815" x2="87.1647" y2="50.0976" gradientUnits="userSpaceOnUse">
<stop offset="0.0209" stop-color="#9D0C26" stop-opacity="0.01"/>
<stop offset="0.1897" stop-color="#A81428" stop-opacity="0.01"/>
<stop offset="0.4889" stop-color="#C72A2D" stop-opacity="0.01"/>
<stop offset="0.7567" stop-color="#E74133" stop-opacity="0.01"/>
<stop offset="0.8272" stop-color="#E73E31" stop-opacity="0.2899"/>
<stop offset="0.8863" stop-color="#E6332C" stop-opacity="0.5327"/>
<stop offset="0.9412" stop-color="#E42222" stop-opacity="0.7584"/>
<stop offset="0.9934" stop-color="#E20A15" stop-opacity="0.9728"/>
<stop offset="1" stop-color="#E20613"/>
</linearGradient>
<linearGradient id="paint3_linear_1412_1453" x1="130.367" y1="30.9404" x2="142.03" y2="30.9404" gradientUnits="userSpaceOnUse">
<stop stop-color="white"/>
<stop offset="0.5534" stop-color="#FFF6F4" stop-opacity="0.01"/>
<stop offset="0.8564" stop-color="#FFF8F6" stop-opacity="0.6784"/>
<stop offset="0.9811" stop-color="#FFFDFD" stop-opacity="0.9576"/>
<stop offset="1" stop-color="white"/>
</linearGradient>
<linearGradient id="paint4_linear_1412_1453" x1="109.105" y1="11.7618" x2="129.799" y2="45.6165" gradientUnits="userSpaceOnUse">
<stop stop-color="white"/>
<stop offset="0.5534" stop-color="#FFF6F4" stop-opacity="0.01"/>
<stop offset="0.8564" stop-color="#FFF8F6" stop-opacity="0.6784"/>
<stop offset="0.9811" stop-color="#FFFDFD" stop-opacity="0.9576"/>
<stop offset="1" stop-color="white"/>
</linearGradient>
<linearGradient id="paint5_linear_1412_1453" x1="77.7038" y1="16.2592" x2="83.3746" y2="52.3993" gradientUnits="userSpaceOnUse">
<stop stop-color="#F7C1B2"/>
<stop offset="0.5588" stop-color="#F29A9A" stop-opacity="0.01"/>
<stop offset="0.7331" stop-color="#F29A98" stop-opacity="0.3951"/>
<stop offset="0.8049" stop-color="#F29991" stop-opacity="0.5579"/>
<stop offset="0.8579" stop-color="#F29985" stop-opacity="0.6779"/>
<stop offset="0.9016" stop-color="#F29773" stop-opacity="0.777"/>
<stop offset="0.9396" stop-color="#F2965C" stop-opacity="0.863"/>
<stop offset="0.973" stop-color="#F29441" stop-opacity="0.9388"/>
<stop offset="1" stop-color="#F29224"/>
</linearGradient>
<linearGradient id="paint6_linear_1412_1453" x1="112.844" y1="7.03527" x2="130.073" y2="42.6274" gradientUnits="userSpaceOnUse">
<stop stop-color="#4EBFE0"/>
<stop offset="0.095" stop-color="#50BCDC" stop-opacity="0.8108"/>
<stop offset="0.1792" stop-color="#58B1D2" stop-opacity="0.643"/>
<stop offset="0.2595" stop-color="#649FC0" stop-opacity="0.4832"/>
<stop offset="0.3372" stop-color="#7585A6" stop-opacity="0.3284"/>
<stop offset="0.4131" stop-color="#8A6585" stop-opacity="0.1771"/>
<stop offset="0.4867" stop-color="#A53D5D" stop-opacity="0.0305"/>
<stop offset="0.502" stop-color="#AB3454" stop-opacity="0.01"/>
<stop offset="0.9976" stop-color="#DE091E" stop-opacity="0.01"/>
</linearGradient>
<linearGradient id="paint7_linear_1412_1453" x1="97.0348" y1="29.2508" x2="126.517" y2="48.5865" gradientUnits="userSpaceOnUse">
<stop stop-color="#1A77A4"/>
<stop offset="0.5562" stop-color="#ADDCED" stop-opacity="0.01"/>
<stop offset="0.7203" stop-color="#ABDAEB" stop-opacity="0.3697"/>
<stop offset="0.7879" stop-color="#A4D3E5" stop-opacity="0.522"/>
<stop offset="0.8377" stop-color="#98C8DB" stop-opacity="0.6343"/>
<stop offset="0.8788" stop-color="#86B7CB" stop-opacity="0.727"/>
<stop offset="0.9146" stop-color="#6FA1B8" stop-opacity="0.8075"/>
<stop offset="0.9466" stop-color="#5386A0" stop-opacity="0.8796"/>
<stop offset="0.9751" stop-color="#326783" stop-opacity="0.944"/>
<stop offset="1" stop-color="#0F4565"/>
</linearGradient>
<linearGradient id="paint8_linear_1412_1453" x1="121.186" y1="21.7204" x2="151.451" y2="38.6929" gradientUnits="userSpaceOnUse">
<stop stop-color="white"/>
<stop offset="0.5534" stop-color="#FFF6F4" stop-opacity="0.01"/>
<stop offset="0.8564" stop-color="#FFF8F6" stop-opacity="0.6784"/>
<stop offset="0.9811" stop-color="#FFFDFD" stop-opacity="0.9576"/>
<stop offset="1" stop-color="white"/>
</linearGradient>
<linearGradient id="paint9_linear_1412_1453" x1="106.025" y1="20.9069" x2="128.959" y2="53.1858" gradientUnits="userSpaceOnUse">
<stop stop-color="white"/>
<stop offset="0.5534" stop-color="#FFF6F4" stop-opacity="0.01"/>
<stop offset="0.8564" stop-color="#FFF8F6" stop-opacity="0.6784"/>
<stop offset="0.9811" stop-color="#FFFDFD" stop-opacity="0.9576"/>
<stop offset="1" stop-color="white"/>
</linearGradient>
<linearGradient id="paint10_linear_1412_1453" x1="51.7365" y1="17.3513" x2="53.2744" y2="51.9671" gradientUnits="userSpaceOnUse">
<stop stop-color="#E73374"/>
<stop offset="0.5526" stop-color="#D74B3F" stop-opacity="0.2"/>
<stop offset="0.7258" stop-color="#D54A3E" stop-opacity="0.5097"/>
<stop offset="0.7972" stop-color="#CE463B" stop-opacity="0.6373"/>
<stop offset="0.8498" stop-color="#C24036" stop-opacity="0.7314"/>
<stop offset="0.8932" stop-color="#B0382F" stop-opacity="0.8091"/>
<stop offset="0.9309" stop-color="#992C26" stop-opacity="0.8765"/>
<stop offset="0.9647" stop-color="#7D1E1B" stop-opacity="0.9369"/>
<stop offset="0.9949" stop-color="#5C0E0E" stop-opacity="0.9908"/>
<stop offset="1" stop-color="#560B0B"/>
</linearGradient>
<linearGradient id="paint11_linear_1412_1453" x1="100.83" y1="37.1523" x2="129.798" y2="50.3749" gradientUnits="userSpaceOnUse">
<stop stop-color="#ADDCED"/>
<stop offset="0.5534" stop-color="#ADDCED" stop-opacity="0.01"/>
<stop offset="0.9349" stop-color="#ADDCED" stop-opacity="0.8543"/>
<stop offset="1" stop-color="#ADDCED"/>
</linearGradient>
<linearGradient id="paint12_linear_1412_1453" x1="118.439" y1="16.3303" x2="145.62" y2="45.1872" gradientUnits="userSpaceOnUse">
<stop stop-color="#55B7D7"/>
<stop offset="0.0694" stop-color="#59A7C7" stop-opacity="0.9065"/>
<stop offset="0.2831" stop-color="#637B9A" stop-opacity="0.6186"/>
<stop offset="0.4741" stop-color="#6A5B7A" stop-opacity="0.3613"/>
<stop offset="0.6336" stop-color="#6E4766" stop-opacity="0.1463"/>
<stop offset="0.7422" stop-color="#70405F" stop-opacity="0.01"/>
<stop offset="0.8042" stop-color="#774266" stop-opacity="0.01"/>
<stop offset="0.8962" stop-color="#89487A" stop-opacity="0.01"/>
<stop offset="1" stop-color="#A55299" stop-opacity="0.01"/>
</linearGradient>
<linearGradient id="paint13_linear_1412_1453" x1="103.959" y1="29.6868" x2="133.858" y2="42.7737" gradientUnits="userSpaceOnUse">
<stop stop-color="white"/>
<stop offset="0.5534" stop-color="#FFF6F4" stop-opacity="0.01"/>
<stop offset="0.8564" stop-color="#FFF8F6" stop-opacity="0.6784"/>
<stop offset="0.9811" stop-color="#FFFDFD" stop-opacity="0.9576"/>
<stop offset="1" stop-color="white"/>
</linearGradient>
<linearGradient id="paint14_linear_1412_1453" x1="80.4708" y1="12.541" x2="85.4644" y2="48.5009" gradientUnits="userSpaceOnUse">
<stop stop-color="white"/>
<stop offset="0.5534" stop-color="#FFF6F4" stop-opacity="0.01"/>
<stop offset="0.8564" stop-color="#FFF8F6" stop-opacity="0.6784"/>
<stop offset="0.9811" stop-color="#FFFDFD" stop-opacity="0.9576"/>
<stop offset="1" stop-color="white"/>
</linearGradient>
<linearGradient id="paint15_linear_1412_1453" x1="86.1751" y1="2.89408" x2="89.3866" y2="38.3177" gradientUnits="userSpaceOnUse">
<stop offset="0.0028" stop-color="#74C6E9"/>
<stop offset="0.5534" stop-color="#51B8E9" stop-opacity="0.01"/>
<stop offset="0.8893" stop-color="#52B8E7" stop-opacity="0.752"/>
<stop offset="1" stop-color="#53B8E2"/>
</linearGradient>
<linearGradient id="paint16_linear_1412_1453" x1="113.125" y1="15.8154" x2="122.609" y2="15.8154" gradientUnits="userSpaceOnUse">
<stop stop-color="#5BC4F1"/>
<stop offset="0.4635" stop-color="#5DC5F1" stop-opacity="0.7682"/>
<stop offset="0.6338" stop-color="#64C7F2" stop-opacity="0.6831"/>
<stop offset="0.7557" stop-color="#70CAF3" stop-opacity="0.6222"/>
<stop offset="0.8545" stop-color="#81D0F4" stop-opacity="0.5727"/>
<stop offset="0.9383" stop-color="#96D6F6" stop-opacity="0.5308"/>
<stop offset="1" stop-color="#ACDDF8" stop-opacity="0.5"/>
</linearGradient>
<linearGradient id="paint17_linear_1412_1453" x1="89.9831" y1="12.1005" x2="98.871" y2="49.8888" gradientUnits="userSpaceOnUse">
<stop stop-color="#E73374"/>
<stop offset="0.5694" stop-color="#F5B0A5" stop-opacity="0.02"/>
<stop offset="0.7288" stop-color="#F4AEA3" stop-opacity="0.3828"/>
<stop offset="0.7945" stop-color="#F2A79D" stop-opacity="0.5323"/>
<stop offset="0.8429" stop-color="#EE9B91" stop-opacity="0.6425"/>
<stop offset="0.8829" stop-color="#E98981" stop-opacity="0.7335"/>
<stop offset="0.9176" stop-color="#E2726C" stop-opacity="0.8125"/>
<stop offset="0.9487" stop-color="#D95652" stop-opacity="0.8833"/>
<stop offset="0.9764" stop-color="#CF3535" stop-opacity="0.9464"/>
<stop offset="1" stop-color="#C41315"/>
</linearGradient>
<linearGradient id="paint18_linear_1412_1453" x1="131.348" y1="39.8164" x2="155.131" y2="42.0263" gradientUnits="userSpaceOnUse">
<stop stop-color="#E73374"/>
<stop offset="0.5526" stop-color="#9A345E" stop-opacity="0.01"/>
<stop offset="0.7941" stop-color="#9B335C" stop-opacity="0.5398"/>
<stop offset="0.8936" stop-color="#A02F55" stop-opacity="0.7622"/>
<stop offset="0.9667" stop-color="#A82749" stop-opacity="0.9255"/>
<stop offset="1" stop-color="#AD2240"/>
</linearGradient>
<linearGradient id="paint19_linear_1412_1453" x1="106.606" y1="29.9176" x2="138.475" y2="49.7854" gradientUnits="userSpaceOnUse">
<stop stop-color="white"/>
<stop offset="0.5534" stop-color="#FFF6F4" stop-opacity="0.01"/>
<stop offset="0.8564" stop-color="#FFF8F6" stop-opacity="0.6784"/>
<stop offset="0.9811" stop-color="#FFFDFD" stop-opacity="0.9576"/>
<stop offset="1" stop-color="white"/>
</linearGradient>
<linearGradient id="paint20_linear_1412_1453" x1="103.95" y1="25.6172" x2="135.819" y2="45.485" gradientUnits="userSpaceOnUse">
<stop stop-color="#ADDCED"/>
<stop offset="0.5534" stop-color="#ADDCED" stop-opacity="0.01"/>
<stop offset="0.9349" stop-color="#ADDCED" stop-opacity="0.8543"/>
<stop offset="1" stop-color="#ADDCED"/>
</linearGradient>
<linearGradient id="paint21_linear_1412_1453" x1="104.86" y1="25.395" x2="135.04" y2="43.185" gradientUnits="userSpaceOnUse">
<stop stop-color="#ADDCED"/>
<stop offset="0.5534" stop-color="#ADDCED" stop-opacity="0.01"/>
<stop offset="0.9349" stop-color="#ADDCED" stop-opacity="0.8543"/>
<stop offset="1" stop-color="#ADDCED"/>
</linearGradient>
<linearGradient id="paint22_linear_1412_1453" x1="106.65" y1="29.6117" x2="137.651" y2="49.0844" gradientUnits="userSpaceOnUse">
<stop stop-color="#ADDCED"/>
<stop offset="0.5534" stop-color="#ADDCED" stop-opacity="0.01"/>
<stop offset="0.9349" stop-color="#ADDCED" stop-opacity="0.8543"/>
<stop offset="1" stop-color="#ADDCED"/>
</linearGradient>
<linearGradient id="paint23_linear_1412_1453" x1="107.599" y1="29.5794" x2="137.739" y2="47.0697" gradientUnits="userSpaceOnUse">
<stop stop-color="#ACDDF8"/>
<stop offset="0.5534" stop-color="#ACDDF8" stop-opacity="0.01"/>
<stop offset="0.9349" stop-color="#ACDDF8" stop-opacity="0.8543"/>
<stop offset="1" stop-color="#ACDDF8"/>
</linearGradient>
<linearGradient id="paint24_linear_1412_1453" x1="102.871" y1="9.8726" x2="131.535" y2="34.5598" gradientUnits="userSpaceOnUse">
<stop stop-color="white"/>
<stop offset="0.5534" stop-color="#FFF6F4" stop-opacity="0.01"/>
<stop offset="0.8564" stop-color="#FFF8F6" stop-opacity="0.6784"/>
<stop offset="0.9811" stop-color="#FFFDFD" stop-opacity="0.9576"/>
<stop offset="1" stop-color="white"/>
</linearGradient>
<linearGradient id="paint25_linear_1412_1453" x1="82.8542" y1="12.1512" x2="99.4081" y2="48.4244" gradientUnits="userSpaceOnUse">
<stop stop-color="#013854"/>
<stop offset="0.4853" stop-color="#8A345F" stop-opacity="0.01"/>
<stop offset="0.7022" stop-color="#8C335E" stop-opacity="0.1264"/>
<stop offset="0.7915" stop-color="#932F59" stop-opacity="0.1785"/>
<stop offset="0.8574" stop-color="#9F2950" stop-opacity="0.2169"/>
<stop offset="0.9117" stop-color="#B11F44" stop-opacity="0.2485"/>
<stop offset="0.9584" stop-color="#C71434" stop-opacity="0.2757"/>
<stop offset="1" stop-color="#E30521" stop-opacity="0.3"/>
</linearGradient>
<linearGradient id="paint26_linear_1412_1453" x1="95.2706" y1="2.64561" x2="108.957" y2="39.0941" gradientUnits="userSpaceOnUse">
<stop stop-color="#ADDCED"/>
<stop offset="0.5534" stop-color="#ADDCED" stop-opacity="0.01"/>
<stop offset="0.9349" stop-color="#ADDCED" stop-opacity="0.8543"/>
<stop offset="1" stop-color="#ADDCED"/>
</linearGradient>
<linearGradient id="paint27_linear_1412_1453" x1="83.6142" y1="23.1446" x2="98.4336" y2="59.7749" gradientUnits="userSpaceOnUse">
<stop stop-color="#ADDCED"/>
<stop offset="0.5508" stop-color="#ADDCED" stop-opacity="0.01"/>
<stop offset="0.9345" stop-color="#ADDCED" stop-opacity="0.8543"/>
<stop offset="1" stop-color="#ADDCED"/>
</linearGradient>
<linearGradient id="paint28_linear_1412_1453" x1="78.0209" y1="14.0823" x2="92.8066" y2="50.6289" gradientUnits="userSpaceOnUse">
<stop offset="0.0046" stop-color="#013854"/>
<stop offset="0.4907" stop-color="#8A345F" stop-opacity="0.01"/>
<stop offset="0.7053" stop-color="#8C335E" stop-opacity="0.2949"/>
<stop offset="0.7937" stop-color="#932F59" stop-opacity="0.4165"/>
<stop offset="0.8589" stop-color="#9F2950" stop-opacity="0.506"/>
<stop offset="0.9126" stop-color="#B11F44" stop-opacity="0.5799"/>
<stop offset="0.9588" stop-color="#C71434" stop-opacity="0.6434"/>
<stop offset="1" stop-color="#E30521" stop-opacity="0.7"/>
</linearGradient>
<linearGradient id="paint29_linear_1412_1453" x1="81.2104" y1="5.06547" x2="134.205" y2="63.2705" gradientUnits="userSpaceOnUse">
<stop stop-color="#D7EDFC"/>
<stop offset="0.5534" stop-color="#ACDDF8" stop-opacity="0.01"/>
<stop offset="0.7634" stop-color="#AEDEF8" stop-opacity="0.4702"/>
<stop offset="0.8499" stop-color="#B5E0F8" stop-opacity="0.6639"/>
<stop offset="0.9137" stop-color="#C1E5F8" stop-opacity="0.8067"/>
<stop offset="0.9659" stop-color="#D3ECF8" stop-opacity="0.9237"/>
<stop offset="1" stop-color="#E3F2F8"/>
</linearGradient>
<linearGradient id="paint30_linear_1412_1453" x1="100.596" y1="14.6508" x2="111.149" y2="51.3685" gradientUnits="userSpaceOnUse">
<stop stop-color="white"/>
<stop offset="0.5534" stop-color="#FFF6F4" stop-opacity="0.01"/>
<stop offset="0.8564" stop-color="#FFF8F6" stop-opacity="0.6784"/>
<stop offset="0.9811" stop-color="#FFFDFD" stop-opacity="0.9576"/>
<stop offset="1" stop-color="white"/>
</linearGradient>
<linearGradient id="paint31_linear_1412_1453" x1="86.4329" y1="7.53176" x2="90.9616" y2="43.3532" gradientUnits="userSpaceOnUse">
<stop stop-color="#ADDCED"/>
<stop offset="0.5534" stop-color="#ADDCED" stop-opacity="0.01"/>
<stop offset="0.9349" stop-color="#ADDCED" stop-opacity="0.8543"/>
<stop offset="1" stop-color="#ADDCED"/>
</linearGradient>
<linearGradient id="paint32_linear_1412_1453" x1="110.71" y1="12.9661" x2="130.783" y2="28.9787" gradientUnits="userSpaceOnUse">
<stop stop-color="#A0D9F7"/>
<stop offset="0.5061" stop-color="#BCE3F9" stop-opacity="0.01"/>
</linearGradient>
<linearGradient id="paint33_linear_1412_1453" x1="109.359" y1="26.7334" x2="132.292" y2="59.0123" gradientUnits="userSpaceOnUse">
<stop stop-color="#ADDCED"/>
<stop offset="0.5534" stop-color="#ADDCED" stop-opacity="0.01"/>
<stop offset="0.9349" stop-color="#ADDCED" stop-opacity="0.8543"/>
<stop offset="1" stop-color="#ADDCED"/>
</linearGradient>
<linearGradient id="paint34_linear_1412_1453" x1="103.82" y1="30.1818" x2="132.794" y2="54.1006" gradientUnits="userSpaceOnUse">
<stop stop-color="white"/>
<stop offset="0.5534" stop-color="#FFF6F4" stop-opacity="0.01"/>
<stop offset="0.8564" stop-color="#FFF8F6" stop-opacity="0.6784"/>
<stop offset="0.9811" stop-color="#FFFDFD" stop-opacity="0.9576"/>
<stop offset="1" stop-color="white"/>
</linearGradient>
<linearGradient id="paint35_linear_1412_1453" x1="109.809" y1="34.246" x2="140.187" y2="54.961" gradientUnits="userSpaceOnUse">
<stop stop-color="#ADDCED"/>
<stop offset="0.5534" stop-color="#ADDCED" stop-opacity="0.01"/>
<stop offset="0.9349" stop-color="#ADDCED" stop-opacity="0.8543"/>
<stop offset="1" stop-color="#ADDCED"/>
</linearGradient>
<linearGradient id="paint36_linear_1412_1453" x1="107.372" y1="30.0896" x2="137.563" y2="50.6779" gradientUnits="userSpaceOnUse">
<stop stop-color="#ADDCED"/>
<stop offset="0.5534" stop-color="#ADDCED" stop-opacity="0.01"/>
<stop offset="0.9349" stop-color="#ADDCED" stop-opacity="0.8543"/>
<stop offset="1" stop-color="#ADDCED"/>
</linearGradient>
<linearGradient id="paint37_linear_1412_1453" x1="106.204" y1="15.6992" x2="134.869" y2="40.3864" gradientUnits="userSpaceOnUse">
<stop stop-color="#E73374"/>
<stop offset="0.5526" stop-color="#824068" stop-opacity="0.01"/>
<stop offset="0.7751" stop-color="#843F66" stop-opacity="0.4973"/>
<stop offset="0.8667" stop-color="#8B3A60" stop-opacity="0.7021"/>
<stop offset="0.9341" stop-color="#973154" stop-opacity="0.8527"/>
<stop offset="0.9895" stop-color="#A92544" stop-opacity="0.9766"/>
<stop offset="1" stop-color="#AD2240"/>
</linearGradient>
<linearGradient id="paint38_linear_1412_1453" x1="111.019" y1="20.9572" x2="127.149" y2="56.8377" gradientUnits="userSpaceOnUse">
<stop stop-color="#55B7D7"/>
<stop offset="0.5534" stop-color="#55B7D7" stop-opacity="0.01"/>
<stop offset="0.9349" stop-color="#55B7D7" stop-opacity="0.8543"/>
<stop offset="1" stop-color="#55B7D7"/>
</linearGradient>
<linearGradient id="paint39_linear_1412_1453" x1="103.929" y1="20.4773" x2="114.482" y2="57.1951" gradientUnits="userSpaceOnUse">
<stop stop-color="#ADDCED"/>
<stop offset="0.5534" stop-color="#ADDCED" stop-opacity="0.01"/>
<stop offset="0.9349" stop-color="#ADDCED" stop-opacity="0.8543"/>
<stop offset="1" stop-color="#ADDCED"/>
</linearGradient>
<linearGradient id="paint40_linear_1412_1453" x1="95.7817" y1="7.28753" x2="106.335" y2="44.0053" gradientUnits="userSpaceOnUse">
<stop stop-color="#55B7D7"/>
<stop offset="0.5534" stop-color="#55B7D7" stop-opacity="0.01"/>
<stop offset="0.9349" stop-color="#55B7D7" stop-opacity="0.8543"/>
<stop offset="1" stop-color="#55B7D7"/>
</linearGradient>
</defs>
</svg>
