<svg width="318" height="51" viewBox="0 0 318 51" fill="none" xmlns="http://www.w3.org/2000/svg">
<path d="M1.41581 29.5C1.08418 29.5 0.982135 29.3852 0.982135 29.0663V20.8776C0.982135 20.5587 1.08418 20.4439 1.41581 20.4439H1.97703C2.34692 20.4439 2.44896 20.5077 2.58927 20.7756L5.25506 25.5204L7.89535 20.7883C8.04841 20.5077 8.13769 20.4439 8.48208 20.4439H9.10707C9.4387 20.4439 9.5535 20.5587 9.5535 20.8776V29.0663C9.5535 29.3852 9.4387 29.5 9.10707 29.5H8.45657C8.13769 29.5 8.0229 29.3852 8.0229 29.0663V25.1761C8.0229 24.449 8.12494 23.6199 8.32902 22.6378H8.25249C7.92086 23.5944 7.60198 24.2322 7.19382 24.9592L5.94383 27.1786C5.81628 27.4082 5.71424 27.4847 5.44639 27.4847H5.03823C4.78313 27.4847 4.69384 27.4337 4.54078 27.1786L3.26528 24.9592C2.83161 24.2194 2.60202 23.6582 2.28315 22.6251H2.19386C2.39794 23.6327 2.47447 24.3852 2.47447 25.1888V29.0663C2.47447 29.3852 2.35968 29.5 2.0408 29.5H1.41581ZM14.0731 32.5102C12.6955 32.5102 11.8792 32.0255 11.4328 31.2729C11.2414 30.9923 11.2925 30.7883 11.5858 30.6352L12.0705 30.3673C12.3766 30.2143 12.5169 30.2525 12.7083 30.5204C12.9761 30.9413 13.3588 31.1837 14.0475 31.1837C14.9404 31.1837 15.3996 30.699 15.3996 29.7934V29.1939C15.0169 29.2832 14.5195 29.3724 13.8817 29.3724C12.0578 29.3724 11.2287 28.4158 11.2287 26.8087V23.2756C11.2287 22.9822 11.318 22.8929 11.6113 22.8929H12.3129C12.6062 22.8929 12.7083 22.9822 12.7083 23.2756V26.7577C12.7083 27.6123 13.1547 28.0204 14.0986 28.0204C14.6215 28.0204 15.0552 27.9311 15.3996 27.8418V23.2756C15.3996 22.9822 15.5016 22.8929 15.795 22.8929H16.4837C16.7899 22.8929 16.8792 22.9822 16.8792 23.2756V29.7168C16.8792 31.3877 16.0756 32.5102 14.0731 32.5102ZM20.7351 29.5C20.4418 29.5 20.2632 29.449 20.1994 29.1556L18.0949 20.8649C18.0183 20.5715 18.0566 20.4439 18.3755 20.4439H19.2683C19.6255 20.4439 19.7785 20.5077 19.8423 20.8266L20.8882 25.5842C20.9775 26.0306 21.0795 27.0765 21.0923 27.2934H21.1688C21.1816 27.0255 21.2964 26.0817 21.4239 25.5842L22.7122 20.8649C22.8015 20.546 22.9673 20.4822 23.2989 20.4822H23.9749C24.3065 20.4822 24.4851 20.546 24.5616 20.8649L25.8116 25.5842C25.9647 26.1327 26.0667 27.051 26.0922 27.2934H26.1688C26.1815 27.0893 26.2836 26.0944 26.3856 25.597L27.406 20.8266C27.4698 20.5077 27.6228 20.4439 27.98 20.4439H28.758C29.0769 20.4439 29.1152 20.5715 29.0387 20.8649L26.9341 29.1429C26.8575 29.449 26.6917 29.5 26.3984 29.5H25.6968C25.4035 29.5 25.2249 29.4362 25.1611 29.1556L23.8346 24.0919C23.7326 23.6837 23.6433 23.1353 23.6178 22.6506H23.5412C23.5157 23.1353 23.4265 23.6455 23.3117 24.0791L21.9596 29.1429C21.8831 29.449 21.73 29.5 21.4239 29.5H20.7351ZM30.8245 29.5C30.4929 29.5 30.3909 29.3852 30.3909 29.0663V20.8776C30.3909 20.5587 30.4929 20.4439 30.8245 20.4439H35.901C36.2199 20.4439 36.3347 20.5587 36.3347 20.8776V21.5026C36.3347 21.8215 36.2199 21.9363 35.901 21.9363H31.9853V24.1684H35.2888C35.6204 24.1684 35.7225 24.2832 35.7225 24.6021V25.2271C35.7225 25.5459 35.6204 25.6607 35.2888 25.6607H31.9853V28.0077H36.0413C36.3602 28.0077 36.475 28.1225 36.475 28.4413V29.0663C36.475 29.3852 36.3602 29.5 36.0413 29.5H30.8245ZM38.3978 29.5C38.0662 29.5 37.9642 29.3852 37.9642 29.0663V20.8776C37.9642 20.5587 38.0662 20.4439 38.3978 20.4439H41.9437C43.5764 20.4439 44.5457 21.2985 44.5457 22.8291C44.5457 23.7475 44.2524 24.3597 43.5891 24.7551V24.8062C44.4054 25.0995 44.8901 25.8648 44.8901 27.0128C44.8901 28.6199 43.6784 29.5 42.0203 29.5H38.3978ZM39.5585 24.1812H41.7396C42.5049 24.1812 42.9131 23.824 42.9131 23.0587C42.9131 22.3062 42.5049 21.9363 41.7396 21.9363H39.5585V24.1812ZM39.5585 28.0077H41.9692C42.7728 28.0077 43.1937 27.6123 43.1937 26.8342C43.1937 26.0561 42.7728 25.6352 41.9692 25.6352H39.5585V28.0077ZM49.559 29.6913C47.5819 29.6913 46.5743 28.9388 46.0513 27.5612C45.9493 27.2424 46.0131 27.1021 46.3319 27L47.0207 26.7449C47.3268 26.6429 47.4416 26.7067 47.5692 27.0128C47.9008 27.7653 48.5641 28.199 49.559 28.199C50.8727 28.199 51.587 27.7908 51.587 26.8725C51.587 25.9924 50.6559 25.801 49.5717 25.6863C48.0156 25.5204 46.1151 25.2781 46.1151 23.046C46.1151 21.4261 47.3013 20.2526 49.61 20.2526C51.4212 20.2526 52.3523 20.9159 52.9518 22.1786C53.1048 22.472 53.0283 22.6251 52.7222 22.7654L52.0079 23.0715C51.7273 23.199 51.6125 23.148 51.4595 22.8546C51.1151 22.1786 50.6176 21.7832 49.61 21.7832C48.36 21.7832 47.7477 22.1659 47.7477 22.9567C47.7477 23.875 48.7937 24.0409 49.9544 24.1684C51.4595 24.3342 53.1941 24.7041 53.1941 26.8342C53.1941 28.5306 51.9059 29.6913 49.559 29.6913ZM55.1512 29.5C54.8196 29.5 54.7176 29.3852 54.7176 29.0663V20.8776C54.7176 20.5587 54.8196 20.4439 55.1512 20.4439H55.8783C56.2099 20.4439 56.3119 20.5587 56.3119 20.8776V29.0663C56.3119 29.3852 56.2099 29.5 55.8783 29.5H55.1512ZM60.6524 29.5C60.3335 29.5 60.2187 29.3852 60.2187 29.0663V21.9363H57.9994C57.6805 21.9363 57.5657 21.8215 57.5657 21.5026V20.8776C57.5657 20.5587 57.6805 20.4439 57.9994 20.4439H64.0325C64.3641 20.4439 64.4662 20.5587 64.4662 20.8776V21.5026C64.4662 21.8215 64.3641 21.9363 64.0325 21.9363H61.8131V29.0663C61.8131 29.3852 61.7111 29.5 61.3795 29.5H60.6524ZM66.1499 29.5C65.8183 29.5 65.7163 29.3852 65.7163 29.0663V20.8776C65.7163 20.5587 65.8183 20.4439 66.1499 20.4439H71.2264C71.5453 20.4439 71.6601 20.5587 71.6601 20.8776V21.5026C71.6601 21.8215 71.5453 21.9363 71.2264 21.9363H67.3106V24.1684H70.6142C70.9458 24.1684 71.0478 24.2832 71.0478 24.6021V25.2271C71.0478 25.5459 70.9458 25.6607 70.6142 25.6607H67.3106V28.0077H71.3667C71.6856 28.0077 71.8004 28.1225 71.8004 28.4413V29.0663C71.8004 29.3852 71.6856 29.5 71.3667 29.5H66.1499ZM76.5471 26.7959C76.2155 26.7959 76.1135 26.6811 76.1135 26.3495V25.801C76.1135 25.4694 76.2155 25.3674 76.5471 25.3674H81.4451C81.7639 25.3674 81.8787 25.4694 81.8787 25.801V26.3495C81.8787 26.6811 81.7639 26.7959 81.4451 26.7959H76.5471ZM89.2694 29.6913C88.249 29.6913 87.4071 29.4745 86.9607 29.2832C86.5525 29.0918 86.5015 28.9898 86.5015 28.5816V20.4567C86.5015 20.1633 86.5908 20.0613 86.8842 20.0613H87.5857C87.8791 20.0613 87.9811 20.1633 87.9811 20.4567V22.9184C88.351 22.8291 88.874 22.7016 89.4989 22.7016C91.3229 22.7016 92.152 23.6455 92.152 25.2653V26.9873C92.152 28.7347 91.2209 29.6913 89.2694 29.6913ZM89.1673 28.3393C90.2005 28.3393 90.6724 27.8929 90.6724 26.949V25.3036C90.6724 24.5 90.1877 24.0536 89.2949 24.0536C88.7592 24.0536 88.2872 24.1812 87.9811 24.2832V28.0459C87.9811 28.1097 87.9811 28.148 88.0704 28.1862C88.3765 28.2883 88.7464 28.3393 89.1673 28.3393ZM96.3951 32.5102C95.0176 32.5102 94.2013 32.0255 93.7548 31.2729C93.5635 30.9923 93.6145 30.7883 93.9079 30.6352L94.3926 30.3673C94.6987 30.2143 94.839 30.2525 95.0303 30.5204C95.2982 30.9413 95.6808 31.1837 96.3696 31.1837C97.2625 31.1837 97.7216 30.699 97.7216 29.7934V29.1939C97.339 29.2832 96.8415 29.3724 96.2038 29.3724C94.3798 29.3724 93.5508 28.4158 93.5508 26.8087V23.2756C93.5508 22.9822 93.64 22.8929 93.9334 22.8929H94.6349C94.9283 22.8929 95.0303 22.9822 95.0303 23.2756V26.7577C95.0303 27.6123 95.4768 28.0204 96.4206 28.0204C96.9436 28.0204 97.3773 27.9311 97.7216 27.8418V23.2756C97.7216 22.9822 97.8237 22.8929 98.117 22.8929H98.8058C99.1119 22.8929 99.2012 22.9822 99.2012 23.2756V29.7168C99.2012 31.3877 98.3977 32.5102 96.3951 32.5102Z" fill="#003A5C"/>
<path d="M163.069 48.1425C161.653 48.1425 160.893 47.5915 160.485 46.518C160.418 46.3375 160.456 46.2615 160.637 46.195L161.026 46.0525C161.197 45.9955 161.273 46.024 161.349 46.2045C161.653 46.917 162.214 47.2875 163.069 47.2875C164.199 47.2875 164.788 46.9075 164.788 46.1095C164.788 45.283 163.981 45.1405 163.097 45.036C161.929 44.903 160.551 44.713 160.551 43.1265C160.551 41.939 161.444 41.1125 163.078 41.1125C164.399 41.1125 165.102 41.597 165.567 42.566C165.653 42.737 165.615 42.8225 165.434 42.8985L165.035 43.079C164.874 43.1455 164.807 43.1265 164.722 42.9555C164.399 42.3285 163.943 41.9865 163.078 41.9865C162.043 41.9865 161.492 42.3665 161.492 43.0695C161.492 43.915 162.375 44.0575 163.316 44.162C164.446 44.295 165.71 44.542 165.71 46.081C165.71 47.335 164.788 48.1425 163.069 48.1425ZM168.697 48.1425C167.376 48.1425 166.768 47.4395 166.768 46.2615V43.326C166.768 43.155 166.825 43.098 166.996 43.098H167.395C167.566 43.098 167.614 43.155 167.614 43.326V46.233C167.614 46.9835 167.994 47.3635 168.82 47.3635C169.276 47.3635 169.618 47.297 169.894 47.202C170.008 47.1545 170.027 47.088 170.027 46.9835V43.326C170.027 43.155 170.084 43.098 170.255 43.098H170.654C170.815 43.098 170.872 43.155 170.872 43.326V47.2875C170.872 47.582 170.806 47.696 170.511 47.8195C170.141 47.962 169.58 48.1425 168.697 48.1425ZM174.114 48.1425C172.718 48.1425 172.053 47.411 172.053 46.233V44.865C172.053 43.687 172.737 42.9555 174.171 42.9555C175.321 42.9555 175.938 43.478 176.176 44.2285C176.233 44.409 176.185 44.4945 176.024 44.5515L175.701 44.656C175.52 44.7225 175.444 44.675 175.378 44.504C175.197 43.9815 174.846 43.706 174.143 43.706C173.307 43.706 172.898 44.124 172.898 44.827V46.2615C172.898 46.974 173.326 47.392 174.143 47.392C174.827 47.392 175.216 47.107 175.387 46.5655C175.454 46.385 175.53 46.3565 175.71 46.4135L176.043 46.5085C176.204 46.575 176.271 46.651 176.195 46.8315C175.9 47.677 175.254 48.1425 174.114 48.1425ZM179.169 48.1425C177.773 48.1425 177.108 47.411 177.108 46.233V44.865C177.108 43.687 177.792 42.9555 179.226 42.9555C180.376 42.9555 180.993 43.478 181.231 44.2285C181.288 44.409 181.24 44.4945 181.079 44.5515L180.756 44.656C180.575 44.7225 180.499 44.675 180.433 44.504C180.252 43.9815 179.901 43.706 179.198 43.706C178.362 43.706 177.953 44.124 177.953 44.827V46.2615C177.953 46.974 178.381 47.392 179.198 47.392C179.882 47.392 180.271 47.107 180.442 46.5655C180.509 46.385 180.585 46.3565 180.765 46.4135L181.098 46.5085C181.259 46.575 181.326 46.651 181.25 46.8315C180.955 47.677 180.309 48.1425 179.169 48.1425ZM184.263 48.1425C182.781 48.1425 182.144 47.3255 182.144 46.1665V44.9885C182.144 43.706 182.895 42.9555 184.291 42.9555C185.754 42.9555 186.438 43.801 186.438 44.922V45.473C186.438 45.6725 186.353 45.8055 186.096 45.8055H182.99V46.2615C182.99 46.9835 183.436 47.411 184.263 47.411C184.947 47.411 185.355 47.145 185.593 46.746C185.707 46.594 185.792 46.5655 185.963 46.6605L186.22 46.7935C186.381 46.879 186.41 47.0025 186.305 47.164C185.963 47.7435 185.355 48.1425 184.263 48.1425ZM182.99 45.15H185.593V44.8745C185.593 44.124 185.156 43.6775 184.291 43.6775C183.436 43.6775 182.99 44.124 182.99 44.8745V45.15ZM189.371 48.1425C188.297 48.1425 187.604 47.753 187.3 46.974C187.243 46.822 187.281 46.727 187.442 46.67L187.775 46.556C187.917 46.5085 187.993 46.5275 188.069 46.6985C188.259 47.202 188.687 47.392 189.352 47.392C190.159 47.392 190.549 47.1355 190.549 46.6605C190.549 46.0905 190.074 45.986 189.276 45.91C188.326 45.815 187.357 45.6535 187.357 44.428C187.357 43.5445 187.993 42.9555 189.266 42.9555C190.359 42.9555 190.957 43.364 191.252 43.9815C191.337 44.1525 191.29 44.2475 191.128 44.314L190.805 44.447C190.644 44.5135 190.596 44.4945 190.492 44.3425C190.321 43.972 190.017 43.7155 189.285 43.7155C188.544 43.7155 188.193 43.953 188.193 44.409C188.193 45.017 188.696 45.093 189.485 45.169C190.568 45.264 191.375 45.5015 191.375 46.6225C191.375 47.525 190.701 48.1425 189.371 48.1425ZM194.269 48.1425C193.195 48.1425 192.502 47.753 192.198 46.974C192.141 46.822 192.179 46.727 192.34 46.67L192.673 46.556C192.815 46.5085 192.891 46.5275 192.967 46.6985C193.157 47.202 193.585 47.392 194.25 47.392C195.057 47.392 195.447 47.1355 195.447 46.6605C195.447 46.0905 194.972 45.986 194.174 45.91C193.224 45.815 192.255 45.6535 192.255 44.428C192.255 43.5445 192.891 42.9555 194.164 42.9555C195.257 42.9555 195.855 43.364 196.15 43.9815C196.235 44.1525 196.188 44.2475 196.026 44.314L195.703 44.447C195.542 44.5135 195.494 44.4945 195.39 44.3425C195.219 43.972 194.915 43.7155 194.183 43.7155C193.442 43.7155 193.091 43.953 193.091 44.409C193.091 45.017 193.594 45.093 194.383 45.169C195.466 45.264 196.273 45.5015 196.273 46.6225C196.273 47.525 195.599 48.1425 194.269 48.1425ZM200.196 48C200.025 48 199.968 47.943 199.968 47.772V43.877H199.246C199.075 43.877 199.018 43.82 199.018 43.6585V43.326C199.018 43.155 199.075 43.098 199.246 43.098H199.968V42.927C199.968 41.5875 200.557 40.989 201.963 40.97H202.039C202.219 40.97 202.276 41.027 202.276 41.198V41.5305C202.276 41.7015 202.219 41.7585 202.039 41.7585C201.117 41.7585 200.813 42.0435 200.813 42.927V43.098H202.058C202.229 43.098 202.286 43.155 202.286 43.326V43.6585C202.286 43.82 202.229 43.877 202.058 43.877H200.813V47.772C200.813 47.943 200.756 48 200.576 48H200.196ZM204.975 48.1425C203.636 48.1425 202.847 47.449 202.847 46.328V44.77C202.847 43.649 203.636 42.9555 204.975 42.9555C206.343 42.9555 207.113 43.649 207.113 44.77V46.328C207.113 47.449 206.343 48.1425 204.975 48.1425ZM204.975 47.373C205.792 47.373 206.267 46.9835 206.267 46.328V44.77C206.267 44.105 205.792 43.725 204.975 43.725C204.187 43.725 203.693 44.105 203.693 44.77V46.328C203.693 46.9835 204.187 47.373 204.975 47.373ZM208.514 48C208.343 48 208.286 47.943 208.286 47.772V43.915C208.286 43.6205 208.353 43.5065 208.647 43.3925C208.999 43.25 209.55 43.098 210.386 43.098H210.69C210.861 43.098 210.918 43.155 210.918 43.326V43.6395C210.918 43.8105 210.861 43.8675 210.69 43.8675H210.367C209.901 43.8675 209.54 43.934 209.265 44.029C209.141 44.0765 209.132 44.143 209.132 44.219V47.772C209.132 47.943 209.075 48 208.904 48H208.514ZM216.236 48.1425C214.82 48.1425 214.06 47.5915 213.652 46.518C213.585 46.3375 213.623 46.2615 213.804 46.195L214.193 46.0525C214.364 45.9955 214.44 46.024 214.516 46.2045C214.82 46.917 215.381 47.2875 216.236 47.2875C217.366 47.2875 217.955 46.9075 217.955 46.1095C217.955 45.283 217.148 45.1405 216.264 45.036C215.096 44.903 213.718 44.713 213.718 43.1265C213.718 41.939 214.611 41.1125 216.245 41.1125C217.566 41.1125 218.269 41.597 218.734 42.566C218.82 42.737 218.782 42.8225 218.601 42.8985L218.202 43.079C218.041 43.1455 217.974 43.1265 217.889 42.9555C217.566 42.3285 217.11 41.9865 216.245 41.9865C215.21 41.9865 214.659 42.3665 214.659 43.0695C214.659 43.915 215.542 44.0575 216.483 44.162C217.613 44.295 218.877 44.542 218.877 46.081C218.877 47.335 217.955 48.1425 216.236 48.1425ZM220.362 48C220.172 48 220.106 47.9335 220.106 47.753V41.502C220.106 41.3215 220.172 41.255 220.362 41.255H220.685C220.894 41.255 220.951 41.293 221.037 41.445L223.231 45.3305L225.407 41.4545C225.492 41.293 225.549 41.255 225.739 41.255H226.1C226.29 41.255 226.347 41.3215 226.347 41.502V47.753C226.347 47.9335 226.29 48 226.1 48H225.73C225.54 48 225.473 47.9335 225.473 47.753L225.483 44.314C225.483 43.7915 225.53 43.2025 225.654 42.5375H225.597C225.359 43.1645 225.131 43.6205 224.846 44.124L223.63 46.2805C223.554 46.4135 223.497 46.461 223.345 46.461H223.108C222.946 46.461 222.899 46.423 222.813 46.2805L221.578 44.1145C221.284 43.611 221.094 43.193 220.866 42.528H220.818C220.923 43.212 220.961 43.7535 220.961 44.314V47.753C220.961 47.9335 220.904 48 220.714 48H220.362ZM228.173 48C227.983 48 227.916 47.9335 227.916 47.753V41.502C227.916 41.3215 227.983 41.255 228.173 41.255H231.992C232.172 41.255 232.239 41.3215 232.239 41.502V41.8535C232.239 42.0435 232.172 42.11 231.992 42.11H228.838V44.1525H231.545C231.735 44.1525 231.792 44.219 231.792 44.409V44.7605C231.792 44.9505 231.735 45.0075 231.545 45.0075H228.838V47.145H232.096C232.286 47.145 232.353 47.2115 232.353 47.4015V47.753C232.353 47.9335 232.286 48 232.096 48H228.173ZM235.229 48.1425C234.156 48.1425 233.462 47.753 233.158 46.974C233.101 46.822 233.139 46.727 233.301 46.67L233.633 46.556C233.776 46.5085 233.852 46.5275 233.928 46.6985C234.118 47.202 234.545 47.392 235.21 47.392C236.018 47.392 236.407 47.1355 236.407 46.6605C236.407 46.0905 235.932 45.986 235.134 45.91C234.184 45.815 233.215 45.6535 233.215 44.428C233.215 43.5445 233.852 42.9555 235.125 42.9555C236.217 42.9555 236.816 43.364 237.11 43.9815C237.196 44.1525 237.148 44.2475 236.987 44.314L236.664 44.447C236.502 44.5135 236.455 44.4945 236.35 44.3425C236.179 43.972 235.875 43.7155 235.144 43.7155C234.403 43.7155 234.051 43.953 234.051 44.409C234.051 45.017 234.555 45.093 235.343 45.169C236.426 45.264 237.234 45.5015 237.234 46.6225C237.234 47.525 236.559 48.1425 235.229 48.1425ZM241.02 42.091C240.669 42.091 240.574 42.015 240.574 41.654V41.5875C240.574 41.236 240.669 41.1505 241.02 41.1505H241.087C241.429 41.1505 241.533 41.236 241.533 41.5875V41.654C241.533 42.0055 241.429 42.091 241.087 42.091H241.02ZM240.859 48C240.688 48 240.631 47.943 240.631 47.772V43.326C240.631 43.155 240.688 43.098 240.859 43.098H241.248C241.419 43.098 241.476 43.155 241.476 43.326V47.772C241.476 47.943 241.419 48 241.248 48H240.859ZM243.037 48C242.866 48 242.809 47.943 242.809 47.772V43.8105C242.809 43.516 242.876 43.402 243.17 43.2785C243.55 43.1265 244.101 42.9555 244.985 42.9555C246.315 42.9555 246.913 43.6585 246.913 44.8365V47.772C246.913 47.943 246.856 48 246.685 48H246.296C246.125 48 246.068 47.943 246.068 47.772V44.865C246.068 44.1145 245.688 43.725 244.871 43.725C244.405 43.725 244.035 43.8105 243.769 43.9055C243.674 43.9435 243.655 44.0005 243.655 44.0765V47.772C243.655 47.943 243.598 48 243.427 48H243.037ZM252.915 48C251.376 48 250.835 47.5725 250.835 45.986V43.877H250.046C249.875 43.877 249.818 43.82 249.818 43.6585V43.326C249.818 43.155 249.875 43.098 250.046 43.098H250.835V42.186C250.835 42.015 250.892 41.958 251.063 41.958H251.452C251.623 41.958 251.68 42.015 251.68 42.186V43.098H252.925C253.096 43.098 253.153 43.155 253.153 43.326V43.6585C253.153 43.82 253.096 43.877 252.925 43.877H251.68V45.9575C251.68 47.0025 251.984 47.1925 252.915 47.1925C253.086 47.1925 253.143 47.2495 253.143 47.43V47.7625C253.143 47.9335 253.086 48 252.915 48ZM254.27 48C254.099 48 254.042 47.943 254.042 47.772V41.198C254.042 41.027 254.099 40.97 254.27 40.97H254.669C254.84 40.97 254.887 41.027 254.887 41.198V43.1645C255.087 43.0695 255.609 42.9555 256.227 42.9555C257.547 42.9555 258.146 43.649 258.146 44.8365V47.772C258.146 47.943 258.098 48 257.927 48H257.528C257.357 48 257.3 47.943 257.3 47.772V44.865C257.3 44.1335 256.911 43.725 256.103 43.725C255.571 43.725 255.096 43.8485 254.887 43.9435V47.772C254.887 47.943 254.84 48 254.669 48H254.27ZM261.397 48.1425C259.915 48.1425 259.279 47.3255 259.279 46.1665V44.9885C259.279 43.706 260.029 42.9555 261.426 42.9555C262.889 42.9555 263.573 43.801 263.573 44.922V45.473C263.573 45.6725 263.487 45.8055 263.231 45.8055H260.124V46.2615C260.124 46.9835 260.571 47.411 261.397 47.411C262.081 47.411 262.49 47.145 262.727 46.746C262.841 46.594 262.927 46.5655 263.098 46.6605L263.354 46.7935C263.516 46.879 263.544 47.0025 263.44 47.164C263.098 47.7435 262.49 48.1425 261.397 48.1425ZM260.124 45.15H262.727V44.8745C262.727 44.124 262.29 43.6775 261.426 43.6775C260.571 43.6775 260.124 44.124 260.124 44.8745V45.15ZM268.881 48.1425C267.494 48.1425 266.857 47.449 266.857 46.233V44.8935C266.857 43.6585 267.484 42.9555 268.776 42.9555C269.375 42.9555 269.859 43.098 270.116 43.1645V41.198C270.116 41.027 270.173 40.97 270.334 40.97H270.733C270.904 40.97 270.961 41.027 270.961 41.198V47.3255C270.961 47.639 270.885 47.7245 270.581 47.848C270.211 47.9905 269.688 48.1425 268.881 48.1425ZM268.957 47.3635C269.375 47.3635 269.726 47.297 269.983 47.221C270.106 47.164 270.116 47.145 270.116 47.031V43.9435C269.897 43.877 269.47 43.725 268.938 43.725C268.083 43.725 267.703 44.1335 267.703 44.922V46.2045C267.703 46.9645 268.121 47.3635 268.957 47.3635ZM272.676 42.091C272.325 42.091 272.23 42.015 272.23 41.654V41.5875C272.23 41.236 272.325 41.1505 272.676 41.1505H272.743C273.085 41.1505 273.189 41.236 273.189 41.5875V41.654C273.189 42.0055 273.085 42.091 272.743 42.091H272.676ZM272.515 48C272.344 48 272.287 47.943 272.287 47.772V43.326C272.287 43.155 272.344 43.098 272.515 43.098H272.904C273.075 43.098 273.132 43.155 273.132 43.326V47.772C273.132 47.943 273.075 48 272.904 48H272.515ZM276.385 50.299C275.359 50.299 274.779 49.9095 274.447 49.3205C274.342 49.159 274.371 49.045 274.542 48.9595L274.817 48.8075C274.998 48.7125 275.074 48.7505 275.188 48.9025C275.416 49.2825 275.729 49.539 276.366 49.539C277.192 49.539 277.582 49.0735 277.582 48.2755V47.734C277.316 47.8195 276.831 47.9715 276.242 47.9715C274.922 47.9715 274.323 47.2685 274.323 46.0905V44.922C274.323 43.649 274.998 42.9555 276.413 42.9555C277.145 42.9555 277.734 43.098 278.076 43.25C278.38 43.383 278.427 43.459 278.427 43.7725V48.2375C278.427 49.4725 277.848 50.299 276.385 50.299ZM276.356 47.202C276.917 47.202 277.354 47.0595 277.582 46.9835V44.067C277.582 43.953 277.563 43.9245 277.449 43.877C277.211 43.801 276.869 43.725 276.47 43.725C275.587 43.725 275.169 44.1335 275.169 44.9505V46.0715C275.169 46.7935 275.568 47.202 276.356 47.202ZM280.143 42.091C279.791 42.091 279.696 42.015 279.696 41.654V41.5875C279.696 41.236 279.791 41.1505 280.143 41.1505H280.209C280.551 41.1505 280.656 41.236 280.656 41.5875V41.654C280.656 42.0055 280.551 42.091 280.209 42.091H280.143ZM279.981 48C279.81 48 279.753 47.943 279.753 47.772V43.326C279.753 43.155 279.81 43.098 279.981 43.098H280.371C280.542 43.098 280.599 43.155 280.599 43.326V47.772C280.599 47.943 280.542 48 280.371 48H279.981ZM284.516 48C282.977 48 282.436 47.5725 282.436 45.986V43.877H281.647C281.476 43.877 281.419 43.82 281.419 43.6585V43.326C281.419 43.155 281.476 43.098 281.647 43.098H282.436V42.186C282.436 42.015 282.493 41.958 282.664 41.958H283.053C283.224 41.958 283.281 42.015 283.281 42.186V43.098H284.526C284.697 43.098 284.754 43.155 284.754 43.326V43.6585C284.754 43.82 284.697 43.877 284.526 43.877H283.281V45.9575C283.281 47.0025 283.585 47.1925 284.516 47.1925C284.687 47.1925 284.744 47.2495 284.744 47.43V47.7625C284.744 47.9335 284.687 48 284.516 48ZM287.457 48.1425C285.795 48.1425 285.377 47.601 285.377 46.632C285.377 45.5205 285.994 45.15 287.495 45.15C287.97 45.15 288.417 45.207 288.588 45.2165V44.846C288.588 44.1715 288.35 43.706 287.457 43.706C286.878 43.706 286.498 43.9055 286.27 44.295C286.175 44.4375 286.127 44.466 285.966 44.3995L285.662 44.276C285.5 44.2095 285.453 44.124 285.538 43.953C285.871 43.326 286.498 42.9555 287.476 42.9555C289.006 42.9555 289.433 43.801 289.433 44.8745V47.354C289.433 47.6865 289.357 47.7815 289.091 47.8955C288.74 48.0475 288.198 48.1425 287.457 48.1425ZM287.381 47.4395C287.894 47.4395 288.217 47.392 288.436 47.316C288.559 47.278 288.588 47.24 288.588 47.107V45.891C288.398 45.872 287.875 45.8245 287.4 45.8245C286.507 45.8245 286.232 46.0905 286.232 46.6225C286.232 47.126 286.431 47.4395 287.381 47.4395ZM290.955 48C290.784 48 290.727 47.943 290.727 47.772V41.198C290.727 41.027 290.784 40.97 290.955 40.97H291.354C291.515 40.97 291.572 41.027 291.572 41.198V47.772C291.572 47.943 291.515 48 291.354 48H290.955ZM296.348 48.019C296.186 48.019 296.091 47.981 296.044 47.8195L294.704 43.364C294.647 43.155 294.676 43.098 294.894 43.098H295.179C295.445 43.098 295.54 43.136 295.578 43.326L296.3 45.91C296.386 46.2805 296.452 46.8695 296.481 46.974H296.519C296.557 46.8695 296.623 46.29 296.737 45.9005L297.526 43.402C297.583 43.212 297.63 43.174 297.896 43.174H298.067C298.333 43.174 298.381 43.212 298.438 43.3925L299.226 45.8815C299.359 46.3185 299.416 46.86 299.454 46.974H299.492C299.521 46.86 299.568 46.366 299.682 45.891L300.395 43.326C300.442 43.136 300.528 43.098 300.794 43.098H301.041C301.259 43.098 301.297 43.155 301.231 43.364L299.891 47.8195C299.844 47.9715 299.749 48.019 299.578 48.019H299.321C299.15 48.019 299.055 47.9715 299.008 47.8195L298.162 45.0075C298.048 44.618 298.001 44.2095 297.982 44.1335H297.944C297.915 44.2095 297.868 44.618 297.754 45.0075L296.908 47.8195C296.861 47.981 296.775 48.019 296.604 48.019H296.348ZM304.092 48.1425C302.752 48.1425 301.964 47.449 301.964 46.328V44.77C301.964 43.649 302.752 42.9555 304.092 42.9555C305.46 42.9555 306.229 43.649 306.229 44.77V46.328C306.229 47.449 305.46 48.1425 304.092 48.1425ZM304.092 47.373C304.909 47.373 305.384 46.9835 305.384 46.328V44.77C305.384 44.105 304.909 43.725 304.092 43.725C303.303 43.725 302.809 44.105 302.809 44.77V46.328C302.809 46.9835 303.303 47.373 304.092 47.373ZM307.631 48C307.46 48 307.403 47.943 307.403 47.772V43.915C307.403 43.6205 307.469 43.5065 307.764 43.3925C308.115 43.25 308.666 43.098 309.502 43.098H309.806C309.977 43.098 310.034 43.155 310.034 43.326V43.6395C310.034 43.8105 309.977 43.8675 309.806 43.8675H309.483C309.018 43.8675 308.657 43.934 308.381 44.029C308.258 44.0765 308.248 44.143 308.248 44.219V47.772C308.248 47.943 308.191 48 308.02 48H307.631ZM311.128 48C310.957 48 310.9 47.943 310.9 47.772V41.198C310.9 41.027 310.957 40.97 311.128 40.97H311.527C311.689 40.97 311.746 41.027 311.746 41.198V47.772C311.746 47.943 311.689 48 311.527 48H311.128ZM315.006 48.1425C313.619 48.1425 312.983 47.449 312.983 46.233V44.8935C312.983 43.6585 313.61 42.9555 314.902 42.9555C315.5 42.9555 315.985 43.098 316.241 43.1645V41.198C316.241 41.027 316.298 40.97 316.46 40.97H316.859C317.03 40.97 317.087 41.027 317.087 41.198V47.3255C317.087 47.639 317.011 47.7245 316.707 47.848C316.336 47.9905 315.814 48.1425 315.006 48.1425ZM315.082 47.3635C315.5 47.3635 315.852 47.297 316.108 47.221C316.232 47.164 316.241 47.145 316.241 47.031V43.9435C316.023 43.877 315.595 43.725 315.063 43.725C314.208 43.725 313.828 44.1335 313.828 44.922V46.2045C313.828 46.9645 314.246 47.3635 315.082 47.3635Z" fill="#003A5C"/>
<path fill-rule="evenodd" clip-rule="evenodd" d="M163.217 31.8671H161.878C161.253 31.8671 161.074 31.6794 161.074 31.0225V12.9099C161.074 12.2529 161.253 12.0652 161.878 12.0652H163.217C163.842 12.0652 164.021 12.2529 164.021 12.9099V31.0225C164.021 31.6794 163.842 31.8671 163.217 31.8671Z" fill="#003B5C"/>
<path fill-rule="evenodd" clip-rule="evenodd" d="M178.755 23.0454C178.755 19.7607 176.79 17.6961 172.95 17.6961C169.2 17.6961 167.146 19.7607 167.146 23.0454V26.7993C167.146 30.084 169.2 32.1486 172.95 32.1486C176.701 32.1486 178.755 30.084 178.755 26.7993V23.0454ZM170.093 23.0454C170.093 21.45 171.075 20.5115 172.95 20.5115C174.826 20.5115 175.897 21.45 175.808 23.0454V26.7993C175.808 28.3947 174.826 29.3332 172.95 29.3332C171.165 29.3332 170.093 28.3947 170.093 26.7993V23.0454Z" fill="#003B5C"/>
<path fill-rule="evenodd" clip-rule="evenodd" d="M187.327 17.6961C190.363 17.6961 192.149 19.1977 192.774 21.1685C192.953 21.8254 192.774 22.2008 192.238 22.3885L191.167 22.7639C190.542 23.0454 190.274 22.8577 190.006 22.2008C189.56 21.0746 188.756 20.4177 187.238 20.4177C185.363 20.4177 184.47 21.3562 184.47 23.0454V26.7993C184.47 28.4886 185.452 29.427 187.238 29.427C188.756 29.427 189.56 28.7701 190.006 27.5501C190.274 26.8932 190.452 26.7993 191.167 26.987L192.328 27.3624C192.953 27.6439 193.131 27.9255 192.863 28.5824C192.06 30.8348 190.274 32.1486 187.238 32.1486C183.398 32.1486 181.612 30.084 181.612 26.7055V23.1393C181.434 19.8546 183.309 17.6961 187.327 17.6961Z" fill="#003B5C"/>
<path fill-rule="evenodd" clip-rule="evenodd" d="M205.99 23.1393C205.99 20.0423 204.74 17.6961 200.543 17.6961C197.864 17.6961 196.167 18.8223 195.364 20.3238C195.096 20.9808 195.185 21.2623 195.81 21.5438L196.793 22.0131C197.328 22.2946 197.507 22.2008 197.864 21.6377C198.4 20.7931 199.293 20.3238 200.543 20.3238C202.418 20.3238 203.043 21.2623 203.043 22.9516V23.7962C202.863 23.7962 202.597 23.781 202.278 23.7628C201.806 23.7358 201.219 23.7023 200.632 23.7023C196.614 23.7023 194.917 24.7347 194.917 27.8316C194.917 30.5532 196.078 32.1486 200.543 32.1486C202.597 32.1486 204.115 31.8671 205.097 31.3978C205.811 31.1163 205.99 30.8348 205.99 29.8963V23.1393ZM197.864 27.9255C197.864 26.7993 198.311 26.1424 200.275 26.1424C200.84 26.1424 201.494 26.1734 202.049 26.1998C202.459 26.2193 202.816 26.2362 203.043 26.2362V29.0517C203.043 29.192 203.043 29.2624 203.01 29.3093C202.977 29.3565 202.91 29.38 202.775 29.427C202.731 29.4363 202.685 29.4465 202.635 29.4573C202.182 29.5561 201.482 29.7086 200.275 29.7086C198.311 29.7086 197.864 28.9578 197.864 27.9255Z" fill="#003B5C"/>
<path fill-rule="evenodd" clip-rule="evenodd" d="M211.437 31.8671H210.098C209.473 31.8671 209.294 31.6794 209.294 31.0225V12.9099C209.294 12.2529 209.473 12.0652 210.098 12.0652H211.437C212.062 12.0652 212.241 12.2529 212.241 12.9099V31.0225C212.241 31.6794 212.062 31.8671 211.437 31.8671Z" fill="#003B5C"/>
<path fill-rule="evenodd" clip-rule="evenodd" d="M220.545 17.6961C223.492 17.6961 225.189 18.8223 225.992 20.5115C226.26 21.1685 226.082 21.45 225.546 21.7315L224.385 22.2008C223.76 22.4823 223.671 22.3885 223.313 21.8254C222.867 20.9808 222.242 20.4177 220.545 20.4177C218.849 20.4177 218.134 20.8869 218.134 21.9192C218.134 23.1393 219.117 23.327 221.081 23.5146C224.117 23.7962 226.26 24.547 226.26 27.6439C226.26 30.2717 224.385 32.1486 220.724 32.1486C217.777 32.1486 215.902 31.0225 215.098 28.9578C214.83 28.3947 215.009 28.0193 215.545 27.8316L216.706 27.4562C217.241 27.2685 217.509 27.3624 217.777 27.9255C218.224 28.9578 219.117 29.427 220.635 29.427C222.421 29.427 223.313 28.864 223.313 27.8316C223.313 26.6116 222.331 26.3301 220.277 26.1424C217.777 25.8608 215.098 25.4854 215.098 22.0131C215.277 19.4792 217.063 17.6961 220.545 17.6961Z" fill="#003B5C"/>
<path fill-rule="evenodd" clip-rule="evenodd" d="M240.458 23.1393C240.458 20.1361 238.583 17.6961 234.565 17.6961C230.725 17.6961 228.671 19.7607 228.761 23.2331V26.3301C228.761 29.6147 230.368 32.0548 234.565 32.0548C237.422 32.0548 239.119 31.1163 240.012 29.5209C240.369 28.9578 240.369 28.4886 239.744 28.207L238.851 27.7378C238.226 27.3624 237.958 27.4562 237.512 28.0193C236.976 28.864 235.994 29.427 234.476 29.427C232.69 29.427 231.618 28.5824 231.618 26.7993V25.8608H239.298C240.191 25.8608 240.458 25.3916 240.458 24.7347V23.1393ZM231.618 22.9516C231.618 21.3562 232.69 20.3238 234.565 20.3238C236.44 20.3238 237.512 21.3562 237.512 23.0454V23.6085H231.618V22.9516Z" fill="#003B5C"/>
<path fill-rule="evenodd" clip-rule="evenodd" d="M253.764 23.1393C253.764 20.0423 252.513 17.6961 248.316 17.6961C245.638 17.6961 243.941 18.8223 243.137 20.3238C242.869 20.9808 242.959 21.2623 243.584 21.5438L244.566 22.0131C245.102 22.2946 245.28 22.2008 245.638 21.6377C246.173 20.7931 247.066 20.3238 248.316 20.3238C250.192 20.3238 250.817 21.2623 250.817 22.9516V23.7962C250.637 23.7962 250.37 23.781 250.052 23.7628C249.579 23.7358 248.992 23.7023 248.406 23.7023C244.387 23.7023 242.691 24.7347 242.691 27.8316C242.691 30.5532 243.852 32.1486 248.316 32.1486C250.37 32.1486 251.888 31.8671 252.871 31.3978C253.585 31.1163 253.764 30.8348 253.764 29.8963V23.1393ZM245.638 27.9255C245.638 26.7993 246.084 26.1424 248.049 26.1424C248.614 26.1424 249.267 26.1734 249.822 26.1998C250.233 26.2193 250.589 26.2362 250.817 26.2362V29.0517C250.817 29.192 250.817 29.2624 250.784 29.3093C250.75 29.3565 250.683 29.38 250.549 29.427C250.505 29.4363 250.458 29.4465 250.409 29.4573C249.955 29.5561 249.256 29.7086 248.049 29.7086C246.084 29.7086 245.638 28.9578 245.638 27.9255Z" fill="#003B5C"/>
<path fill-rule="evenodd" clip-rule="evenodd" d="M263.497 17.6961C264.122 17.6961 264.3 17.8838 264.3 18.5407V19.7607C264.3 20.4177 264.122 20.6054 263.497 20.6054H262.604C261.622 20.6054 260.818 20.6992 260.193 20.8869C260.014 20.9808 259.925 21.0746 259.925 21.1685V30.9286C259.925 31.5855 259.746 31.7732 259.121 31.7732H257.782C257.157 31.7732 256.978 31.5855 256.978 30.9286V20.0423C256.978 19.1977 257.157 18.8223 257.96 18.5407C258.943 18.1653 260.371 17.7899 262.693 17.6961H263.497V17.6961Z" fill="#003B5C"/>
<path fill-rule="evenodd" clip-rule="evenodd" d="M271.533 17.6961C274.57 17.6961 276.355 19.1977 276.981 21.1685C277.159 21.8254 276.981 22.2008 276.445 22.3885L275.373 22.7639C274.748 23.0454 274.48 22.8577 274.212 22.2008C273.766 21.0746 272.962 20.4177 271.444 20.4177C269.569 20.4177 268.676 21.3562 268.676 23.0454V26.7993C268.676 28.4886 269.658 29.427 271.444 29.427C272.962 29.427 273.766 28.7701 274.212 27.5501C274.48 26.8932 274.659 26.7993 275.373 26.987L276.534 27.3624C277.159 27.6439 277.338 27.9255 277.07 28.5824C276.266 30.8348 274.48 32.1486 271.444 32.1486C267.604 32.1486 265.818 30.084 265.818 26.7055V23.1393C265.729 19.8546 267.515 17.6961 271.533 17.6961Z" fill="#003B5C"/>
<path fill-rule="evenodd" clip-rule="evenodd" d="M282.695 12.9099V18.1653C283.499 17.9776 284.392 17.7899 285.732 17.7899C289.393 17.7899 291 19.7607 291 23.1393V31.0225C291 31.6794 290.821 31.8671 290.196 31.8671H288.768C288.143 31.8671 287.964 31.6794 287.964 31.0225V23.2331C287.964 21.5439 286.982 20.6054 285.196 20.6054C283.946 20.6054 282.785 20.8869 282.606 20.9808V31.0225C282.606 31.6794 282.428 31.8671 281.803 31.8671H280.463C279.838 31.8671 279.659 31.6794 279.659 31.0225V12.9099C279.659 12.2529 279.838 12.0652 280.463 12.0652H281.803C282.517 12.0652 282.695 12.2529 282.695 12.9099Z" fill="#003B5C"/>
<path fill-rule="evenodd" clip-rule="evenodd" d="M141.668 29.1197L138.685 32.0876C130.819 39.8222 122.953 32.0876 122.953 32.0876L119.97 29.1197C112.104 21.3851 119.97 13.6505 119.97 13.6505L122.953 10.6826C130.819 2.94795 138.685 10.6826 138.685 10.6826L141.668 13.6505C149.534 21.3851 141.668 29.1197 141.668 29.1197Z" fill="white"/>
<path fill-rule="evenodd" clip-rule="evenodd" d="M130.638 27.0511C133.984 27.0511 136.696 24.353 136.696 21.0253C136.696 17.6977 133.984 14.9995 130.638 14.9995C127.293 14.9995 124.581 17.6977 124.581 21.0253C124.49 24.353 127.203 27.0511 130.638 27.0511" fill="url(#paint0_linear_1412_1367)"/>
<path fill-rule="evenodd" clip-rule="evenodd" d="M140.584 4.47688L147.726 11.5819C157.111 20.9183 148.942 30.176 147.918 31.3362C147.847 31.4165 147.811 31.4581 147.816 31.4581L140.674 38.5631C130.729 48.5461 120.693 38.5631 120.693 38.5631L113.551 31.4581C103.515 21.475 113.551 11.5819 113.551 11.5819L120.603 4.47688C130.548 -5.50616 140.584 4.47688 140.584 4.47688ZM138.052 31.6379L140.855 28.8499C140.855 28.8499 148.268 21.475 140.855 14.1002L138.052 11.3121C138.052 11.3121 130.638 3.93725 123.225 11.3121L120.422 14.1002C120.422 14.1002 113.008 21.475 120.422 28.8499L123.225 31.6379C123.225 31.6379 130.638 39.0128 138.052 31.6379Z" fill="url(#paint1_linear_1412_1367)"/>
<mask id="mask0_1412_1367" style="mask-type:luminance" maskUnits="userSpaceOnUse" x="109" y="0" width="44" height="43">
<path fill-rule="evenodd" clip-rule="evenodd" d="M147.726 11.5819L140.584 4.47688C140.584 4.47688 130.548 -5.5961 120.512 4.47688L113.46 11.5819C113.46 11.5819 103.425 21.475 113.46 31.4581L120.603 38.5631C120.603 38.5631 130.638 48.5461 140.584 38.5631L147.726 31.4581C147.726 31.548 157.762 21.565 147.726 11.5819ZM141.307 28.4002L138.233 31.548C130.819 38.9228 123.858 32.0876 123.858 32.0876L120.241 28.67C112.827 21.3851 120.422 14.1002 120.331 14.0102L123.134 11.2222C130.548 3.93725 137.962 11.2222 137.962 11.2222L140.764 14.0102C148.178 21.475 141.307 28.4002 141.307 28.4002Z" fill="white"/>
</mask>
<g mask="url(#mask0_1412_1367)">
<path fill-rule="evenodd" clip-rule="evenodd" d="M140.764 32.897C131 42.4304 121.236 32.7172 121.236 32.7172V32.7172C119.156 33.4367 117.077 33.4367 115.268 33.0769L120.874 38.5631C120.874 38.5631 130.819 48.3662 140.674 38.5631L147.726 31.548C147.726 31.548 150.529 28.7599 151.614 24.7128L147.455 28.8499C145.104 31.1882 142.934 32.3574 140.764 32.897Z" fill="url(#paint2_linear_1412_1367)"/>
<path opacity="0.8" fill-rule="evenodd" clip-rule="evenodd" d="M137.69 17.5178C137.51 23.2738 133.26 27.5008 133.26 27.5008L131.452 29.2996C133.079 30.2889 135.611 31.2782 138.414 30.8285L140.584 28.67C140.584 28.67 142.121 27.0511 143.115 24.7128C142.663 23.1838 141.759 21.565 140.131 19.9461L137.69 17.5178Z" fill="url(#paint3_linear_1412_1367)"/>
<path opacity="0.8" fill-rule="evenodd" clip-rule="evenodd" d="M126.66 0.519639C126.751 0.429702 126.841 0.429702 126.841 0.339765C126.57 0.429702 126.389 0.519639 126.118 0.519639L126.389 0.789451L126.66 0.519639Z" fill="url(#paint4_linear_1412_1367)"/>
<path opacity="0.6" fill-rule="evenodd" clip-rule="evenodd" d="M126.479 34.7857L126.208 35.0555C123.677 37.7537 122.953 38.1134 122.953 38.1134C124.219 39.1927 129.644 43.6895 135.701 39.3725C130.548 38.743 126.751 35.0555 126.751 35.0555L126.479 34.7857Z" fill="url(#paint5_linear_1412_1367)"/>
<path opacity="0.24" fill-rule="evenodd" clip-rule="evenodd" d="M109.211 23.9933C110.477 20.126 113.189 17.6977 113.189 17.6977L116.082 14.8197C117.258 10.6825 120.06 7.89449 120.06 7.89449L121.959 6.00581C121.507 5.736 120.874 5.37625 120.241 5.10644L113.641 11.6719C113.551 11.6719 107.945 17.0681 109.211 23.9933Z" fill="#66C5E3"/>
<path opacity="0.5" fill-rule="evenodd" clip-rule="evenodd" d="M131.271 5.64606L131.814 6.18568C136.515 7.08505 139.86 10.4127 139.86 10.4127L147.003 17.5178C148.088 18.597 148.992 19.7662 149.625 20.8455C150.348 19.0467 150.619 16.7983 149.715 14.37C149.082 13.4706 148.359 12.4813 147.364 11.5819L141.307 5.28631C138.866 3.93725 135.068 3.12781 131.271 5.64606Z" fill="url(#paint6_linear_1412_1367)"/>
<path opacity="0.8" fill-rule="evenodd" clip-rule="evenodd" d="M120.332 28.8499C118.975 27.5008 117.89 25.3423 117.348 24.0832L117.258 24.353C116.534 26.2417 116.263 28.67 117.348 31.1882C118.614 31.0983 119.789 30.5587 121.145 29.7492L120.332 28.8499Z" fill="url(#paint7_linear_1412_1367)"/>
<path opacity="0.8" fill-rule="evenodd" clip-rule="evenodd" d="M137.69 17.5178L140.131 19.9461C141.759 21.565 142.663 23.1838 143.115 24.7128C144.29 21.9247 144.562 17.8775 140.584 13.9203L137.781 11.1322C137.781 11.1322 136.515 9.87311 134.616 8.97374C136.877 11.9417 137.69 14.9096 137.69 17.5178Z" fill="url(#paint8_linear_1412_1367)"/>
<path opacity="0.8" fill-rule="evenodd" clip-rule="evenodd" d="M128.921 13.8303C128.378 12.6612 127.564 11.402 126.299 10.1429C126.118 10.3228 123.677 12.841 123.134 16.3486C125.214 14.6398 127.112 14.0102 128.921 13.8303Z" fill="url(#paint9_linear_1412_1367)"/>
<path fill-rule="evenodd" clip-rule="evenodd" d="M136.063 39.1027C129.192 44.0493 122.863 37.6637 122.863 37.6637L122.773 37.5738C122.049 37.9335 121.326 38.2933 120.603 38.4732V38.4732C120.603 38.4732 130.458 48.2763 140.403 38.653C138.956 39.1927 137.419 39.2826 136.063 39.1027Z" fill="url(#paint10_linear_1412_1367)"/>
<path opacity="0.4" fill-rule="evenodd" clip-rule="evenodd" d="M117.258 31.0983C116.173 28.5801 116.444 26.1518 117.167 24.2631C115.359 22.4643 114.184 19.5863 114.907 15.809C114.907 15.809 110.115 19.7662 109.121 23.9933C109.482 25.8819 110.386 27.9505 112.014 30.0191C113.551 30.7386 115.268 31.2782 117.258 31.0983Z" fill="url(#paint11_linear_1412_1367)"/>
<path opacity="0.8" fill-rule="evenodd" clip-rule="evenodd" d="M134.978 9.24355C136.967 10.2329 138.142 11.402 138.142 11.402L140.945 14.1901C144.923 18.1473 144.652 22.1046 143.477 24.9826C143.838 26.3316 143.838 27.5908 143.658 28.7599C143.929 28.4901 144.2 28.3103 144.471 28.0404L147.274 25.2524C147.274 25.2524 148.901 23.6335 149.896 21.0253C149.263 19.9461 148.359 18.8668 147.274 17.6977L140.132 10.5926C140.132 10.5926 136.244 6.99512 131.542 6.09575V6.18569L131.814 6.27562L131.995 6.36556C133.26 7.26493 134.616 8.79387 134.978 9.24355Z" fill="url(#paint12_linear_1412_1367)"/>
<path opacity="0.8" fill-rule="evenodd" clip-rule="evenodd" d="M119.518 27.5008L121.416 29.3895C122.14 28.9398 122.773 28.4002 123.496 27.6807L126.299 24.8926V24.8926C123.315 21.8348 122.682 18.8668 123.134 16.3486" fill="url(#paint13_linear_1412_1367)"/>
<path opacity="0.8" fill-rule="evenodd" clip-rule="evenodd" d="M131.362 29.3895L126.66 34.0662C129.463 35.2354 133.532 35.6851 137.6 31.548L138.233 30.9184C135.521 31.3681 132.989 30.3788 131.362 29.3895Z" fill="url(#paint14_linear_1412_1367)"/>
<path fill-rule="evenodd" clip-rule="evenodd" d="M126.389 0.789454L131.271 5.64607C135.068 3.12782 138.956 3.93726 141.307 5.19638L140.312 4.20707C140.312 4.20707 134.255 -1.63885 126.841 0.339767C126.751 0.429705 126.66 0.429705 126.66 0.519642L126.389 0.789454Z" fill="url(#paint15_linear_1412_1367)"/>
<path fill-rule="evenodd" clip-rule="evenodd" d="M114.184 15.809L119.789 10.3228C121.055 9.06368 122.321 8.07437 123.586 7.44481L123.496 7.35487C123.496 7.35487 121.778 5.736 120.06 5.10644L116.444 8.97374C116.444 8.8838 113.641 11.7618 114.184 15.809Z" fill="url(#paint16_linear_1412_1367)"/>
<path fill-rule="evenodd" clip-rule="evenodd" d="M138.142 31.7279C134.074 35.775 130.005 35.4153 127.203 34.2461L126.841 34.1562L127.203 34.8757C127.203 34.8757 130.91 38.5631 136.153 39.1927C136.696 38.8329 137.238 38.3832 137.781 37.7537L140.584 34.9656C140.584 34.9656 143.205 32.3574 143.748 28.7599C142.03 30.1989 140.403 30.9184 138.866 31.1882L138.142 31.7279Z" fill="url(#paint17_linear_1412_1367)"/>
<path fill-rule="evenodd" clip-rule="evenodd" d="M149.805 21.1153C150.71 22.5543 151.433 23.8134 151.704 25.1624C152.699 22.1945 152.789 18.4172 150.167 14.5499C150.981 16.8882 150.438 19.3165 149.805 21.1153Z" fill="url(#paint18_linear_1412_1367)"/>
<path opacity="0.8" fill-rule="evenodd" clip-rule="evenodd" d="M122.321 17.0681C122.592 16.7983 122.863 16.5285 123.134 16.3486C123.677 12.841 126.118 10.3228 126.299 10.1429V10.1429L125.304 9.15361C124.49 9.6033 123.586 10.3228 122.773 11.1322L119.97 13.9203C119.97 13.9203 115.721 18.7769 117.258 24.2631C118.252 21.8348 119.518 19.8561 119.518 19.8561L122.321 17.0681Z" fill="url(#paint19_linear_1412_1367)"/>
<path fill-rule="evenodd" clip-rule="evenodd" d="M122.321 17.0681C122.592 16.7983 122.863 16.5285 123.134 16.3486C123.677 12.841 126.118 10.3228 126.299 10.1429V10.1429L125.304 9.15361C124.49 9.6033 123.586 10.3228 122.773 11.1322L119.97 13.9203C119.97 13.9203 115.721 18.7769 117.258 24.2631C118.252 21.8348 119.518 19.8561 119.518 19.8561L122.321 17.0681Z" fill="url(#paint20_linear_1412_1367)"/>
<path opacity="0.4" fill-rule="evenodd" clip-rule="evenodd" d="M119.97 14.0102L122.773 11.2222C123.586 10.4127 124.49 9.69324 125.304 9.24355L123.586 7.53474C122.321 8.25424 121.055 9.15361 119.789 10.4127L115.54 14.6398C114.726 17.4278 116.353 22.1046 117.258 24.0832C115.721 19.4065 119.97 14.0102 119.97 14.0102Z" fill="url(#paint21_linear_1412_1367)"/>
<path opacity="0.4" fill-rule="evenodd" clip-rule="evenodd" d="M119.879 14.0102L123.315 10.5926C123.858 9.96305 125.304 9.15362 125.304 9.15362L123.586 7.44481C122.321 8.16431 120.784 9.15362 119.518 10.5027L115.268 14.7297C113.46 20.9354 117.167 24.353 117.258 24.353C115.721 18.8668 119.879 14.0102 119.879 14.0102Z" fill="url(#paint22_linear_1412_1367)"/>
<path opacity="0.4" fill-rule="evenodd" clip-rule="evenodd" d="M120.151 14.0102L123.044 11.1322C123.858 10.3228 124.49 9.6033 125.394 9.15362L123.677 7.44481C122.411 8.16431 121.416 9.06368 120.06 10.3228L115.811 14.5499C114.726 20.4857 117.258 23.9033 117.258 23.9033C115.721 18.5071 120.151 14.0102 120.151 14.0102Z" fill="url(#paint23_linear_1412_1367)"/>
<path opacity="0.8" fill-rule="evenodd" clip-rule="evenodd" d="M126.389 24.8926V24.8926L129.282 27.7706C129.282 27.7706 130.096 28.5801 131.452 29.3895L133.26 27.5908C133.26 27.5908 137.51 23.3637 137.69 17.6077L137.238 17.158C137.238 17.158 133.622 13.5605 129.011 13.9203C131.452 19.6763 126.57 24.7128 126.389 24.8926Z" fill="url(#paint24_linear_1412_1367)"/>
<path fill-rule="evenodd" clip-rule="evenodd" d="M131.723 6.09575L131.271 5.64606C131.09 5.736 131 5.82594 130.819 6.00581C131.09 6.00581 131.362 6.09575 131.723 6.09575Z" fill="#6EC7E0"/>
<path fill-rule="evenodd" clip-rule="evenodd" d="M126.66 34.0662L125.575 33.4367C123.858 32.5373 123.225 31.7279 123.225 31.7279L121.145 29.6593C119.789 30.4687 118.614 31.0084 117.348 31.0983C117.89 32.2675 119.066 33.8864 120.241 35.1455L122.863 37.6637C124.038 36.8543 124.852 35.865 126.118 34.6059L126.66 34.0662Z" fill="url(#paint25_linear_1412_1367)"/>
<path fill-rule="evenodd" clip-rule="evenodd" d="M119.699 4.83663C120.331 5.10644 120.874 5.37625 121.416 5.736L126.389 0.78945L126.118 0.519638C124.219 1.1492 122.23 2.31838 120.241 4.297L119.699 4.83663Z" fill="url(#paint26_linear_1412_1367)"/>
<path fill-rule="evenodd" clip-rule="evenodd" d="M129.192 7.35487L128.559 7.98443C130.819 7.62468 133.531 8.34418 134.616 8.97374C134.255 8.52405 133.712 8.07436 133.26 7.62468L131.723 6.09575C131.452 6.00581 131.09 6.00581 130.819 5.91587C130.277 6.36556 129.734 6.81524 129.192 7.35487Z" fill="#45ADD0"/>
<path opacity="0.6" fill-rule="evenodd" clip-rule="evenodd" d="M128.378 8.25425C130.005 7.71462 132.537 8.16431 133.803 8.61399C134.255 8.79387 134.797 8.97374 134.888 9.06368C133.893 7.71462 132.266 6.36556 132.266 6.36556C131.994 6.18569 131.271 6.00581 130.91 6.00581C129.825 6.63537 128.378 8.25425 128.378 8.25425Z" fill="#65C4F0"/>
<path opacity="0.8" fill-rule="evenodd" clip-rule="evenodd" d="M119.789 34.6958C118.523 33.4367 117.8 32.3574 117.348 31.0983C115.359 31.1882 113.551 30.6486 112.195 29.9291C112.556 30.4687 112.918 30.8285 113.37 31.2782L120.693 38.5631C121.416 38.2933 122.14 38.0235 122.863 37.6637L119.789 34.6958Z" fill="url(#paint27_linear_1412_1367)"/>
<path opacity="0.8" fill-rule="evenodd" clip-rule="evenodd" d="M120.151 35.0555C118.885 33.7964 117.8 32.3574 117.348 31.0983C115.359 31.1882 113.551 30.6486 112.195 30.0191C112.556 30.5587 112.918 30.9184 113.37 31.3681L120.693 38.653C121.416 38.3832 122.14 38.1134 122.863 37.7537L120.151 35.0555Z" fill="url(#paint28_linear_1412_1367)"/>
<path opacity="0.6" fill-rule="evenodd" clip-rule="evenodd" d="M123.586 7.44481C126.118 6.09575 128.559 5.736 130.729 6.00581C130.91 5.91587 131 5.736 131.181 5.64606L126.299 0.789452L121.326 5.736C122.682 6.54544 123.405 7.35487 123.405 7.35487L123.586 7.44481Z" fill="#8FD1E7"/>
<path opacity="0.6" fill-rule="evenodd" clip-rule="evenodd" d="M123.586 7.44481C126.118 6.09575 128.559 5.736 130.729 6.00581C130.91 5.91587 131 5.736 131.181 5.64606L125.123 -6.49547L119.699 4.83663C121.055 5.64606 123.405 7.35487 123.405 7.35487L123.586 7.44481Z" fill="url(#paint29_linear_1412_1367)"/>
<path opacity="0.8" fill-rule="evenodd" clip-rule="evenodd" d="M126.389 10.1429V10.1429V10.1429L128.559 7.98443C127.564 8.1643 126.479 8.52405 125.395 9.15361L126.389 10.1429Z" fill="url(#paint30_linear_1412_1367)"/>
<path fill-rule="evenodd" clip-rule="evenodd" d="M128.559 7.98443L129.192 7.35487C129.734 6.81524 130.186 6.36556 130.729 6.00581C128.559 5.736 126.118 6.09575 123.586 7.4448L125.304 9.15361C126.479 8.52405 127.474 8.1643 128.559 7.98443Z" fill="url(#paint31_linear_1412_1367)"/>
<path fill-rule="evenodd" clip-rule="evenodd" d="M128.378 8.25424L129.373 7.26493C129.825 6.81525 130.367 6.36556 130.91 6.00581C128.83 5.736 126.118 6.18569 123.767 7.44481L125.666 9.42343C126.57 8.79387 127.384 8.52406 128.378 8.25424Z" fill="#6DC8F2"/>
<path opacity="0.8" fill-rule="evenodd" clip-rule="evenodd" d="M121.416 23.5436L119.427 21.3851C113.189 14.6398 119.427 7.98443 119.427 7.98443L121.778 5.37625C125.214 1.68882 128.649 2.04857 131 3.12781L131.452 2.67813C133.079 0.879384 134.797 -0.199863 136.425 -0.829424V-0.829424C136.425 -0.829424 128.016 -9.91309 119.699 -0.829424L113.731 5.64606C113.731 5.64606 105.323 14.7297 113.731 23.7234L119.699 30.1989C119.699 30.1989 122.501 33.1669 126.479 33.9763L125.214 32.6272C122.23 29.4794 121.326 26.3316 121.416 23.5436Z" fill="url(#paint32_linear_1412_1367)"/>
</g>
<mask id="mask1_1412_1367" style="mask-type:luminance" maskUnits="userSpaceOnUse" x="124" y="14" width="13" height="14">
<path fill-rule="evenodd" clip-rule="evenodd" d="M130.548 27.0511C133.893 27.0511 136.605 24.353 136.605 21.0253C136.605 17.6977 133.893 14.9995 130.548 14.9995C127.203 14.9995 124.49 17.6977 124.49 21.0253C124.49 24.353 127.203 27.0511 130.548 27.0511" fill="white"/>
</mask>
<g mask="url(#mask1_1412_1367)">
<path opacity="0.2" fill-rule="evenodd" clip-rule="evenodd" d="M132.266 19.6763C131.723 18.5071 130.91 17.248 129.644 15.9888C129.463 16.1687 127.022 18.687 126.479 22.1945C128.559 20.4857 130.458 19.7662 132.266 19.6763Z" fill="url(#paint33_linear_1412_1367)"/>
<path opacity="0.8" fill-rule="evenodd" clip-rule="evenodd" d="M124.762 35.2354C125.485 34.7857 126.118 34.2461 126.841 33.5266L129.644 30.7386V30.7386C126.66 27.6807 126.027 24.7128 126.479 22.1945C126.208 22.4643 125.937 22.6442 125.666 22.914L122.863 25.7021C122.863 25.7021 121.326 27.3209 120.331 29.6593C120.422 29.9291 120.512 30.2889 120.603 30.5587C121.236 31.4581 121.959 32.3574 122.863 33.2568L124.762 35.2354Z" fill="url(#paint34_linear_1412_1367)"/>
<path opacity="0.2" fill-rule="evenodd" clip-rule="evenodd" d="M125.666 22.914C125.937 22.6442 126.208 22.3744 126.479 22.1945C127.022 18.687 129.463 16.1687 129.644 15.9888V15.9888L128.649 14.9995C127.836 15.4492 126.751 15.809 125.937 16.7083L123.315 19.8561C123.315 19.8561 118.795 24.353 120.332 29.8392C121.326 27.4109 122.863 25.8819 122.863 25.8819L125.666 22.914Z" fill="url(#paint35_linear_1412_1367)"/>
<path opacity="0.3" fill-rule="evenodd" clip-rule="evenodd" d="M125.666 22.914C125.937 22.6442 126.208 22.3744 126.479 22.1945C127.022 18.687 129.463 16.1687 129.644 15.9888V15.9888L128.649 14.9995C127.836 15.4492 126.932 15.809 126.118 16.7083L123.315 19.8561C123.315 19.8561 118.795 24.353 120.332 29.8392C121.326 27.4109 122.863 25.8819 122.863 25.8819L125.666 22.914Z" fill="url(#paint36_linear_1412_1367)"/>
<path fill-rule="evenodd" clip-rule="evenodd" d="M129.734 30.7386V30.7386L132.627 33.6165C132.627 33.6165 133.441 34.426 134.797 35.2354L136.605 33.4367C136.605 33.4367 140.855 29.2096 141.036 23.4536L140.583 23.004C140.583 23.004 136.967 19.4065 132.356 19.7662C134.797 25.5222 129.915 30.5587 129.734 30.7386Z" fill="url(#paint37_linear_1412_1367)"/>
<path opacity="0.4" fill-rule="evenodd" clip-rule="evenodd" d="M129.734 15.9888C131 17.248 131.814 18.5071 132.356 19.6763C137.057 19.4065 140.583 22.914 140.583 22.914L141.036 23.3637C141.126 20.7555 140.312 17.7876 137.781 14.8197C136.244 14.0102 134.164 13.4706 131.904 13.8304L129.734 15.9888V15.9888Z" fill="url(#paint38_linear_1412_1367)"/>
<path opacity="0.4" fill-rule="evenodd" clip-rule="evenodd" d="M129.734 15.9888V15.9888V15.9888L131.904 13.8304C130.91 14.0102 129.825 14.37 128.74 14.9995L129.734 15.9888Z" fill="url(#paint39_linear_1412_1367)"/>
<path opacity="0.6" fill-rule="evenodd" clip-rule="evenodd" d="M129.734 15.9888V15.9888V15.9888L131.904 13.8304C130.91 14.0102 129.825 14.37 128.74 14.9995L129.734 15.9888Z" fill="url(#paint40_linear_1412_1367)"/>
</g>
<defs>
<linearGradient id="paint0_linear_1412_1367" x1="120.521" y1="18.0556" x2="127.824" y2="30.0084" gradientUnits="userSpaceOnUse">
<stop offset="0.153" stop-color="#00B4EC"/>
<stop offset="0.49" stop-color="#05395C"/>
<stop offset="1" stop-color="#E2051D"/>
</linearGradient>
<linearGradient id="paint1_linear_1412_1367" x1="103.87" y1="15.9902" x2="124.624" y2="49.8079" gradientUnits="userSpaceOnUse">
<stop stop-color="#00B0EA"/>
<stop offset="0.1177" stop-color="#00A7E7"/>
<stop offset="0.204" stop-color="#008FC9"/>
<stop offset="0.3907" stop-color="#00527E"/>
<stop offset="0.46" stop-color="#003A60"/>
<stop offset="0.5916" stop-color="#4B2947"/>
<stop offset="0.7184" stop-color="#8C1A30"/>
<stop offset="0.8244" stop-color="#BA0F20"/>
<stop offset="0.9054" stop-color="#D70817"/>
<stop offset="0.9518" stop-color="#E20613"/>
</linearGradient>
<linearGradient id="paint2_linear_1412_1367" x1="80.1807" y1="12.3815" x2="88.1647" y2="50.0976" gradientUnits="userSpaceOnUse">
<stop offset="0.0209" stop-color="#9D0C26" stop-opacity="0.01"/>
<stop offset="0.1897" stop-color="#A81428" stop-opacity="0.01"/>
<stop offset="0.4889" stop-color="#C72A2D" stop-opacity="0.01"/>
<stop offset="0.7567" stop-color="#E74133" stop-opacity="0.01"/>
<stop offset="0.8272" stop-color="#E73E31" stop-opacity="0.2899"/>
<stop offset="0.8863" stop-color="#E6332C" stop-opacity="0.5327"/>
<stop offset="0.9412" stop-color="#E42222" stop-opacity="0.7584"/>
<stop offset="0.9934" stop-color="#E20A15" stop-opacity="0.9728"/>
<stop offset="1" stop-color="#E20613"/>
</linearGradient>
<linearGradient id="paint3_linear_1412_1367" x1="131.367" y1="30.9404" x2="143.03" y2="30.9404" gradientUnits="userSpaceOnUse">
<stop stop-color="white"/>
<stop offset="0.5534" stop-color="#FFF6F4" stop-opacity="0.01"/>
<stop offset="0.8564" stop-color="#FFF8F6" stop-opacity="0.6784"/>
<stop offset="0.9811" stop-color="#FFFDFD" stop-opacity="0.9576"/>
<stop offset="1" stop-color="white"/>
</linearGradient>
<linearGradient id="paint4_linear_1412_1367" x1="110.105" y1="11.7618" x2="130.799" y2="45.6165" gradientUnits="userSpaceOnUse">
<stop stop-color="white"/>
<stop offset="0.5534" stop-color="#FFF6F4" stop-opacity="0.01"/>
<stop offset="0.8564" stop-color="#FFF8F6" stop-opacity="0.6784"/>
<stop offset="0.9811" stop-color="#FFFDFD" stop-opacity="0.9576"/>
<stop offset="1" stop-color="white"/>
</linearGradient>
<linearGradient id="paint5_linear_1412_1367" x1="78.7038" y1="16.2592" x2="84.3746" y2="52.3993" gradientUnits="userSpaceOnUse">
<stop stop-color="#F7C1B2"/>
<stop offset="0.5588" stop-color="#F29A9A" stop-opacity="0.01"/>
<stop offset="0.7331" stop-color="#F29A98" stop-opacity="0.3951"/>
<stop offset="0.8049" stop-color="#F29991" stop-opacity="0.5579"/>
<stop offset="0.8579" stop-color="#F29985" stop-opacity="0.6779"/>
<stop offset="0.9016" stop-color="#F29773" stop-opacity="0.777"/>
<stop offset="0.9396" stop-color="#F2965C" stop-opacity="0.863"/>
<stop offset="0.973" stop-color="#F29441" stop-opacity="0.9388"/>
<stop offset="1" stop-color="#F29224"/>
</linearGradient>
<linearGradient id="paint6_linear_1412_1367" x1="113.844" y1="7.03527" x2="131.073" y2="42.6274" gradientUnits="userSpaceOnUse">
<stop stop-color="#4EBFE0"/>
<stop offset="0.095" stop-color="#50BCDC" stop-opacity="0.8108"/>
<stop offset="0.1792" stop-color="#58B1D2" stop-opacity="0.643"/>
<stop offset="0.2595" stop-color="#649FC0" stop-opacity="0.4832"/>
<stop offset="0.3372" stop-color="#7585A6" stop-opacity="0.3284"/>
<stop offset="0.4131" stop-color="#8A6585" stop-opacity="0.1771"/>
<stop offset="0.4867" stop-color="#A53D5D" stop-opacity="0.0305"/>
<stop offset="0.502" stop-color="#AB3454" stop-opacity="0.01"/>
<stop offset="0.9976" stop-color="#DE091E" stop-opacity="0.01"/>
</linearGradient>
<linearGradient id="paint7_linear_1412_1367" x1="98.0348" y1="29.2508" x2="127.517" y2="48.5865" gradientUnits="userSpaceOnUse">
<stop stop-color="#1A77A4"/>
<stop offset="0.5562" stop-color="#ADDCED" stop-opacity="0.01"/>
<stop offset="0.7203" stop-color="#ABDAEB" stop-opacity="0.3697"/>
<stop offset="0.7879" stop-color="#A4D3E5" stop-opacity="0.522"/>
<stop offset="0.8377" stop-color="#98C8DB" stop-opacity="0.6343"/>
<stop offset="0.8788" stop-color="#86B7CB" stop-opacity="0.727"/>
<stop offset="0.9146" stop-color="#6FA1B8" stop-opacity="0.8075"/>
<stop offset="0.9466" stop-color="#5386A0" stop-opacity="0.8796"/>
<stop offset="0.9751" stop-color="#326783" stop-opacity="0.944"/>
<stop offset="1" stop-color="#0F4565"/>
</linearGradient>
<linearGradient id="paint8_linear_1412_1367" x1="122.186" y1="21.7204" x2="152.451" y2="38.6929" gradientUnits="userSpaceOnUse">
<stop stop-color="white"/>
<stop offset="0.5534" stop-color="#FFF6F4" stop-opacity="0.01"/>
<stop offset="0.8564" stop-color="#FFF8F6" stop-opacity="0.6784"/>
<stop offset="0.9811" stop-color="#FFFDFD" stop-opacity="0.9576"/>
<stop offset="1" stop-color="white"/>
</linearGradient>
<linearGradient id="paint9_linear_1412_1367" x1="107.025" y1="20.9069" x2="129.959" y2="53.1858" gradientUnits="userSpaceOnUse">
<stop stop-color="white"/>
<stop offset="0.5534" stop-color="#FFF6F4" stop-opacity="0.01"/>
<stop offset="0.8564" stop-color="#FFF8F6" stop-opacity="0.6784"/>
<stop offset="0.9811" stop-color="#FFFDFD" stop-opacity="0.9576"/>
<stop offset="1" stop-color="white"/>
</linearGradient>
<linearGradient id="paint10_linear_1412_1367" x1="52.7365" y1="17.3513" x2="54.2744" y2="51.9671" gradientUnits="userSpaceOnUse">
<stop stop-color="#E73374"/>
<stop offset="0.5526" stop-color="#D74B3F" stop-opacity="0.2"/>
<stop offset="0.7258" stop-color="#D54A3E" stop-opacity="0.5097"/>
<stop offset="0.7972" stop-color="#CE463B" stop-opacity="0.6373"/>
<stop offset="0.8498" stop-color="#C24036" stop-opacity="0.7314"/>
<stop offset="0.8932" stop-color="#B0382F" stop-opacity="0.8091"/>
<stop offset="0.9309" stop-color="#992C26" stop-opacity="0.8765"/>
<stop offset="0.9647" stop-color="#7D1E1B" stop-opacity="0.9369"/>
<stop offset="0.9949" stop-color="#5C0E0E" stop-opacity="0.9908"/>
<stop offset="1" stop-color="#560B0B"/>
</linearGradient>
<linearGradient id="paint11_linear_1412_1367" x1="101.83" y1="37.1523" x2="130.798" y2="50.3749" gradientUnits="userSpaceOnUse">
<stop stop-color="#ADDCED"/>
<stop offset="0.5534" stop-color="#ADDCED" stop-opacity="0.01"/>
<stop offset="0.9349" stop-color="#ADDCED" stop-opacity="0.8543"/>
<stop offset="1" stop-color="#ADDCED"/>
</linearGradient>
<linearGradient id="paint12_linear_1412_1367" x1="119.439" y1="16.3303" x2="146.62" y2="45.1872" gradientUnits="userSpaceOnUse">
<stop stop-color="#55B7D7"/>
<stop offset="0.0694" stop-color="#59A7C7" stop-opacity="0.9065"/>
<stop offset="0.2831" stop-color="#637B9A" stop-opacity="0.6186"/>
<stop offset="0.4741" stop-color="#6A5B7A" stop-opacity="0.3613"/>
<stop offset="0.6336" stop-color="#6E4766" stop-opacity="0.1463"/>
<stop offset="0.7422" stop-color="#70405F" stop-opacity="0.01"/>
<stop offset="0.8042" stop-color="#774266" stop-opacity="0.01"/>
<stop offset="0.8962" stop-color="#89487A" stop-opacity="0.01"/>
<stop offset="1" stop-color="#A55299" stop-opacity="0.01"/>
</linearGradient>
<linearGradient id="paint13_linear_1412_1367" x1="104.959" y1="29.6867" x2="134.858" y2="42.7737" gradientUnits="userSpaceOnUse">
<stop stop-color="white"/>
<stop offset="0.5534" stop-color="#FFF6F4" stop-opacity="0.01"/>
<stop offset="0.8564" stop-color="#FFF8F6" stop-opacity="0.6784"/>
<stop offset="0.9811" stop-color="#FFFDFD" stop-opacity="0.9576"/>
<stop offset="1" stop-color="white"/>
</linearGradient>
<linearGradient id="paint14_linear_1412_1367" x1="81.4708" y1="12.541" x2="86.4644" y2="48.5009" gradientUnits="userSpaceOnUse">
<stop stop-color="white"/>
<stop offset="0.5534" stop-color="#FFF6F4" stop-opacity="0.01"/>
<stop offset="0.8564" stop-color="#FFF8F6" stop-opacity="0.6784"/>
<stop offset="0.9811" stop-color="#FFFDFD" stop-opacity="0.9576"/>
<stop offset="1" stop-color="white"/>
</linearGradient>
<linearGradient id="paint15_linear_1412_1367" x1="87.1751" y1="2.89408" x2="90.3866" y2="38.3177" gradientUnits="userSpaceOnUse">
<stop offset="0.0028" stop-color="#74C6E9"/>
<stop offset="0.5534" stop-color="#51B8E9" stop-opacity="0.01"/>
<stop offset="0.8893" stop-color="#52B8E7" stop-opacity="0.752"/>
<stop offset="1" stop-color="#53B8E2"/>
</linearGradient>
<linearGradient id="paint16_linear_1412_1367" x1="114.125" y1="15.8154" x2="123.609" y2="15.8154" gradientUnits="userSpaceOnUse">
<stop stop-color="#5BC4F1"/>
<stop offset="0.4635" stop-color="#5DC5F1" stop-opacity="0.7682"/>
<stop offset="0.6338" stop-color="#64C7F2" stop-opacity="0.6831"/>
<stop offset="0.7557" stop-color="#70CAF3" stop-opacity="0.6222"/>
<stop offset="0.8545" stop-color="#81D0F4" stop-opacity="0.5727"/>
<stop offset="0.9383" stop-color="#96D6F6" stop-opacity="0.5308"/>
<stop offset="1" stop-color="#ACDDF8" stop-opacity="0.5"/>
</linearGradient>
<linearGradient id="paint17_linear_1412_1367" x1="90.9831" y1="12.1005" x2="99.871" y2="49.8888" gradientUnits="userSpaceOnUse">
<stop stop-color="#E73374"/>
<stop offset="0.5694" stop-color="#F5B0A5" stop-opacity="0.02"/>
<stop offset="0.7288" stop-color="#F4AEA3" stop-opacity="0.3828"/>
<stop offset="0.7945" stop-color="#F2A79D" stop-opacity="0.5323"/>
<stop offset="0.8429" stop-color="#EE9B91" stop-opacity="0.6425"/>
<stop offset="0.8829" stop-color="#E98981" stop-opacity="0.7335"/>
<stop offset="0.9176" stop-color="#E2726C" stop-opacity="0.8125"/>
<stop offset="0.9487" stop-color="#D95652" stop-opacity="0.8833"/>
<stop offset="0.9764" stop-color="#CF3535" stop-opacity="0.9464"/>
<stop offset="1" stop-color="#C41315"/>
</linearGradient>
<linearGradient id="paint18_linear_1412_1367" x1="132.348" y1="39.8164" x2="156.131" y2="42.0263" gradientUnits="userSpaceOnUse">
<stop stop-color="#E73374"/>
<stop offset="0.5526" stop-color="#9A345E" stop-opacity="0.01"/>
<stop offset="0.7941" stop-color="#9B335C" stop-opacity="0.5398"/>
<stop offset="0.8936" stop-color="#A02F55" stop-opacity="0.7622"/>
<stop offset="0.9667" stop-color="#A82749" stop-opacity="0.9255"/>
<stop offset="1" stop-color="#AD2240"/>
</linearGradient>
<linearGradient id="paint19_linear_1412_1367" x1="107.606" y1="29.9176" x2="139.475" y2="49.7854" gradientUnits="userSpaceOnUse">
<stop stop-color="white"/>
<stop offset="0.5534" stop-color="#FFF6F4" stop-opacity="0.01"/>
<stop offset="0.8564" stop-color="#FFF8F6" stop-opacity="0.6784"/>
<stop offset="0.9811" stop-color="#FFFDFD" stop-opacity="0.9576"/>
<stop offset="1" stop-color="white"/>
</linearGradient>
<linearGradient id="paint20_linear_1412_1367" x1="104.95" y1="25.6172" x2="136.819" y2="45.485" gradientUnits="userSpaceOnUse">
<stop stop-color="#ADDCED"/>
<stop offset="0.5534" stop-color="#ADDCED" stop-opacity="0.01"/>
<stop offset="0.9349" stop-color="#ADDCED" stop-opacity="0.8543"/>
<stop offset="1" stop-color="#ADDCED"/>
</linearGradient>
<linearGradient id="paint21_linear_1412_1367" x1="105.86" y1="25.395" x2="136.04" y2="43.185" gradientUnits="userSpaceOnUse">
<stop stop-color="#ADDCED"/>
<stop offset="0.5534" stop-color="#ADDCED" stop-opacity="0.01"/>
<stop offset="0.9349" stop-color="#ADDCED" stop-opacity="0.8543"/>
<stop offset="1" stop-color="#ADDCED"/>
</linearGradient>
<linearGradient id="paint22_linear_1412_1367" x1="107.65" y1="29.6117" x2="138.651" y2="49.0844" gradientUnits="userSpaceOnUse">
<stop stop-color="#ADDCED"/>
<stop offset="0.5534" stop-color="#ADDCED" stop-opacity="0.01"/>
<stop offset="0.9349" stop-color="#ADDCED" stop-opacity="0.8543"/>
<stop offset="1" stop-color="#ADDCED"/>
</linearGradient>
<linearGradient id="paint23_linear_1412_1367" x1="108.599" y1="29.5794" x2="138.739" y2="47.0697" gradientUnits="userSpaceOnUse">
<stop stop-color="#ACDDF8"/>
<stop offset="0.5534" stop-color="#ACDDF8" stop-opacity="0.01"/>
<stop offset="0.9349" stop-color="#ACDDF8" stop-opacity="0.8543"/>
<stop offset="1" stop-color="#ACDDF8"/>
</linearGradient>
<linearGradient id="paint24_linear_1412_1367" x1="103.871" y1="9.8726" x2="132.535" y2="34.5598" gradientUnits="userSpaceOnUse">
<stop stop-color="white"/>
<stop offset="0.5534" stop-color="#FFF6F4" stop-opacity="0.01"/>
<stop offset="0.8564" stop-color="#FFF8F6" stop-opacity="0.6784"/>
<stop offset="0.9811" stop-color="#FFFDFD" stop-opacity="0.9576"/>
<stop offset="1" stop-color="white"/>
</linearGradient>
<linearGradient id="paint25_linear_1412_1367" x1="83.8542" y1="12.1512" x2="100.408" y2="48.4244" gradientUnits="userSpaceOnUse">
<stop stop-color="#013854"/>
<stop offset="0.4853" stop-color="#8A345F" stop-opacity="0.01"/>
<stop offset="0.7022" stop-color="#8C335E" stop-opacity="0.1264"/>
<stop offset="0.7915" stop-color="#932F59" stop-opacity="0.1785"/>
<stop offset="0.8574" stop-color="#9F2950" stop-opacity="0.2169"/>
<stop offset="0.9117" stop-color="#B11F44" stop-opacity="0.2485"/>
<stop offset="0.9584" stop-color="#C71434" stop-opacity="0.2757"/>
<stop offset="1" stop-color="#E30521" stop-opacity="0.3"/>
</linearGradient>
<linearGradient id="paint26_linear_1412_1367" x1="96.2706" y1="2.64561" x2="109.957" y2="39.0941" gradientUnits="userSpaceOnUse">
<stop stop-color="#ADDCED"/>
<stop offset="0.5534" stop-color="#ADDCED" stop-opacity="0.01"/>
<stop offset="0.9349" stop-color="#ADDCED" stop-opacity="0.8543"/>
<stop offset="1" stop-color="#ADDCED"/>
</linearGradient>
<linearGradient id="paint27_linear_1412_1367" x1="84.6142" y1="23.1446" x2="99.4336" y2="59.7749" gradientUnits="userSpaceOnUse">
<stop stop-color="#ADDCED"/>
<stop offset="0.5508" stop-color="#ADDCED" stop-opacity="0.01"/>
<stop offset="0.9345" stop-color="#ADDCED" stop-opacity="0.8543"/>
<stop offset="1" stop-color="#ADDCED"/>
</linearGradient>
<linearGradient id="paint28_linear_1412_1367" x1="79.0209" y1="14.0823" x2="93.8066" y2="50.6289" gradientUnits="userSpaceOnUse">
<stop offset="0.0046" stop-color="#013854"/>
<stop offset="0.4907" stop-color="#8A345F" stop-opacity="0.01"/>
<stop offset="0.7053" stop-color="#8C335E" stop-opacity="0.2949"/>
<stop offset="0.7937" stop-color="#932F59" stop-opacity="0.4165"/>
<stop offset="0.8589" stop-color="#9F2950" stop-opacity="0.506"/>
<stop offset="0.9126" stop-color="#B11F44" stop-opacity="0.5799"/>
<stop offset="0.9588" stop-color="#C71434" stop-opacity="0.6434"/>
<stop offset="1" stop-color="#E30521" stop-opacity="0.7"/>
</linearGradient>
<linearGradient id="paint29_linear_1412_1367" x1="82.2104" y1="5.06547" x2="135.205" y2="63.2705" gradientUnits="userSpaceOnUse">
<stop stop-color="#D7EDFC"/>
<stop offset="0.5534" stop-color="#ACDDF8" stop-opacity="0.01"/>
<stop offset="0.7634" stop-color="#AEDEF8" stop-opacity="0.4702"/>
<stop offset="0.8499" stop-color="#B5E0F8" stop-opacity="0.6639"/>
<stop offset="0.9137" stop-color="#C1E5F8" stop-opacity="0.8067"/>
<stop offset="0.9659" stop-color="#D3ECF8" stop-opacity="0.9237"/>
<stop offset="1" stop-color="#E3F2F8"/>
</linearGradient>
<linearGradient id="paint30_linear_1412_1367" x1="101.596" y1="14.6507" x2="112.149" y2="51.3685" gradientUnits="userSpaceOnUse">
<stop stop-color="white"/>
<stop offset="0.5534" stop-color="#FFF6F4" stop-opacity="0.01"/>
<stop offset="0.8564" stop-color="#FFF8F6" stop-opacity="0.6784"/>
<stop offset="0.9811" stop-color="#FFFDFD" stop-opacity="0.9576"/>
<stop offset="1" stop-color="white"/>
</linearGradient>
<linearGradient id="paint31_linear_1412_1367" x1="87.4329" y1="7.53176" x2="91.9616" y2="43.3532" gradientUnits="userSpaceOnUse">
<stop stop-color="#ADDCED"/>
<stop offset="0.5534" stop-color="#ADDCED" stop-opacity="0.01"/>
<stop offset="0.9349" stop-color="#ADDCED" stop-opacity="0.8543"/>
<stop offset="1" stop-color="#ADDCED"/>
</linearGradient>
<linearGradient id="paint32_linear_1412_1367" x1="111.71" y1="12.9661" x2="131.783" y2="28.9787" gradientUnits="userSpaceOnUse">
<stop stop-color="#A0D9F7"/>
<stop offset="0.5061" stop-color="#BCE3F9" stop-opacity="0.01"/>
</linearGradient>
<linearGradient id="paint33_linear_1412_1367" x1="110.359" y1="26.7334" x2="133.292" y2="59.0123" gradientUnits="userSpaceOnUse">
<stop stop-color="#ADDCED"/>
<stop offset="0.5534" stop-color="#ADDCED" stop-opacity="0.01"/>
<stop offset="0.9349" stop-color="#ADDCED" stop-opacity="0.8543"/>
<stop offset="1" stop-color="#ADDCED"/>
</linearGradient>
<linearGradient id="paint34_linear_1412_1367" x1="104.82" y1="30.1818" x2="133.794" y2="54.1006" gradientUnits="userSpaceOnUse">
<stop stop-color="white"/>
<stop offset="0.5534" stop-color="#FFF6F4" stop-opacity="0.01"/>
<stop offset="0.8564" stop-color="#FFF8F6" stop-opacity="0.6784"/>
<stop offset="0.9811" stop-color="#FFFDFD" stop-opacity="0.9576"/>
<stop offset="1" stop-color="white"/>
</linearGradient>
<linearGradient id="paint35_linear_1412_1367" x1="110.809" y1="34.246" x2="141.187" y2="54.961" gradientUnits="userSpaceOnUse">
<stop stop-color="#ADDCED"/>
<stop offset="0.5534" stop-color="#ADDCED" stop-opacity="0.01"/>
<stop offset="0.9349" stop-color="#ADDCED" stop-opacity="0.8543"/>
<stop offset="1" stop-color="#ADDCED"/>
</linearGradient>
<linearGradient id="paint36_linear_1412_1367" x1="108.372" y1="30.0896" x2="138.563" y2="50.6779" gradientUnits="userSpaceOnUse">
<stop stop-color="#ADDCED"/>
<stop offset="0.5534" stop-color="#ADDCED" stop-opacity="0.01"/>
<stop offset="0.9349" stop-color="#ADDCED" stop-opacity="0.8543"/>
<stop offset="1" stop-color="#ADDCED"/>
</linearGradient>
<linearGradient id="paint37_linear_1412_1367" x1="107.204" y1="15.6992" x2="135.869" y2="40.3864" gradientUnits="userSpaceOnUse">
<stop stop-color="#E73374"/>
<stop offset="0.5526" stop-color="#824068" stop-opacity="0.01"/>
<stop offset="0.7751" stop-color="#843F66" stop-opacity="0.4973"/>
<stop offset="0.8667" stop-color="#8B3A60" stop-opacity="0.7021"/>
<stop offset="0.9341" stop-color="#973154" stop-opacity="0.8527"/>
<stop offset="0.9895" stop-color="#A92544" stop-opacity="0.9766"/>
<stop offset="1" stop-color="#AD2240"/>
</linearGradient>
<linearGradient id="paint38_linear_1412_1367" x1="112.019" y1="20.9572" x2="128.149" y2="56.8377" gradientUnits="userSpaceOnUse">
<stop stop-color="#55B7D7"/>
<stop offset="0.5534" stop-color="#55B7D7" stop-opacity="0.01"/>
<stop offset="0.9349" stop-color="#55B7D7" stop-opacity="0.8543"/>
<stop offset="1" stop-color="#55B7D7"/>
</linearGradient>
<linearGradient id="paint39_linear_1412_1367" x1="104.929" y1="20.4773" x2="115.482" y2="57.1951" gradientUnits="userSpaceOnUse">
<stop stop-color="#ADDCED"/>
<stop offset="0.5534" stop-color="#ADDCED" stop-opacity="0.01"/>
<stop offset="0.9349" stop-color="#ADDCED" stop-opacity="0.8543"/>
<stop offset="1" stop-color="#ADDCED"/>
</linearGradient>
<linearGradient id="paint40_linear_1412_1367" x1="96.7817" y1="7.28753" x2="107.335" y2="44.0053" gradientUnits="userSpaceOnUse">
<stop stop-color="#55B7D7"/>
<stop offset="0.5534" stop-color="#55B7D7" stop-opacity="0.01"/>
<stop offset="0.9349" stop-color="#55B7D7" stop-opacity="0.8543"/>
<stop offset="1" stop-color="#55B7D7"/>
</linearGradient>
</defs>
</svg>
