<svg width="316" height="51" viewBox="0 0 316 51" fill="none" xmlns="http://www.w3.org/2000/svg">
<path d="M1.41581 29.5C1.08418 29.5 0.982135 29.3852 0.982135 29.0663V20.8776C0.982135 20.5587 1.08418 20.4439 1.41581 20.4439H1.97703C2.34692 20.4439 2.44896 20.5077 2.58927 20.7756L5.25506 25.5204L7.89535 20.7883C8.04841 20.5077 8.13769 20.4439 8.48208 20.4439H9.10707C9.4387 20.4439 9.5535 20.5587 9.5535 20.8776V29.0663C9.5535 29.3852 9.4387 29.5 9.10707 29.5H8.45657C8.13769 29.5 8.0229 29.3852 8.0229 29.0663V25.1761C8.0229 24.449 8.12494 23.6199 8.32902 22.6378H8.25249C7.92086 23.5944 7.60198 24.2322 7.19382 24.9592L5.94383 27.1786C5.81628 27.4082 5.71424 27.4847 5.44639 27.4847H5.03823C4.78313 27.4847 4.69384 27.4337 4.54078 27.1786L3.26528 24.9592C2.83161 24.2194 2.60202 23.6582 2.28315 22.6251H2.19386C2.39794 23.6327 2.47447 24.3852 2.47447 25.1888V29.0663C2.47447 29.3852 2.35968 29.5 2.0408 29.5H1.41581ZM14.0731 32.5102C12.6955 32.5102 11.8792 32.0255 11.4328 31.2729C11.2414 30.9923 11.2925 30.7883 11.5858 30.6352L12.0705 30.3673C12.3766 30.2143 12.5169 30.2525 12.7083 30.5204C12.9761 30.9413 13.3588 31.1837 14.0475 31.1837C14.9404 31.1837 15.3996 30.699 15.3996 29.7934V29.1939C15.0169 29.2832 14.5195 29.3724 13.8817 29.3724C12.0578 29.3724 11.2287 28.4158 11.2287 26.8087V23.2756C11.2287 22.9822 11.318 22.8929 11.6113 22.8929H12.3129C12.6062 22.8929 12.7083 22.9822 12.7083 23.2756V26.7577C12.7083 27.6123 13.1547 28.0204 14.0986 28.0204C14.6215 28.0204 15.0552 27.9311 15.3996 27.8418V23.2756C15.3996 22.9822 15.5016 22.8929 15.795 22.8929H16.4837C16.7899 22.8929 16.8792 22.9822 16.8792 23.2756V29.7168C16.8792 31.3877 16.0756 32.5102 14.0731 32.5102ZM20.7351 29.5C20.4418 29.5 20.2632 29.449 20.1994 29.1556L18.0949 20.8649C18.0183 20.5715 18.0566 20.4439 18.3755 20.4439H19.2683C19.6255 20.4439 19.7785 20.5077 19.8423 20.8266L20.8882 25.5842C20.9775 26.0306 21.0795 27.0765 21.0923 27.2934H21.1688C21.1816 27.0255 21.2964 26.0817 21.4239 25.5842L22.7122 20.8649C22.8015 20.546 22.9673 20.4822 23.2989 20.4822H23.9749C24.3065 20.4822 24.4851 20.546 24.5616 20.8649L25.8116 25.5842C25.9647 26.1327 26.0667 27.051 26.0922 27.2934H26.1688C26.1815 27.0893 26.2836 26.0944 26.3856 25.597L27.406 20.8266C27.4698 20.5077 27.6228 20.4439 27.98 20.4439H28.758C29.0769 20.4439 29.1152 20.5715 29.0387 20.8649L26.9341 29.1429C26.8575 29.449 26.6917 29.5 26.3984 29.5H25.6968C25.4035 29.5 25.2249 29.4362 25.1611 29.1556L23.8346 24.0919C23.7326 23.6837 23.6433 23.1353 23.6178 22.6506H23.5412C23.5157 23.1353 23.4265 23.6455 23.3117 24.0791L21.9596 29.1429C21.8831 29.449 21.73 29.5 21.4239 29.5H20.7351ZM30.8245 29.5C30.4929 29.5 30.3909 29.3852 30.3909 29.0663V20.8776C30.3909 20.5587 30.4929 20.4439 30.8245 20.4439H35.901C36.2199 20.4439 36.3347 20.5587 36.3347 20.8776V21.5026C36.3347 21.8215 36.2199 21.9363 35.901 21.9363H31.9853V24.1684H35.2888C35.6204 24.1684 35.7225 24.2832 35.7225 24.6021V25.2271C35.7225 25.5459 35.6204 25.6607 35.2888 25.6607H31.9853V28.0077H36.0413C36.3602 28.0077 36.475 28.1225 36.475 28.4413V29.0663C36.475 29.3852 36.3602 29.5 36.0413 29.5H30.8245ZM38.3978 29.5C38.0662 29.5 37.9642 29.3852 37.9642 29.0663V20.8776C37.9642 20.5587 38.0662 20.4439 38.3978 20.4439H41.9437C43.5764 20.4439 44.5457 21.2985 44.5457 22.8291C44.5457 23.7475 44.2524 24.3597 43.5891 24.7551V24.8062C44.4054 25.0995 44.8901 25.8648 44.8901 27.0128C44.8901 28.6199 43.6784 29.5 42.0203 29.5H38.3978ZM39.5585 24.1812H41.7396C42.5049 24.1812 42.9131 23.824 42.9131 23.0587C42.9131 22.3062 42.5049 21.9363 41.7396 21.9363H39.5585V24.1812ZM39.5585 28.0077H41.9692C42.7728 28.0077 43.1937 27.6123 43.1937 26.8342C43.1937 26.0561 42.7728 25.6352 41.9692 25.6352H39.5585V28.0077ZM49.559 29.6913C47.5819 29.6913 46.5743 28.9388 46.0513 27.5612C45.9493 27.2424 46.0131 27.1021 46.3319 27L47.0207 26.7449C47.3268 26.6429 47.4416 26.7067 47.5692 27.0128C47.9008 27.7653 48.5641 28.199 49.559 28.199C50.8727 28.199 51.587 27.7908 51.587 26.8725C51.587 25.9924 50.6559 25.801 49.5717 25.6863C48.0156 25.5204 46.1151 25.2781 46.1151 23.046C46.1151 21.4261 47.3013 20.2526 49.61 20.2526C51.4212 20.2526 52.3523 20.9159 52.9518 22.1786C53.1048 22.472 53.0283 22.6251 52.7222 22.7654L52.0079 23.0715C51.7273 23.199 51.6125 23.148 51.4595 22.8546C51.1151 22.1786 50.6176 21.7832 49.61 21.7832C48.36 21.7832 47.7477 22.1659 47.7477 22.9567C47.7477 23.875 48.7937 24.0409 49.9544 24.1684C51.4595 24.3342 53.1941 24.7041 53.1941 26.8342C53.1941 28.5306 51.9059 29.6913 49.559 29.6913ZM55.1512 29.5C54.8196 29.5 54.7176 29.3852 54.7176 29.0663V20.8776C54.7176 20.5587 54.8196 20.4439 55.1512 20.4439H55.8783C56.2099 20.4439 56.3119 20.5587 56.3119 20.8776V29.0663C56.3119 29.3852 56.2099 29.5 55.8783 29.5H55.1512ZM60.6524 29.5C60.3335 29.5 60.2187 29.3852 60.2187 29.0663V21.9363H57.9994C57.6805 21.9363 57.5657 21.8215 57.5657 21.5026V20.8776C57.5657 20.5587 57.6805 20.4439 57.9994 20.4439H64.0325C64.3641 20.4439 64.4662 20.5587 64.4662 20.8776V21.5026C64.4662 21.8215 64.3641 21.9363 64.0325 21.9363H61.8131V29.0663C61.8131 29.3852 61.7111 29.5 61.3795 29.5H60.6524ZM66.1499 29.5C65.8183 29.5 65.7163 29.3852 65.7163 29.0663V20.8776C65.7163 20.5587 65.8183 20.4439 66.1499 20.4439H71.2264C71.5453 20.4439 71.6601 20.5587 71.6601 20.8776V21.5026C71.6601 21.8215 71.5453 21.9363 71.2264 21.9363H67.3106V24.1684H70.6142C70.9458 24.1684 71.0478 24.2832 71.0478 24.6021V25.2271C71.0478 25.5459 70.9458 25.6607 70.6142 25.6607H67.3106V28.0077H71.3667C71.6856 28.0077 71.8004 28.1225 71.8004 28.4413V29.0663C71.8004 29.3852 71.6856 29.5 71.3667 29.5H66.1499ZM76.5471 26.7959C76.2155 26.7959 76.1135 26.6811 76.1135 26.3495V25.801C76.1135 25.4694 76.2155 25.3674 76.5471 25.3674H81.4451C81.7639 25.3674 81.8787 25.4694 81.8787 25.801V26.3495C81.8787 26.6811 81.7639 26.7959 81.4451 26.7959H76.5471ZM88.5498 29.5128C88.2564 29.5128 88.1161 29.4362 88.0013 29.1556L85.6544 23.3521C85.5141 22.9822 85.6034 22.8929 85.986 22.8929H86.4707C86.9427 22.8929 87.0702 22.9694 87.185 23.2883L88.3585 26.3495C88.5881 26.949 88.7029 27.6633 88.7156 27.7143H88.7921C88.8049 27.6633 88.9069 26.9745 89.1365 26.3623L90.31 23.2883C90.4248 22.9694 90.5396 22.8929 91.0115 22.8929H91.5217C91.9044 22.8929 91.9936 22.9822 91.8533 23.3393L89.4937 29.1556C89.3916 29.4362 89.2513 29.5128 88.958 29.5128H88.5498ZM95.5214 29.6913C93.6337 29.6913 92.6005 28.7219 92.6005 27.1403V25.2526C92.6005 23.671 93.6337 22.7016 95.5214 22.7016C97.4474 22.7016 98.4678 23.671 98.4678 25.2526V27.1403C98.4678 28.7219 97.4474 29.6913 95.5214 29.6913ZM95.5214 28.352C96.478 28.352 96.9882 27.9056 96.9882 27.1403V25.2526C96.9882 24.4745 96.478 24.0409 95.5214 24.0409C94.5903 24.0409 94.0801 24.4745 94.0801 25.2526V27.1403C94.0801 27.9056 94.5903 28.352 95.5214 28.352ZM100.287 29.5C99.9935 29.5 99.9042 29.398 99.9042 29.1046V23.8623C99.9042 23.4541 99.9935 23.3011 100.389 23.1353C100.912 22.9312 101.677 22.7016 102.902 22.7016C104.726 22.7016 105.555 23.6455 105.555 25.2653V29.1046C105.555 29.398 105.453 29.5 105.159 29.5H104.471C104.177 29.5 104.075 29.398 104.075 29.1046V25.3036C104.075 24.4618 103.629 24.0536 102.685 24.0536C102.2 24.0536 101.792 24.1301 101.46 24.2194C101.409 24.2449 101.384 24.296 101.384 24.347V29.1046C101.384 29.398 101.282 29.5 100.988 29.5H100.287Z" fill="#003A5C"/>
<path d="M167.055 48C166.865 48 166.798 47.9335 166.798 47.753V41.502C166.798 41.3215 166.865 41.255 167.055 41.255H170.874C171.054 41.255 171.121 41.3215 171.121 41.502V41.8535C171.121 42.0435 171.054 42.11 170.874 42.11H167.72V44.1525H170.427C170.617 44.1525 170.674 44.219 170.674 44.409V44.7605C170.674 44.9505 170.617 45.0075 170.427 45.0075H167.72V47.145H170.978C171.168 47.145 171.234 47.2115 171.234 47.4015V47.753C171.234 47.9335 171.168 48 170.978 48H167.055ZM172.533 48C172.362 48 172.305 47.943 172.305 47.772V43.915C172.305 43.6205 172.371 43.5065 172.666 43.3925C173.017 43.25 173.568 43.098 174.404 43.098H174.708C174.879 43.098 174.936 43.155 174.936 43.326V43.6395C174.936 43.8105 174.879 43.8675 174.708 43.8675H174.385C173.92 43.8675 173.559 43.934 173.283 44.029C173.16 44.0765 173.15 44.143 173.15 44.219V47.772C173.15 47.943 173.093 48 172.922 48H172.533ZM176.449 48C176.278 48 176.221 47.943 176.221 47.772V43.877H175.499C175.328 43.877 175.271 43.82 175.271 43.6585V43.326C175.271 43.155 175.328 43.098 175.499 43.098H176.221V42.927C176.221 41.5875 176.81 40.989 178.216 40.97H178.292C178.472 40.97 178.529 41.027 178.529 41.198V41.5305C178.529 41.7015 178.472 41.7585 178.292 41.7585C177.37 41.7585 177.066 42.0435 177.066 42.927V43.098H178.311C178.482 43.098 178.539 43.155 178.539 43.326V43.6585C178.539 43.82 178.482 43.877 178.311 43.877H177.066V47.772C177.066 47.943 177.009 48 176.829 48H176.449ZM181.228 48.1425C179.889 48.1425 179.1 47.449 179.1 46.328V44.77C179.1 43.649 179.889 42.9555 181.228 42.9555C182.596 42.9555 183.366 43.649 183.366 44.77V46.328C183.366 47.449 182.596 48.1425 181.228 48.1425ZM181.228 47.373C182.045 47.373 182.52 46.9835 182.52 46.328V44.77C182.52 44.105 182.045 43.725 181.228 43.725C180.44 43.725 179.946 44.105 179.946 44.77V46.328C179.946 46.9835 180.44 47.373 181.228 47.373ZM184.815 48C184.644 48 184.587 47.943 184.587 47.772V41.198C184.587 41.027 184.644 40.97 184.815 40.97H185.214C185.375 40.97 185.432 41.027 185.432 41.198V47.772C185.432 47.943 185.375 48 185.214 48H184.815ZM188.721 50.299C187.695 50.299 187.115 49.9095 186.783 49.3205C186.678 49.159 186.707 49.045 186.878 48.9595L187.153 48.8075C187.334 48.7125 187.41 48.7505 187.524 48.9025C187.752 49.2825 188.065 49.539 188.702 49.539C189.528 49.539 189.918 49.0735 189.918 48.2755V47.734C189.652 47.8195 189.167 47.9715 188.578 47.9715C187.258 47.9715 186.659 47.2685 186.659 46.0905V44.922C186.659 43.649 187.334 42.9555 188.749 42.9555C189.481 42.9555 190.07 43.098 190.412 43.25C190.716 43.383 190.763 43.459 190.763 43.7725V48.2375C190.763 49.4725 190.184 50.299 188.721 50.299ZM188.692 47.202C189.253 47.202 189.69 47.0595 189.918 46.9835V44.067C189.918 43.953 189.899 43.9245 189.785 43.877C189.547 43.801 189.205 43.725 188.806 43.725C187.923 43.725 187.505 44.1335 187.505 44.9505V46.0715C187.505 46.7935 187.904 47.202 188.692 47.202ZM194.943 48C194.772 48 194.715 47.943 194.715 47.772V43.877H193.993C193.822 43.877 193.765 43.82 193.765 43.6585V43.326C193.765 43.155 193.822 43.098 193.993 43.098H194.715V42.927C194.715 41.5875 195.304 40.989 196.71 40.97H196.786C196.967 40.97 197.024 41.027 197.024 41.198V41.5305C197.024 41.7015 196.967 41.7585 196.786 41.7585C195.865 41.7585 195.561 42.0435 195.561 42.927V43.098H196.805C196.976 43.098 197.033 43.155 197.033 43.326V43.6585C197.033 43.82 196.976 43.877 196.805 43.877H195.561V47.772C195.561 47.943 195.504 48 195.323 48H194.943ZM198.884 42.148C198.58 42.148 198.485 42.053 198.485 41.749V41.673C198.485 41.369 198.58 41.274 198.884 41.274H198.941C199.255 41.274 199.35 41.369 199.35 41.673V41.749C199.35 42.0435 199.255 42.148 198.941 42.148H198.884ZM200.756 42.148C200.452 42.148 200.347 42.053 200.347 41.749V41.673C200.347 41.369 200.452 41.274 200.756 41.274H200.813C201.126 41.274 201.212 41.369 201.212 41.673V41.749C201.212 42.0435 201.126 42.148 200.813 42.148H200.756ZM199.73 48.1425C198.409 48.1425 197.801 47.4395 197.801 46.2615V43.326C197.801 43.155 197.858 43.098 198.029 43.098H198.428C198.599 43.098 198.647 43.155 198.647 43.326V46.233C198.647 46.9835 199.027 47.3635 199.853 47.3635C200.309 47.3635 200.651 47.297 200.927 47.202C201.041 47.1545 201.06 47.088 201.06 46.9835V43.326C201.06 43.155 201.117 43.098 201.288 43.098H201.687C201.848 43.098 201.905 43.155 201.905 43.326V47.2875C201.905 47.582 201.839 47.696 201.544 47.8195C201.174 47.962 200.613 48.1425 199.73 48.1425ZM203.456 48C203.285 48 203.228 47.943 203.228 47.772V43.915C203.228 43.6205 203.295 43.5065 203.589 43.3925C203.941 43.25 204.492 43.098 205.328 43.098H205.632C205.803 43.098 205.86 43.155 205.86 43.326V43.6395C205.86 43.8105 205.803 43.8675 205.632 43.8675H205.309C204.843 43.8675 204.482 43.934 204.207 44.029C204.083 44.0765 204.074 44.143 204.074 44.219V47.772C204.074 47.943 204.017 48 203.846 48H203.456ZM209.164 48C208.974 48 208.907 47.9335 208.907 47.753V41.502C208.907 41.3215 208.974 41.255 209.164 41.255H209.582C209.762 41.255 209.829 41.3215 209.829 41.502V44.162H210.503H210.665L212.698 41.464C212.831 41.2835 212.907 41.255 213.201 41.255H213.657C213.838 41.255 213.876 41.369 213.781 41.4925L211.586 44.3425C212.08 44.5135 212.403 44.865 212.688 45.416L213.885 47.7435C213.961 47.886 213.942 48 213.762 48H213.344C213.03 48 212.935 47.962 212.85 47.7815L211.833 45.7485C211.558 45.188 211.282 44.998 210.579 44.998H209.829V47.753C209.829 47.9335 209.762 48 209.582 48H209.164ZM215.184 48C214.994 48 214.927 47.9335 214.927 47.753V41.502C214.927 41.3215 214.994 41.255 215.184 41.255H215.507C215.716 41.255 215.773 41.293 215.858 41.445L218.053 45.3305L220.228 41.4545C220.314 41.293 220.371 41.255 220.561 41.255H220.922C221.112 41.255 221.169 41.3215 221.169 41.502V47.753C221.169 47.9335 221.112 48 220.922 48H220.551C220.361 48 220.295 47.9335 220.295 47.753L220.304 44.314C220.304 43.7915 220.352 43.2025 220.475 42.5375H220.418C220.181 43.1645 219.953 43.6205 219.668 44.124L218.452 46.2805C218.376 46.4135 218.319 46.461 218.167 46.461H217.929C217.768 46.461 217.72 46.423 217.635 46.2805L216.4 44.1145C216.105 43.611 215.915 43.193 215.687 42.528H215.64C215.744 43.212 215.782 43.7535 215.782 44.314V47.753C215.782 47.9335 215.725 48 215.535 48H215.184ZM225.294 48.1425C223.565 48.1425 222.691 47.183 222.691 45.6915V41.502C222.691 41.3215 222.757 41.255 222.938 41.255H223.356C223.546 41.255 223.603 41.3215 223.603 41.502V45.701C223.603 46.689 224.163 47.2875 225.294 47.2875C226.424 47.2875 226.975 46.689 226.975 45.701V41.502C226.975 41.3215 227.042 41.255 227.222 41.255H227.64C227.83 41.255 227.887 41.3215 227.887 41.502V45.6915C227.887 47.183 227.013 48.1425 225.294 48.1425ZM232.011 42.091C231.66 42.091 231.565 42.015 231.565 41.654V41.5875C231.565 41.236 231.66 41.1505 232.011 41.1505H232.078C232.42 41.1505 232.524 41.236 232.524 41.5875V41.654C232.524 42.0055 232.42 42.091 232.078 42.091H232.011ZM231.85 48C231.679 48 231.622 47.943 231.622 47.772V43.326C231.622 43.155 231.679 43.098 231.85 43.098H232.239C232.41 43.098 232.467 43.155 232.467 43.326V47.772C232.467 47.943 232.41 48 232.239 48H231.85ZM234.028 48C233.857 48 233.8 47.943 233.8 47.772V43.8105C233.8 43.516 233.867 43.402 234.161 43.2785C234.541 43.1265 235.092 42.9555 235.976 42.9555C237.306 42.9555 237.904 43.6585 237.904 44.8365V47.772C237.904 47.943 237.847 48 237.676 48H237.287C237.116 48 237.059 47.943 237.059 47.772V44.865C237.059 44.1145 236.679 43.725 235.862 43.725C235.396 43.725 235.026 43.8105 234.76 43.9055C234.665 43.9435 234.646 44.0005 234.646 44.0765V47.772C234.646 47.943 234.589 48 234.418 48H234.028ZM243.417 48.1425C242.03 48.1425 241.394 47.449 241.394 46.233V44.8935C241.394 43.6585 242.021 42.9555 243.313 42.9555C243.911 42.9555 244.396 43.098 244.652 43.1645V41.198C244.652 41.027 244.709 40.97 244.871 40.97H245.27C245.441 40.97 245.498 41.027 245.498 41.198V47.3255C245.498 47.639 245.422 47.7245 245.118 47.848C244.747 47.9905 244.225 48.1425 243.417 48.1425ZM243.493 47.3635C243.911 47.3635 244.263 47.297 244.519 47.221C244.643 47.164 244.652 47.145 244.652 47.031V43.9435C244.434 43.877 244.006 43.725 243.474 43.725C242.619 43.725 242.239 44.1335 242.239 44.922V46.2045C242.239 46.9645 242.657 47.3635 243.493 47.3635ZM248.762 48.1425C247.28 48.1425 246.643 47.3255 246.643 46.1665V44.9885C246.643 43.706 247.394 42.9555 248.79 42.9555C250.253 42.9555 250.937 43.801 250.937 44.922V45.473C250.937 45.6725 250.852 45.8055 250.595 45.8055H247.489V46.2615C247.489 46.9835 247.935 47.411 248.762 47.411C249.446 47.411 249.854 47.145 250.092 46.746C250.206 46.594 250.291 46.5655 250.462 46.6605L250.719 46.7935C250.88 46.879 250.909 47.0025 250.804 47.164C250.462 47.7435 249.854 48.1425 248.762 48.1425ZM247.489 45.15H250.092V44.8745C250.092 44.124 249.655 43.6775 248.79 43.6775C247.935 43.6775 247.489 44.124 247.489 44.8745V45.15ZM252.255 48C252.084 48 252.027 47.943 252.027 47.772V43.915C252.027 43.6205 252.093 43.5065 252.388 43.3925C252.739 43.25 253.29 43.098 254.126 43.098H254.43C254.601 43.098 254.658 43.155 254.658 43.326V43.6395C254.658 43.8105 254.601 43.8675 254.43 43.8675H254.107C253.642 43.8675 253.281 43.934 253.005 44.029C252.882 44.0765 252.872 44.143 252.872 44.219V47.772C252.872 47.943 252.815 48 252.644 48H252.255ZM259.473 48.1425C258.086 48.1425 257.449 47.449 257.449 46.233V44.8935C257.449 43.6585 258.076 42.9555 259.368 42.9555C259.967 42.9555 260.451 43.098 260.708 43.1645V41.198C260.708 41.027 260.765 40.97 260.926 40.97H261.325C261.496 40.97 261.553 41.027 261.553 41.198V47.3255C261.553 47.639 261.477 47.7245 261.173 47.848C260.803 47.9905 260.28 48.1425 259.473 48.1425ZM259.549 47.3635C259.967 47.3635 260.318 47.297 260.575 47.221C260.698 47.164 260.708 47.145 260.708 47.031V43.9435C260.489 43.877 260.062 43.725 259.53 43.725C258.675 43.725 258.295 44.1335 258.295 44.922V46.2045C258.295 46.9645 258.713 47.3635 259.549 47.3635ZM263.269 42.091C262.917 42.091 262.822 42.015 262.822 41.654V41.5875C262.822 41.236 262.917 41.1505 263.269 41.1505H263.335C263.677 41.1505 263.782 41.236 263.782 41.5875V41.654C263.782 42.0055 263.677 42.091 263.335 42.091H263.269ZM263.107 48C262.936 48 262.879 47.943 262.879 47.772V43.326C262.879 43.155 262.936 43.098 263.107 43.098H263.497C263.668 43.098 263.725 43.155 263.725 43.326V47.772C263.725 47.943 263.668 48 263.497 48H263.107ZM266.977 50.299C265.951 50.299 265.371 49.9095 265.039 49.3205C264.934 49.159 264.963 49.045 265.134 48.9595L265.409 48.8075C265.59 48.7125 265.666 48.7505 265.78 48.9025C266.008 49.2825 266.321 49.539 266.958 49.539C267.784 49.539 268.174 49.0735 268.174 48.2755V47.734C267.908 47.8195 267.423 47.9715 266.834 47.9715C265.514 47.9715 264.915 47.2685 264.915 46.0905V44.922C264.915 43.649 265.59 42.9555 267.005 42.9555C267.737 42.9555 268.326 43.098 268.668 43.25C268.972 43.383 269.019 43.459 269.019 43.7725V48.2375C269.019 49.4725 268.44 50.299 266.977 50.299ZM266.948 47.202C267.509 47.202 267.946 47.0595 268.174 46.9835V44.067C268.174 43.953 268.155 43.9245 268.041 43.877C267.803 43.801 267.461 43.725 267.062 43.725C266.179 43.725 265.761 44.1335 265.761 44.9505V46.0715C265.761 46.7935 266.16 47.202 266.948 47.202ZM270.735 42.091C270.384 42.091 270.289 42.015 270.289 41.654V41.5875C270.289 41.236 270.384 41.1505 270.735 41.1505H270.802C271.144 41.1505 271.248 41.236 271.248 41.5875V41.654C271.248 42.0055 271.144 42.091 270.802 42.091H270.735ZM270.574 48C270.403 48 270.346 47.943 270.346 47.772V43.326C270.346 43.155 270.403 43.098 270.574 43.098H270.963C271.134 43.098 271.191 43.155 271.191 43.326V47.772C271.191 47.943 271.134 48 270.963 48H270.574ZM275.108 48C273.569 48 273.028 47.5725 273.028 45.986V43.877H272.239C272.068 43.877 272.011 43.82 272.011 43.6585V43.326C272.011 43.155 272.068 43.098 272.239 43.098H273.028V42.186C273.028 42.015 273.085 41.958 273.256 41.958H273.645C273.816 41.958 273.873 42.015 273.873 42.186V43.098H275.118C275.289 43.098 275.346 43.155 275.346 43.326V43.6585C275.346 43.82 275.289 43.877 275.118 43.877H273.873V45.9575C273.873 47.0025 274.177 47.1925 275.108 47.1925C275.279 47.1925 275.336 47.2495 275.336 47.43V47.7625C275.336 47.9335 275.279 48 275.108 48ZM278.049 48.1425C276.387 48.1425 275.969 47.601 275.969 46.632C275.969 45.5205 276.586 45.15 278.087 45.15C278.562 45.15 279.009 45.207 279.18 45.2165V44.846C279.18 44.1715 278.942 43.706 278.049 43.706C277.47 43.706 277.09 43.9055 276.862 44.295C276.767 44.4375 276.719 44.466 276.558 44.3995L276.254 44.276C276.092 44.2095 276.045 44.124 276.13 43.953C276.463 43.326 277.09 42.9555 278.068 42.9555C279.598 42.9555 280.025 43.801 280.025 44.8745V47.354C280.025 47.6865 279.949 47.7815 279.683 47.8955C279.332 48.0475 278.79 48.1425 278.049 48.1425ZM277.973 47.4395C278.486 47.4395 278.809 47.392 279.028 47.316C279.151 47.278 279.18 47.24 279.18 47.107V45.891C278.99 45.872 278.467 45.8245 277.992 45.8245C277.099 45.8245 276.824 46.0905 276.824 46.6225C276.824 47.126 277.023 47.4395 277.973 47.4395ZM281.547 48C281.376 48 281.319 47.943 281.319 47.772V41.198C281.319 41.027 281.376 40.97 281.547 40.97H281.946C282.107 40.97 282.164 41.027 282.164 41.198V47.772C282.164 47.943 282.107 48 281.946 48H281.547ZM285.491 48.1425C284.009 48.1425 283.372 47.3255 283.372 46.1665V44.9885C283.372 43.706 284.123 42.9555 285.519 42.9555C286.982 42.9555 287.666 43.801 287.666 44.922V45.473C287.666 45.6725 287.581 45.8055 287.324 45.8055H284.218V46.2615C284.218 46.9835 284.664 47.411 285.491 47.411C286.175 47.411 286.583 47.145 286.821 46.746C286.935 46.594 287.02 46.5655 287.191 46.6605L287.448 46.7935C287.609 46.879 287.638 47.0025 287.533 47.164C287.191 47.7435 286.583 48.1425 285.491 48.1425ZM284.218 45.15H286.821V44.8745C286.821 44.124 286.384 43.6775 285.519 43.6775C284.664 43.6775 284.218 44.124 284.218 44.8745V45.15ZM288.984 48C288.813 48 288.756 47.943 288.756 47.772V43.8105C288.756 43.516 288.823 43.402 289.117 43.2785C289.497 43.1265 290.048 42.9555 290.932 42.9555C292.262 42.9555 292.86 43.6585 292.86 44.8365V47.772C292.86 47.943 292.803 48 292.632 48H292.243C292.072 48 292.015 47.943 292.015 47.772V44.865C292.015 44.1145 291.635 43.725 290.818 43.725C290.352 43.725 289.982 43.8105 289.716 43.9055C289.621 43.9435 289.602 44.0005 289.602 44.0765V47.772C289.602 47.943 289.545 48 289.374 48H288.984ZM297.828 48C297.657 48 297.552 47.9715 297.514 47.8005L295.88 41.502C295.833 41.331 295.861 41.255 296.042 41.255H296.545C296.754 41.255 296.84 41.293 296.878 41.4735L297.866 45.5965C297.932 45.91 298.008 46.5465 298.037 46.7365H298.075C298.103 46.518 298.189 45.9385 298.274 45.5965L299.405 41.5495C299.452 41.369 299.547 41.331 299.737 41.331H300.127C300.317 41.331 300.412 41.369 300.459 41.5495L301.571 45.606C301.666 45.967 301.751 46.537 301.78 46.7365H301.818C301.846 46.556 301.922 45.948 301.989 45.6155L302.967 41.4735C303.015 41.293 303.1 41.255 303.3 41.255H303.746C303.927 41.255 303.955 41.331 303.908 41.502L302.264 47.791C302.226 47.9715 302.131 48 301.96 48H301.552C301.381 48 301.286 47.962 301.238 47.8005L300.098 43.573C300.022 43.2785 299.956 42.908 299.927 42.5755H299.88C299.842 42.908 299.775 43.2595 299.69 43.5635L298.54 47.791C298.493 47.9715 298.398 48 298.227 48H297.828ZM306.491 48.1425C305.009 48.1425 304.373 47.3255 304.373 46.1665V44.9885C304.373 43.706 305.123 42.9555 306.52 42.9555C307.983 42.9555 308.667 43.801 308.667 44.922V45.473C308.667 45.6725 308.581 45.8055 308.325 45.8055H305.218V46.2615C305.218 46.9835 305.665 47.411 306.491 47.411C307.175 47.411 307.584 47.145 307.821 46.746C307.935 46.594 308.021 46.5655 308.192 46.6605L308.448 46.7935C308.61 46.879 308.638 47.0025 308.534 47.164C308.192 47.7435 307.584 48.1425 306.491 48.1425ZM305.218 45.15H307.821V44.8745C307.821 44.124 307.384 43.6775 306.52 43.6775C305.665 43.6775 305.218 44.124 305.218 44.8745V45.15ZM310.032 48C309.861 48 309.804 47.943 309.804 47.772V41.198C309.804 41.027 309.861 40.97 310.032 40.97H310.431C310.593 40.97 310.65 41.027 310.65 41.198V47.772C310.65 47.943 310.593 48 310.431 48H310.032ZM314.603 48C313.064 48 312.523 47.5725 312.523 45.986V43.877H311.734C311.563 43.877 311.506 43.82 311.506 43.6585V43.326C311.506 43.155 311.563 43.098 311.734 43.098H312.523V42.186C312.523 42.015 312.58 41.958 312.751 41.958H313.14C313.311 41.958 313.368 42.015 313.368 42.186V43.098H314.613C314.784 43.098 314.841 43.155 314.841 43.326V43.6585C314.841 43.82 314.784 43.877 314.613 43.877H313.368V45.9575C313.368 47.0025 313.672 47.1925 314.603 47.1925C314.774 47.1925 314.831 47.2495 314.831 47.43V47.7625C314.831 47.9335 314.774 48 314.603 48Z" fill="#003A5C"/>
<path fill-rule="evenodd" clip-rule="evenodd" d="M169.217 31.8671H167.878C167.253 31.8671 167.074 31.6794 167.074 31.0225V12.9099C167.074 12.2529 167.253 12.0652 167.878 12.0652H169.217C169.842 12.0652 170.021 12.2529 170.021 12.9099V31.0225C170.021 31.6794 169.842 31.8671 169.217 31.8671Z" fill="#003B5C"/>
<path fill-rule="evenodd" clip-rule="evenodd" d="M184.755 23.0454C184.755 19.7607 182.79 17.6961 178.95 17.6961C175.2 17.6961 173.146 19.7607 173.146 23.0454V26.7993C173.146 30.084 175.2 32.1486 178.95 32.1486C182.701 32.1486 184.755 30.084 184.755 26.7993V23.0454ZM176.093 23.0454C176.093 21.45 177.075 20.5115 178.95 20.5115C180.826 20.5115 181.897 21.45 181.808 23.0454V26.7993C181.808 28.3947 180.826 29.3332 178.95 29.3332C177.165 29.3332 176.093 28.3947 176.093 26.7993V23.0454Z" fill="#003B5C"/>
<path fill-rule="evenodd" clip-rule="evenodd" d="M193.327 17.6961C196.363 17.6961 198.149 19.1977 198.774 21.1685C198.953 21.8254 198.774 22.2008 198.238 22.3885L197.167 22.7639C196.542 23.0454 196.274 22.8577 196.006 22.2008C195.56 21.0746 194.756 20.4177 193.238 20.4177C191.363 20.4177 190.47 21.3562 190.47 23.0454V26.7993C190.47 28.4886 191.452 29.427 193.238 29.427C194.756 29.427 195.56 28.7701 196.006 27.5501C196.274 26.8932 196.452 26.7993 197.167 26.987L198.328 27.3624C198.953 27.6439 199.131 27.9255 198.863 28.5824C198.06 30.8348 196.274 32.1486 193.238 32.1486C189.398 32.1486 187.612 30.084 187.612 26.7055V23.1393C187.434 19.8546 189.309 17.6961 193.327 17.6961Z" fill="#003B5C"/>
<path fill-rule="evenodd" clip-rule="evenodd" d="M211.99 23.1393C211.99 20.0423 210.74 17.6961 206.543 17.6961C203.864 17.6961 202.167 18.8223 201.364 20.3238C201.096 20.9808 201.185 21.2623 201.81 21.5438L202.793 22.0131C203.328 22.2946 203.507 22.2008 203.864 21.6377C204.4 20.7931 205.293 20.3238 206.543 20.3238C208.418 20.3238 209.043 21.2623 209.043 22.9516V23.7962C208.863 23.7962 208.597 23.781 208.278 23.7628C207.806 23.7358 207.219 23.7023 206.632 23.7023C202.614 23.7023 200.917 24.7347 200.917 27.8316C200.917 30.5532 202.078 32.1486 206.543 32.1486C208.597 32.1486 210.115 31.8671 211.097 31.3978C211.811 31.1163 211.99 30.8348 211.99 29.8963V23.1393ZM203.864 27.9255C203.864 26.7993 204.311 26.1424 206.275 26.1424C206.84 26.1424 207.494 26.1734 208.049 26.1998C208.459 26.2193 208.816 26.2362 209.043 26.2362V29.0517C209.043 29.192 209.043 29.2624 209.01 29.3093C208.977 29.3565 208.91 29.38 208.775 29.427C208.731 29.4363 208.685 29.4465 208.635 29.4573C208.182 29.5561 207.482 29.7086 206.275 29.7086C204.311 29.7086 203.864 28.9578 203.864 27.9255Z" fill="#003B5C"/>
<path fill-rule="evenodd" clip-rule="evenodd" d="M217.437 31.8671H216.098C215.473 31.8671 215.294 31.6794 215.294 31.0225V12.9099C215.294 12.2529 215.473 12.0652 216.098 12.0652H217.437C218.062 12.0652 218.241 12.2529 218.241 12.9099V31.0225C218.241 31.6794 218.062 31.8671 217.437 31.8671Z" fill="#003B5C"/>
<path fill-rule="evenodd" clip-rule="evenodd" d="M226.545 17.6961C229.492 17.6961 231.189 18.8223 231.992 20.5115C232.26 21.1685 232.082 21.45 231.546 21.7315L230.385 22.2008C229.76 22.4823 229.671 22.3885 229.313 21.8254C228.867 20.9808 228.242 20.4177 226.545 20.4177C224.849 20.4177 224.134 20.8869 224.134 21.9192C224.134 23.1393 225.117 23.327 227.081 23.5146C230.117 23.7962 232.26 24.547 232.26 27.6439C232.26 30.2717 230.385 32.1486 226.724 32.1486C223.777 32.1486 221.902 31.0225 221.098 28.9578C220.83 28.3947 221.009 28.0193 221.545 27.8316L222.706 27.4562C223.241 27.2685 223.509 27.3624 223.777 27.9255C224.224 28.9578 225.117 29.427 226.635 29.427C228.421 29.427 229.313 28.864 229.313 27.8316C229.313 26.6116 228.331 26.3301 226.277 26.1424C223.777 25.8608 221.098 25.4854 221.098 22.0131C221.277 19.4792 223.063 17.6961 226.545 17.6961Z" fill="#003B5C"/>
<path fill-rule="evenodd" clip-rule="evenodd" d="M246.458 23.1393C246.458 20.1361 244.583 17.6961 240.565 17.6961C236.725 17.6961 234.671 19.7607 234.761 23.2331V26.3301C234.761 29.6147 236.368 32.0548 240.565 32.0548C243.422 32.0548 245.119 31.1163 246.012 29.5209C246.369 28.9578 246.369 28.4886 245.744 28.207L244.851 27.7378C244.226 27.3624 243.958 27.4562 243.512 28.0193C242.976 28.864 241.994 29.427 240.476 29.427C238.69 29.427 237.618 28.5824 237.618 26.7993V25.8608H245.298C246.191 25.8608 246.458 25.3916 246.458 24.7347V23.1393ZM237.618 22.9516C237.618 21.3562 238.69 20.3238 240.565 20.3238C242.44 20.3238 243.512 21.3562 243.512 23.0454V23.6085H237.618V22.9516Z" fill="#003B5C"/>
<path fill-rule="evenodd" clip-rule="evenodd" d="M259.764 23.1393C259.764 20.0423 258.513 17.6961 254.316 17.6961C251.638 17.6961 249.941 18.8223 249.137 20.3238C248.869 20.9808 248.959 21.2623 249.584 21.5438L250.566 22.0131C251.102 22.2946 251.28 22.2008 251.638 21.6377C252.173 20.7931 253.066 20.3238 254.316 20.3238C256.192 20.3238 256.817 21.2623 256.817 22.9516V23.7962C256.637 23.7962 256.37 23.781 256.052 23.7628C255.579 23.7358 254.992 23.7023 254.406 23.7023C250.387 23.7023 248.691 24.7347 248.691 27.8316C248.691 30.5532 249.852 32.1486 254.316 32.1486C256.37 32.1486 257.888 31.8671 258.871 31.3978C259.585 31.1163 259.764 30.8348 259.764 29.8963V23.1393ZM251.638 27.9255C251.638 26.7993 252.084 26.1424 254.049 26.1424C254.614 26.1424 255.267 26.1734 255.822 26.1998C256.233 26.2193 256.589 26.2362 256.817 26.2362V29.0517C256.817 29.192 256.817 29.2624 256.784 29.3093C256.75 29.3565 256.683 29.38 256.549 29.427C256.505 29.4363 256.458 29.4465 256.409 29.4573C255.955 29.5561 255.256 29.7086 254.049 29.7086C252.084 29.7086 251.638 28.9578 251.638 27.9255Z" fill="#003B5C"/>
<path fill-rule="evenodd" clip-rule="evenodd" d="M269.497 17.6961C270.122 17.6961 270.3 17.8838 270.3 18.5407V19.7607C270.3 20.4177 270.122 20.6054 269.497 20.6054H268.604C267.622 20.6054 266.818 20.6992 266.193 20.8869C266.014 20.9808 265.925 21.0746 265.925 21.1685V30.9286C265.925 31.5855 265.746 31.7732 265.121 31.7732H263.782C263.157 31.7732 262.978 31.5855 262.978 30.9286V20.0423C262.978 19.1977 263.157 18.8223 263.96 18.5407C264.943 18.1653 266.371 17.7899 268.693 17.6961H269.497V17.6961Z" fill="#003B5C"/>
<path fill-rule="evenodd" clip-rule="evenodd" d="M277.533 17.6961C280.57 17.6961 282.355 19.1977 282.981 21.1685C283.159 21.8254 282.981 22.2008 282.445 22.3885L281.373 22.7639C280.748 23.0454 280.48 22.8577 280.212 22.2008C279.766 21.0746 278.962 20.4177 277.444 20.4177C275.569 20.4177 274.676 21.3562 274.676 23.0454V26.7993C274.676 28.4886 275.658 29.427 277.444 29.427C278.962 29.427 279.766 28.7701 280.212 27.5501C280.48 26.8932 280.659 26.7993 281.373 26.987L282.534 27.3624C283.159 27.6439 283.338 27.9255 283.07 28.5824C282.266 30.8348 280.48 32.1486 277.444 32.1486C273.604 32.1486 271.818 30.084 271.818 26.7055V23.1393C271.729 19.8546 273.515 17.6961 277.533 17.6961Z" fill="#003B5C"/>
<path fill-rule="evenodd" clip-rule="evenodd" d="M288.695 12.9099V18.1653C289.499 17.9776 290.392 17.7899 291.732 17.7899C295.393 17.7899 297 19.7607 297 23.1393V31.0225C297 31.6794 296.821 31.8671 296.196 31.8671H294.768C294.143 31.8671 293.964 31.6794 293.964 31.0225V23.2331C293.964 21.5439 292.982 20.6054 291.196 20.6054C289.946 20.6054 288.785 20.8869 288.606 20.9808V31.0225C288.606 31.6794 288.428 31.8671 287.803 31.8671H286.463C285.838 31.8671 285.659 31.6794 285.659 31.0225V12.9099C285.659 12.2529 285.838 12.0652 286.463 12.0652H287.803C288.517 12.0652 288.695 12.2529 288.695 12.9099Z" fill="#003B5C"/>
<path fill-rule="evenodd" clip-rule="evenodd" d="M147.668 29.1197L144.685 32.0876C136.819 39.8222 128.953 32.0876 128.953 32.0876L125.97 29.1197C118.104 21.3851 125.97 13.6505 125.97 13.6505L128.953 10.6825C136.819 2.94794 144.685 10.6825 144.685 10.6825L147.668 13.6505C155.534 21.3851 147.668 29.1197 147.668 29.1197Z" fill="white"/>
<path fill-rule="evenodd" clip-rule="evenodd" d="M136.638 27.0511C139.984 27.0511 142.696 24.353 142.696 21.0253C142.696 17.6977 139.984 14.9995 136.638 14.9995C133.293 14.9995 130.581 17.6977 130.581 21.0253C130.49 24.353 133.203 27.0511 136.638 27.0511" fill="url(#paint0_linear_1412_1366)"/>
<path fill-rule="evenodd" clip-rule="evenodd" d="M146.584 4.47688L153.726 11.5819C163.111 20.9183 154.942 30.176 153.918 31.3362C153.847 31.4165 153.811 31.4581 153.816 31.4581L146.674 38.5631C136.729 48.5461 126.693 38.5631 126.693 38.5631L119.551 31.4581C109.515 21.475 119.551 11.5819 119.551 11.5819L126.603 4.47688C136.548 -5.50616 146.584 4.47688 146.584 4.47688ZM144.052 31.6379L146.855 28.8499C146.855 28.8499 154.268 21.475 146.855 14.1002L144.052 11.3121C144.052 11.3121 136.638 3.93725 129.225 11.3121L126.422 14.1002C126.422 14.1002 119.008 21.475 126.422 28.8499L129.225 31.6379C129.225 31.6379 136.638 39.0128 144.052 31.6379Z" fill="url(#paint1_linear_1412_1366)"/>
<mask id="mask0_1412_1366" style="mask-type:luminance" maskUnits="userSpaceOnUse" x="115" y="0" width="44" height="43">
<path fill-rule="evenodd" clip-rule="evenodd" d="M153.726 11.5819L146.584 4.47688C146.584 4.47688 136.548 -5.5961 126.512 4.47688L119.46 11.5819C119.46 11.5819 109.425 21.475 119.46 31.4581L126.603 38.5631C126.603 38.5631 136.638 48.5461 146.584 38.5631L153.726 31.4581C153.726 31.548 163.762 21.565 153.726 11.5819ZM147.307 28.4002L144.233 31.548C136.819 38.9228 129.858 32.0876 129.858 32.0876L126.241 28.67C118.827 21.3851 126.422 14.1002 126.331 14.0102L129.134 11.2222C136.548 3.93725 143.962 11.2222 143.962 11.2222L146.764 14.0102C154.178 21.475 147.307 28.4002 147.307 28.4002Z" fill="white"/>
</mask>
<g mask="url(#mask0_1412_1366)">
<path fill-rule="evenodd" clip-rule="evenodd" d="M146.764 32.8971C137 42.4304 127.236 32.7172 127.236 32.7172V32.7172C125.156 33.4367 123.077 33.4367 121.268 33.0769L126.874 38.5631C126.874 38.5631 136.819 48.3663 146.674 38.5631L153.726 31.548C153.726 31.548 156.529 28.7599 157.614 24.7128L153.455 28.8499C151.104 31.1882 148.934 32.3574 146.764 32.8971Z" fill="url(#paint2_linear_1412_1366)"/>
<path opacity="0.8" fill-rule="evenodd" clip-rule="evenodd" d="M143.69 17.5178C143.51 23.2738 139.26 27.5008 139.26 27.5008L137.452 29.2996C139.079 30.2889 141.611 31.2782 144.414 30.8285L146.584 28.67C146.584 28.67 148.121 27.0511 149.115 24.7128C148.663 23.1838 147.759 21.565 146.131 19.9461L143.69 17.5178Z" fill="url(#paint3_linear_1412_1366)"/>
<path opacity="0.8" fill-rule="evenodd" clip-rule="evenodd" d="M132.66 0.519639C132.751 0.429702 132.841 0.429702 132.841 0.339765C132.57 0.429702 132.389 0.519639 132.118 0.519639L132.389 0.789451L132.66 0.519639Z" fill="url(#paint4_linear_1412_1366)"/>
<path opacity="0.6" fill-rule="evenodd" clip-rule="evenodd" d="M132.479 34.7857L132.208 35.0555C129.677 37.7537 128.953 38.1134 128.953 38.1134C130.219 39.1927 135.644 43.6895 141.701 39.3725C136.548 38.743 132.751 35.0555 132.751 35.0555L132.479 34.7857Z" fill="url(#paint5_linear_1412_1366)"/>
<path opacity="0.24" fill-rule="evenodd" clip-rule="evenodd" d="M115.211 23.9933C116.477 20.126 119.189 17.6977 119.189 17.6977L122.082 14.8197C123.258 10.6825 126.06 7.89449 126.06 7.89449L127.959 6.00581C127.507 5.736 126.874 5.37625 126.241 5.10644L119.641 11.6719C119.551 11.6719 113.945 17.0681 115.211 23.9933Z" fill="#66C5E3"/>
<path opacity="0.5" fill-rule="evenodd" clip-rule="evenodd" d="M137.271 5.64606L137.814 6.18568C142.515 7.08506 145.86 10.4127 145.86 10.4127L153.003 17.5178C154.088 18.597 154.992 19.7662 155.625 20.8455C156.348 19.0467 156.619 16.7983 155.715 14.37C155.082 13.4706 154.359 12.4813 153.364 11.5819L147.307 5.28631C144.866 3.93725 141.068 3.12782 137.271 5.64606Z" fill="url(#paint6_linear_1412_1366)"/>
<path opacity="0.8" fill-rule="evenodd" clip-rule="evenodd" d="M126.332 28.8499C124.975 27.5008 123.89 25.3423 123.348 24.0832L123.258 24.353C122.534 26.2417 122.263 28.67 123.348 31.1882C124.614 31.0983 125.789 30.5587 127.145 29.7492L126.332 28.8499Z" fill="url(#paint7_linear_1412_1366)"/>
<path opacity="0.8" fill-rule="evenodd" clip-rule="evenodd" d="M143.69 17.5178L146.131 19.9461C147.759 21.565 148.663 23.1838 149.115 24.7128C150.29 21.9247 150.562 17.8775 146.584 13.9203L143.781 11.1322C143.781 11.1322 142.515 9.87311 140.616 8.97374C142.877 11.9417 143.69 14.9096 143.69 17.5178Z" fill="url(#paint8_linear_1412_1366)"/>
<path opacity="0.8" fill-rule="evenodd" clip-rule="evenodd" d="M134.921 13.8303C134.378 12.6612 133.564 11.402 132.299 10.1429C132.118 10.3228 129.677 12.841 129.134 16.3486C131.214 14.6398 133.112 14.0102 134.921 13.8303Z" fill="url(#paint9_linear_1412_1366)"/>
<path fill-rule="evenodd" clip-rule="evenodd" d="M142.063 39.1027C135.192 44.0493 128.863 37.6637 128.863 37.6637L128.773 37.5738C128.049 37.9335 127.326 38.2933 126.603 38.4732V38.4732C126.603 38.4732 136.458 48.2763 146.403 38.653C144.956 39.1927 143.419 39.2826 142.063 39.1027Z" fill="url(#paint10_linear_1412_1366)"/>
<path opacity="0.4" fill-rule="evenodd" clip-rule="evenodd" d="M123.258 31.0983C122.173 28.5801 122.444 26.1518 123.167 24.2631C121.359 22.4643 120.184 19.5863 120.907 15.809C120.907 15.809 116.115 19.7662 115.121 23.9933C115.482 25.8819 116.386 27.9505 118.014 30.0191C119.551 30.7386 121.268 31.2782 123.258 31.0983Z" fill="url(#paint11_linear_1412_1366)"/>
<path opacity="0.8" fill-rule="evenodd" clip-rule="evenodd" d="M140.978 9.24355C142.967 10.2329 144.142 11.402 144.142 11.402L146.945 14.1901C150.923 18.1473 150.652 22.1046 149.477 24.9826C149.838 26.3316 149.838 27.5908 149.658 28.7599C149.929 28.4901 150.2 28.3102 150.471 28.0404L153.274 25.2524C153.274 25.2524 154.901 23.6335 155.896 21.0253C155.263 19.9461 154.359 18.8668 153.274 17.6977L146.132 10.5926C146.132 10.5926 142.244 6.99512 137.542 6.09575V6.18568L137.814 6.27562L137.995 6.36556C139.26 7.26493 140.616 8.79386 140.978 9.24355Z" fill="url(#paint12_linear_1412_1366)"/>
<path opacity="0.8" fill-rule="evenodd" clip-rule="evenodd" d="M125.518 27.5008L127.416 29.3895C128.14 28.9398 128.773 28.4002 129.496 27.6807L132.299 24.8926V24.8926C129.315 21.8348 128.682 18.8668 129.134 16.3486" fill="url(#paint13_linear_1412_1366)"/>
<path opacity="0.8" fill-rule="evenodd" clip-rule="evenodd" d="M137.362 29.3895L132.66 34.0662C135.463 35.2354 139.532 35.6851 143.6 31.548L144.233 30.9184C141.521 31.3681 138.989 30.3788 137.362 29.3895Z" fill="url(#paint14_linear_1412_1366)"/>
<path fill-rule="evenodd" clip-rule="evenodd" d="M132.389 0.78945L137.271 5.64606C141.068 3.12782 144.956 3.93725 147.307 5.19638L146.312 4.20707C146.312 4.20707 140.255 -1.63886 132.841 0.339764C132.751 0.429701 132.66 0.429701 132.66 0.519638L132.389 0.78945Z" fill="url(#paint15_linear_1412_1366)"/>
<path fill-rule="evenodd" clip-rule="evenodd" d="M120.184 15.809L125.789 10.3228C127.055 9.06368 128.321 8.07437 129.586 7.44481L129.496 7.35487C129.496 7.35487 127.778 5.736 126.06 5.10644L122.444 8.97374C122.444 8.8838 119.641 11.7618 120.184 15.809Z" fill="url(#paint16_linear_1412_1366)"/>
<path fill-rule="evenodd" clip-rule="evenodd" d="M144.142 31.7279C140.074 35.775 136.005 35.4153 133.203 34.2461L132.841 34.1562L133.203 34.8757C133.203 34.8757 136.91 38.5631 142.153 39.1927C142.696 38.8329 143.238 38.3832 143.781 37.7537L146.584 34.9656C146.584 34.9656 149.205 32.3574 149.748 28.7599C148.03 30.1989 146.403 30.9184 144.866 31.1882L144.142 31.7279Z" fill="url(#paint17_linear_1412_1366)"/>
<path fill-rule="evenodd" clip-rule="evenodd" d="M155.805 21.1153C156.71 22.5543 157.433 23.8134 157.704 25.1624C158.699 22.1945 158.789 18.4172 156.167 14.5499C156.981 16.8882 156.438 19.3165 155.805 21.1153Z" fill="url(#paint18_linear_1412_1366)"/>
<path opacity="0.8" fill-rule="evenodd" clip-rule="evenodd" d="M128.321 17.0681C128.592 16.7983 128.863 16.5285 129.134 16.3486C129.677 12.841 132.118 10.3228 132.299 10.1429V10.1429L131.304 9.15361C130.49 9.6033 129.586 10.3228 128.773 11.1322L125.97 13.9203C125.97 13.9203 121.721 18.7769 123.258 24.2631C124.252 21.8348 125.518 19.8561 125.518 19.8561L128.321 17.0681Z" fill="url(#paint19_linear_1412_1366)"/>
<path fill-rule="evenodd" clip-rule="evenodd" d="M128.321 17.0681C128.592 16.7983 128.863 16.5285 129.134 16.3486C129.677 12.841 132.118 10.3228 132.299 10.1429V10.1429L131.304 9.15361C130.49 9.6033 129.586 10.3228 128.773 11.1322L125.97 13.9203C125.97 13.9203 121.721 18.7769 123.258 24.2631C124.252 21.8348 125.518 19.8561 125.518 19.8561L128.321 17.0681Z" fill="url(#paint20_linear_1412_1366)"/>
<path opacity="0.4" fill-rule="evenodd" clip-rule="evenodd" d="M125.97 14.0102L128.773 11.2222C129.586 10.4127 130.49 9.69324 131.304 9.24355L129.586 7.53474C128.321 8.25424 127.055 9.15361 125.789 10.4127L121.54 14.6398C120.726 17.4278 122.353 22.1046 123.258 24.0832C121.721 19.4065 125.97 14.0102 125.97 14.0102Z" fill="url(#paint21_linear_1412_1366)"/>
<path opacity="0.4" fill-rule="evenodd" clip-rule="evenodd" d="M125.879 14.0102L129.315 10.5926C129.858 9.96305 131.304 9.15361 131.304 9.15361L129.586 7.44481C128.321 8.1643 126.784 9.15361 125.518 10.5027L121.268 14.7297C119.46 20.9354 123.167 24.353 123.258 24.353C121.721 18.8668 125.879 14.0102 125.879 14.0102Z" fill="url(#paint22_linear_1412_1366)"/>
<path opacity="0.4" fill-rule="evenodd" clip-rule="evenodd" d="M126.151 14.0102L129.044 11.1322C129.858 10.3228 130.49 9.6033 131.394 9.15361L129.677 7.44481C128.411 8.1643 127.416 9.06368 126.06 10.3228L121.811 14.5498C120.726 20.4857 123.258 23.9033 123.258 23.9033C121.721 18.5071 126.151 14.0102 126.151 14.0102Z" fill="url(#paint23_linear_1412_1366)"/>
<path opacity="0.8" fill-rule="evenodd" clip-rule="evenodd" d="M132.389 24.8926V24.8926L135.282 27.7706C135.282 27.7706 136.096 28.5801 137.452 29.3895L139.26 27.5908C139.26 27.5908 143.51 23.3637 143.69 17.6077L143.238 17.158C143.238 17.158 139.622 13.5605 135.011 13.9203C137.452 19.6763 132.57 24.7128 132.389 24.8926Z" fill="url(#paint24_linear_1412_1366)"/>
<path fill-rule="evenodd" clip-rule="evenodd" d="M137.723 6.09575L137.271 5.64606C137.09 5.736 137 5.82593 136.819 6.00581C137.09 6.00581 137.362 6.09575 137.723 6.09575Z" fill="#6EC7E0"/>
<path fill-rule="evenodd" clip-rule="evenodd" d="M132.66 34.0662L131.575 33.4367C129.858 32.5373 129.225 31.7279 129.225 31.7279L127.145 29.6593C125.789 30.4687 124.614 31.0084 123.348 31.0983C123.89 32.2675 125.066 33.8864 126.241 35.1455L128.863 37.6637C130.038 36.8543 130.852 35.865 132.118 34.6059L132.66 34.0662Z" fill="url(#paint25_linear_1412_1366)"/>
<path fill-rule="evenodd" clip-rule="evenodd" d="M125.699 4.83663C126.331 5.10644 126.874 5.37625 127.416 5.736L132.389 0.78945L132.118 0.519638C130.219 1.1492 128.23 2.31838 126.241 4.297L125.699 4.83663Z" fill="url(#paint26_linear_1412_1366)"/>
<path fill-rule="evenodd" clip-rule="evenodd" d="M135.192 7.35487L134.559 7.98443C136.819 7.62468 139.531 8.34418 140.616 8.97374C140.255 8.52405 139.712 8.07437 139.26 7.62468L137.723 6.09575C137.452 6.00581 137.09 6.00581 136.819 5.91587C136.277 6.36556 135.734 6.81525 135.192 7.35487Z" fill="#45ADD0"/>
<path opacity="0.6" fill-rule="evenodd" clip-rule="evenodd" d="M134.378 8.25424C136.005 7.71462 138.537 8.1643 139.803 8.61399C140.255 8.79386 140.797 8.97374 140.888 9.06368C139.893 7.71462 138.266 6.36556 138.266 6.36556C137.994 6.18568 137.271 6.00581 136.91 6.00581C135.825 6.63537 134.378 8.25424 134.378 8.25424Z" fill="#65C4F0"/>
<path opacity="0.8" fill-rule="evenodd" clip-rule="evenodd" d="M125.789 34.6958C124.523 33.4367 123.8 32.3574 123.348 31.0983C121.359 31.1882 119.551 30.6486 118.195 29.9291C118.556 30.4687 118.918 30.8285 119.37 31.2782L126.693 38.5631C127.416 38.2933 128.14 38.0235 128.863 37.6637L125.789 34.6958Z" fill="url(#paint27_linear_1412_1366)"/>
<path opacity="0.8" fill-rule="evenodd" clip-rule="evenodd" d="M126.151 35.0555C124.885 33.7964 123.8 32.3574 123.348 31.0983C121.359 31.1882 119.551 30.6486 118.195 30.0191C118.556 30.5587 118.918 30.9184 119.37 31.3681L126.693 38.653C127.416 38.3832 128.14 38.1134 128.863 37.7537L126.151 35.0555Z" fill="url(#paint28_linear_1412_1366)"/>
<path opacity="0.6" fill-rule="evenodd" clip-rule="evenodd" d="M129.586 7.44481C132.118 6.09575 134.559 5.736 136.729 6.00581C136.91 5.91587 137 5.736 137.181 5.64606L132.299 0.78945L127.326 5.736C128.682 6.54543 129.405 7.35487 129.405 7.35487L129.586 7.44481Z" fill="#8FD1E7"/>
<path opacity="0.6" fill-rule="evenodd" clip-rule="evenodd" d="M129.586 7.44481C132.118 6.09575 134.559 5.736 136.729 6.00581C136.91 5.91587 137 5.736 137.181 5.64606L131.123 -6.49547L125.699 4.83663C127.055 5.64606 129.405 7.35487 129.405 7.35487L129.586 7.44481Z" fill="url(#paint29_linear_1412_1366)"/>
<path opacity="0.8" fill-rule="evenodd" clip-rule="evenodd" d="M132.389 10.1429V10.1429V10.1429L134.559 7.98443C133.564 8.1643 132.479 8.52405 131.395 9.15361L132.389 10.1429Z" fill="url(#paint30_linear_1412_1366)"/>
<path fill-rule="evenodd" clip-rule="evenodd" d="M134.559 7.98443L135.192 7.35487C135.734 6.81524 136.186 6.36556 136.729 6.00581C134.559 5.736 132.118 6.09575 129.586 7.4448L131.304 9.15361C132.479 8.52405 133.474 8.1643 134.559 7.98443Z" fill="url(#paint31_linear_1412_1366)"/>
<path fill-rule="evenodd" clip-rule="evenodd" d="M134.378 8.25424L135.373 7.26493C135.825 6.81524 136.367 6.36556 136.91 6.00581C134.83 5.736 132.118 6.18568 129.767 7.44481L131.666 9.42343C132.57 8.79386 133.384 8.52405 134.378 8.25424Z" fill="#6DC8F2"/>
<path opacity="0.8" fill-rule="evenodd" clip-rule="evenodd" d="M127.416 23.5436L125.427 21.3851C119.189 14.6398 125.427 7.98443 125.427 7.98443L127.778 5.37625C131.214 1.68882 134.649 2.04857 137 3.12782L137.452 2.67813C139.079 0.879388 140.797 -0.19986 142.425 -0.82942V-0.82942C142.425 -0.82942 134.016 -9.91308 125.699 -0.82942L119.731 5.64606C119.731 5.64606 111.323 14.7297 119.731 23.7235L125.699 30.1989C125.699 30.1989 128.501 33.1669 132.479 33.9763L131.214 32.6272C128.23 29.4794 127.326 26.3316 127.416 23.5436Z" fill="url(#paint32_linear_1412_1366)"/>
</g>
<mask id="mask1_1412_1366" style="mask-type:luminance" maskUnits="userSpaceOnUse" x="130" y="14" width="13" height="14">
<path fill-rule="evenodd" clip-rule="evenodd" d="M136.548 27.0511C139.893 27.0511 142.605 24.353 142.605 21.0253C142.605 17.6977 139.893 14.9995 136.548 14.9995C133.203 14.9995 130.49 17.6977 130.49 21.0253C130.49 24.353 133.203 27.0511 136.548 27.0511" fill="white"/>
</mask>
<g mask="url(#mask1_1412_1366)">
<path opacity="0.2" fill-rule="evenodd" clip-rule="evenodd" d="M138.266 19.6763C137.723 18.5071 136.91 17.248 135.644 15.9888C135.463 16.1687 133.022 18.687 132.479 22.1945C134.559 20.4857 136.458 19.7662 138.266 19.6763Z" fill="url(#paint33_linear_1412_1366)"/>
<path opacity="0.8" fill-rule="evenodd" clip-rule="evenodd" d="M130.762 35.2354C131.485 34.7857 132.118 34.2461 132.841 33.5266L135.644 30.7386V30.7386C132.66 27.6807 132.027 24.7128 132.479 22.1945C132.208 22.4643 131.937 22.6442 131.666 22.914L128.863 25.7021C128.863 25.7021 127.326 27.3209 126.331 29.6593C126.422 29.9291 126.512 30.2889 126.603 30.5587C127.236 31.4581 127.959 32.3574 128.863 33.2568L130.762 35.2354Z" fill="url(#paint34_linear_1412_1366)"/>
<path opacity="0.2" fill-rule="evenodd" clip-rule="evenodd" d="M131.666 22.914C131.937 22.6442 132.208 22.3744 132.479 22.1945C133.022 18.687 135.463 16.1687 135.644 15.9888V15.9888L134.649 14.9995C133.836 15.4492 132.751 15.809 131.937 16.7083L129.315 19.8561C129.315 19.8561 124.795 24.353 126.332 29.8392C127.326 27.4109 128.863 25.8819 128.863 25.8819L131.666 22.914Z" fill="url(#paint35_linear_1412_1366)"/>
<path opacity="0.3" fill-rule="evenodd" clip-rule="evenodd" d="M131.666 22.914C131.937 22.6442 132.208 22.3744 132.479 22.1945C133.022 18.687 135.463 16.1687 135.644 15.9888V15.9888L134.649 14.9995C133.836 15.4492 132.932 15.809 132.118 16.7083L129.315 19.8561C129.315 19.8561 124.795 24.353 126.332 29.8392C127.326 27.4109 128.863 25.8819 128.863 25.8819L131.666 22.914Z" fill="url(#paint36_linear_1412_1366)"/>
<path fill-rule="evenodd" clip-rule="evenodd" d="M135.734 30.7386V30.7386L138.627 33.6165C138.627 33.6165 139.441 34.426 140.797 35.2354L142.605 33.4367C142.605 33.4367 146.855 29.2096 147.036 23.4536L146.583 23.004C146.583 23.004 142.967 19.4065 138.356 19.7662C140.797 25.5222 135.915 30.5587 135.734 30.7386Z" fill="url(#paint37_linear_1412_1366)"/>
<path opacity="0.4" fill-rule="evenodd" clip-rule="evenodd" d="M135.734 15.9888C137 17.248 137.814 18.5071 138.356 19.6763C143.057 19.4065 146.583 22.914 146.583 22.914L147.036 23.3637C147.126 20.7555 146.312 17.7876 143.781 14.8197C142.244 14.0102 140.164 13.4706 137.904 13.8303L135.734 15.9888V15.9888Z" fill="url(#paint38_linear_1412_1366)"/>
<path opacity="0.4" fill-rule="evenodd" clip-rule="evenodd" d="M135.734 15.9888V15.9888V15.9888L137.904 13.8303C136.91 14.0102 135.825 14.37 134.74 14.9995L135.734 15.9888Z" fill="url(#paint39_linear_1412_1366)"/>
<path opacity="0.6" fill-rule="evenodd" clip-rule="evenodd" d="M135.734 15.9888V15.9888V15.9888L137.904 13.8303C136.91 14.0102 135.825 14.37 134.74 14.9995L135.734 15.9888Z" fill="url(#paint40_linear_1412_1366)"/>
</g>
<defs>
<linearGradient id="paint0_linear_1412_1366" x1="126.521" y1="18.0556" x2="133.824" y2="30.0084" gradientUnits="userSpaceOnUse">
<stop offset="0.153" stop-color="#00B4EC"/>
<stop offset="0.49" stop-color="#05395C"/>
<stop offset="1" stop-color="#E2051D"/>
</linearGradient>
<linearGradient id="paint1_linear_1412_1366" x1="109.87" y1="15.9902" x2="130.624" y2="49.8079" gradientUnits="userSpaceOnUse">
<stop stop-color="#00B0EA"/>
<stop offset="0.1177" stop-color="#00A7E7"/>
<stop offset="0.204" stop-color="#008FC9"/>
<stop offset="0.3907" stop-color="#00527E"/>
<stop offset="0.46" stop-color="#003A60"/>
<stop offset="0.5916" stop-color="#4B2947"/>
<stop offset="0.7184" stop-color="#8C1A30"/>
<stop offset="0.8244" stop-color="#BA0F20"/>
<stop offset="0.9054" stop-color="#D70817"/>
<stop offset="0.9518" stop-color="#E20613"/>
</linearGradient>
<linearGradient id="paint2_linear_1412_1366" x1="86.1807" y1="12.3815" x2="94.1647" y2="50.0976" gradientUnits="userSpaceOnUse">
<stop offset="0.0209" stop-color="#9D0C26" stop-opacity="0.01"/>
<stop offset="0.1897" stop-color="#A81428" stop-opacity="0.01"/>
<stop offset="0.4889" stop-color="#C72A2D" stop-opacity="0.01"/>
<stop offset="0.7567" stop-color="#E74133" stop-opacity="0.01"/>
<stop offset="0.8272" stop-color="#E73E31" stop-opacity="0.2899"/>
<stop offset="0.8863" stop-color="#E6332C" stop-opacity="0.5327"/>
<stop offset="0.9412" stop-color="#E42222" stop-opacity="0.7584"/>
<stop offset="0.9934" stop-color="#E20A15" stop-opacity="0.9728"/>
<stop offset="1" stop-color="#E20613"/>
</linearGradient>
<linearGradient id="paint3_linear_1412_1366" x1="137.367" y1="30.9404" x2="149.03" y2="30.9404" gradientUnits="userSpaceOnUse">
<stop stop-color="white"/>
<stop offset="0.5534" stop-color="#FFF6F4" stop-opacity="0.01"/>
<stop offset="0.8564" stop-color="#FFF8F6" stop-opacity="0.6784"/>
<stop offset="0.9811" stop-color="#FFFDFD" stop-opacity="0.9576"/>
<stop offset="1" stop-color="white"/>
</linearGradient>
<linearGradient id="paint4_linear_1412_1366" x1="116.105" y1="11.7618" x2="136.799" y2="45.6165" gradientUnits="userSpaceOnUse">
<stop stop-color="white"/>
<stop offset="0.5534" stop-color="#FFF6F4" stop-opacity="0.01"/>
<stop offset="0.8564" stop-color="#FFF8F6" stop-opacity="0.6784"/>
<stop offset="0.9811" stop-color="#FFFDFD" stop-opacity="0.9576"/>
<stop offset="1" stop-color="white"/>
</linearGradient>
<linearGradient id="paint5_linear_1412_1366" x1="84.7038" y1="16.2592" x2="90.3746" y2="52.3993" gradientUnits="userSpaceOnUse">
<stop stop-color="#F7C1B2"/>
<stop offset="0.5588" stop-color="#F29A9A" stop-opacity="0.01"/>
<stop offset="0.7331" stop-color="#F29A98" stop-opacity="0.3951"/>
<stop offset="0.8049" stop-color="#F29991" stop-opacity="0.5579"/>
<stop offset="0.8579" stop-color="#F29985" stop-opacity="0.6779"/>
<stop offset="0.9016" stop-color="#F29773" stop-opacity="0.777"/>
<stop offset="0.9396" stop-color="#F2965C" stop-opacity="0.863"/>
<stop offset="0.973" stop-color="#F29441" stop-opacity="0.9388"/>
<stop offset="1" stop-color="#F29224"/>
</linearGradient>
<linearGradient id="paint6_linear_1412_1366" x1="119.844" y1="7.03528" x2="137.073" y2="42.6274" gradientUnits="userSpaceOnUse">
<stop stop-color="#4EBFE0"/>
<stop offset="0.095" stop-color="#50BCDC" stop-opacity="0.8108"/>
<stop offset="0.1792" stop-color="#58B1D2" stop-opacity="0.643"/>
<stop offset="0.2595" stop-color="#649FC0" stop-opacity="0.4832"/>
<stop offset="0.3372" stop-color="#7585A6" stop-opacity="0.3284"/>
<stop offset="0.4131" stop-color="#8A6585" stop-opacity="0.1771"/>
<stop offset="0.4867" stop-color="#A53D5D" stop-opacity="0.0305"/>
<stop offset="0.502" stop-color="#AB3454" stop-opacity="0.01"/>
<stop offset="0.9976" stop-color="#DE091E" stop-opacity="0.01"/>
</linearGradient>
<linearGradient id="paint7_linear_1412_1366" x1="104.035" y1="29.2508" x2="133.517" y2="48.5865" gradientUnits="userSpaceOnUse">
<stop stop-color="#1A77A4"/>
<stop offset="0.5562" stop-color="#ADDCED" stop-opacity="0.01"/>
<stop offset="0.7203" stop-color="#ABDAEB" stop-opacity="0.3697"/>
<stop offset="0.7879" stop-color="#A4D3E5" stop-opacity="0.522"/>
<stop offset="0.8377" stop-color="#98C8DB" stop-opacity="0.6343"/>
<stop offset="0.8788" stop-color="#86B7CB" stop-opacity="0.727"/>
<stop offset="0.9146" stop-color="#6FA1B8" stop-opacity="0.8075"/>
<stop offset="0.9466" stop-color="#5386A0" stop-opacity="0.8796"/>
<stop offset="0.9751" stop-color="#326783" stop-opacity="0.944"/>
<stop offset="1" stop-color="#0F4565"/>
</linearGradient>
<linearGradient id="paint8_linear_1412_1366" x1="128.186" y1="21.7204" x2="158.451" y2="38.6929" gradientUnits="userSpaceOnUse">
<stop stop-color="white"/>
<stop offset="0.5534" stop-color="#FFF6F4" stop-opacity="0.01"/>
<stop offset="0.8564" stop-color="#FFF8F6" stop-opacity="0.6784"/>
<stop offset="0.9811" stop-color="#FFFDFD" stop-opacity="0.9576"/>
<stop offset="1" stop-color="white"/>
</linearGradient>
<linearGradient id="paint9_linear_1412_1366" x1="113.025" y1="20.9069" x2="135.959" y2="53.1858" gradientUnits="userSpaceOnUse">
<stop stop-color="white"/>
<stop offset="0.5534" stop-color="#FFF6F4" stop-opacity="0.01"/>
<stop offset="0.8564" stop-color="#FFF8F6" stop-opacity="0.6784"/>
<stop offset="0.9811" stop-color="#FFFDFD" stop-opacity="0.9576"/>
<stop offset="1" stop-color="white"/>
</linearGradient>
<linearGradient id="paint10_linear_1412_1366" x1="58.7365" y1="17.3513" x2="60.2744" y2="51.9671" gradientUnits="userSpaceOnUse">
<stop stop-color="#E73374"/>
<stop offset="0.5526" stop-color="#D74B3F" stop-opacity="0.2"/>
<stop offset="0.7258" stop-color="#D54A3E" stop-opacity="0.5097"/>
<stop offset="0.7972" stop-color="#CE463B" stop-opacity="0.6373"/>
<stop offset="0.8498" stop-color="#C24036" stop-opacity="0.7314"/>
<stop offset="0.8932" stop-color="#B0382F" stop-opacity="0.8091"/>
<stop offset="0.9309" stop-color="#992C26" stop-opacity="0.8765"/>
<stop offset="0.9647" stop-color="#7D1E1B" stop-opacity="0.9369"/>
<stop offset="0.9949" stop-color="#5C0E0E" stop-opacity="0.9908"/>
<stop offset="1" stop-color="#560B0B"/>
</linearGradient>
<linearGradient id="paint11_linear_1412_1366" x1="107.83" y1="37.1523" x2="136.798" y2="50.3749" gradientUnits="userSpaceOnUse">
<stop stop-color="#ADDCED"/>
<stop offset="0.5534" stop-color="#ADDCED" stop-opacity="0.01"/>
<stop offset="0.9349" stop-color="#ADDCED" stop-opacity="0.8543"/>
<stop offset="1" stop-color="#ADDCED"/>
</linearGradient>
<linearGradient id="paint12_linear_1412_1366" x1="125.439" y1="16.3303" x2="152.62" y2="45.1872" gradientUnits="userSpaceOnUse">
<stop stop-color="#55B7D7"/>
<stop offset="0.0694" stop-color="#59A7C7" stop-opacity="0.9065"/>
<stop offset="0.2831" stop-color="#637B9A" stop-opacity="0.6186"/>
<stop offset="0.4741" stop-color="#6A5B7A" stop-opacity="0.3613"/>
<stop offset="0.6336" stop-color="#6E4766" stop-opacity="0.1463"/>
<stop offset="0.7422" stop-color="#70405F" stop-opacity="0.01"/>
<stop offset="0.8042" stop-color="#774266" stop-opacity="0.01"/>
<stop offset="0.8962" stop-color="#89487A" stop-opacity="0.01"/>
<stop offset="1" stop-color="#A55299" stop-opacity="0.01"/>
</linearGradient>
<linearGradient id="paint13_linear_1412_1366" x1="110.959" y1="29.6867" x2="140.858" y2="42.7737" gradientUnits="userSpaceOnUse">
<stop stop-color="white"/>
<stop offset="0.5534" stop-color="#FFF6F4" stop-opacity="0.01"/>
<stop offset="0.8564" stop-color="#FFF8F6" stop-opacity="0.6784"/>
<stop offset="0.9811" stop-color="#FFFDFD" stop-opacity="0.9576"/>
<stop offset="1" stop-color="white"/>
</linearGradient>
<linearGradient id="paint14_linear_1412_1366" x1="87.4708" y1="12.541" x2="92.4644" y2="48.5009" gradientUnits="userSpaceOnUse">
<stop stop-color="white"/>
<stop offset="0.5534" stop-color="#FFF6F4" stop-opacity="0.01"/>
<stop offset="0.8564" stop-color="#FFF8F6" stop-opacity="0.6784"/>
<stop offset="0.9811" stop-color="#FFFDFD" stop-opacity="0.9576"/>
<stop offset="1" stop-color="white"/>
</linearGradient>
<linearGradient id="paint15_linear_1412_1366" x1="93.1751" y1="2.89407" x2="96.3866" y2="38.3177" gradientUnits="userSpaceOnUse">
<stop offset="0.0028" stop-color="#74C6E9"/>
<stop offset="0.5534" stop-color="#51B8E9" stop-opacity="0.01"/>
<stop offset="0.8893" stop-color="#52B8E7" stop-opacity="0.752"/>
<stop offset="1" stop-color="#53B8E2"/>
</linearGradient>
<linearGradient id="paint16_linear_1412_1366" x1="120.125" y1="15.8154" x2="129.609" y2="15.8154" gradientUnits="userSpaceOnUse">
<stop stop-color="#5BC4F1"/>
<stop offset="0.4635" stop-color="#5DC5F1" stop-opacity="0.7682"/>
<stop offset="0.6338" stop-color="#64C7F2" stop-opacity="0.6831"/>
<stop offset="0.7557" stop-color="#70CAF3" stop-opacity="0.6222"/>
<stop offset="0.8545" stop-color="#81D0F4" stop-opacity="0.5727"/>
<stop offset="0.9383" stop-color="#96D6F6" stop-opacity="0.5308"/>
<stop offset="1" stop-color="#ACDDF8" stop-opacity="0.5"/>
</linearGradient>
<linearGradient id="paint17_linear_1412_1366" x1="96.9831" y1="12.1005" x2="105.871" y2="49.8888" gradientUnits="userSpaceOnUse">
<stop stop-color="#E73374"/>
<stop offset="0.5694" stop-color="#F5B0A5" stop-opacity="0.02"/>
<stop offset="0.7288" stop-color="#F4AEA3" stop-opacity="0.3828"/>
<stop offset="0.7945" stop-color="#F2A79D" stop-opacity="0.5323"/>
<stop offset="0.8429" stop-color="#EE9B91" stop-opacity="0.6425"/>
<stop offset="0.8829" stop-color="#E98981" stop-opacity="0.7335"/>
<stop offset="0.9176" stop-color="#E2726C" stop-opacity="0.8125"/>
<stop offset="0.9487" stop-color="#D95652" stop-opacity="0.8833"/>
<stop offset="0.9764" stop-color="#CF3535" stop-opacity="0.9464"/>
<stop offset="1" stop-color="#C41315"/>
</linearGradient>
<linearGradient id="paint18_linear_1412_1366" x1="138.348" y1="39.8164" x2="162.131" y2="42.0263" gradientUnits="userSpaceOnUse">
<stop stop-color="#E73374"/>
<stop offset="0.5526" stop-color="#9A345E" stop-opacity="0.01"/>
<stop offset="0.7941" stop-color="#9B335C" stop-opacity="0.5398"/>
<stop offset="0.8936" stop-color="#A02F55" stop-opacity="0.7622"/>
<stop offset="0.9667" stop-color="#A82749" stop-opacity="0.9255"/>
<stop offset="1" stop-color="#AD2240"/>
</linearGradient>
<linearGradient id="paint19_linear_1412_1366" x1="113.606" y1="29.9177" x2="145.475" y2="49.7854" gradientUnits="userSpaceOnUse">
<stop stop-color="white"/>
<stop offset="0.5534" stop-color="#FFF6F4" stop-opacity="0.01"/>
<stop offset="0.8564" stop-color="#FFF8F6" stop-opacity="0.6784"/>
<stop offset="0.9811" stop-color="#FFFDFD" stop-opacity="0.9576"/>
<stop offset="1" stop-color="white"/>
</linearGradient>
<linearGradient id="paint20_linear_1412_1366" x1="110.95" y1="25.6172" x2="142.819" y2="45.485" gradientUnits="userSpaceOnUse">
<stop stop-color="#ADDCED"/>
<stop offset="0.5534" stop-color="#ADDCED" stop-opacity="0.01"/>
<stop offset="0.9349" stop-color="#ADDCED" stop-opacity="0.8543"/>
<stop offset="1" stop-color="#ADDCED"/>
</linearGradient>
<linearGradient id="paint21_linear_1412_1366" x1="111.86" y1="25.395" x2="142.04" y2="43.185" gradientUnits="userSpaceOnUse">
<stop stop-color="#ADDCED"/>
<stop offset="0.5534" stop-color="#ADDCED" stop-opacity="0.01"/>
<stop offset="0.9349" stop-color="#ADDCED" stop-opacity="0.8543"/>
<stop offset="1" stop-color="#ADDCED"/>
</linearGradient>
<linearGradient id="paint22_linear_1412_1366" x1="113.65" y1="29.6117" x2="144.651" y2="49.0844" gradientUnits="userSpaceOnUse">
<stop stop-color="#ADDCED"/>
<stop offset="0.5534" stop-color="#ADDCED" stop-opacity="0.01"/>
<stop offset="0.9349" stop-color="#ADDCED" stop-opacity="0.8543"/>
<stop offset="1" stop-color="#ADDCED"/>
</linearGradient>
<linearGradient id="paint23_linear_1412_1366" x1="114.599" y1="29.5794" x2="144.739" y2="47.0697" gradientUnits="userSpaceOnUse">
<stop stop-color="#ACDDF8"/>
<stop offset="0.5534" stop-color="#ACDDF8" stop-opacity="0.01"/>
<stop offset="0.9349" stop-color="#ACDDF8" stop-opacity="0.8543"/>
<stop offset="1" stop-color="#ACDDF8"/>
</linearGradient>
<linearGradient id="paint24_linear_1412_1366" x1="109.871" y1="9.8726" x2="138.535" y2="34.5598" gradientUnits="userSpaceOnUse">
<stop stop-color="white"/>
<stop offset="0.5534" stop-color="#FFF6F4" stop-opacity="0.01"/>
<stop offset="0.8564" stop-color="#FFF8F6" stop-opacity="0.6784"/>
<stop offset="0.9811" stop-color="#FFFDFD" stop-opacity="0.9576"/>
<stop offset="1" stop-color="white"/>
</linearGradient>
<linearGradient id="paint25_linear_1412_1366" x1="89.8542" y1="12.1512" x2="106.408" y2="48.4244" gradientUnits="userSpaceOnUse">
<stop stop-color="#013854"/>
<stop offset="0.4853" stop-color="#8A345F" stop-opacity="0.01"/>
<stop offset="0.7022" stop-color="#8C335E" stop-opacity="0.1264"/>
<stop offset="0.7915" stop-color="#932F59" stop-opacity="0.1785"/>
<stop offset="0.8574" stop-color="#9F2950" stop-opacity="0.2169"/>
<stop offset="0.9117" stop-color="#B11F44" stop-opacity="0.2485"/>
<stop offset="0.9584" stop-color="#C71434" stop-opacity="0.2757"/>
<stop offset="1" stop-color="#E30521" stop-opacity="0.3"/>
</linearGradient>
<linearGradient id="paint26_linear_1412_1366" x1="102.271" y1="2.64561" x2="115.957" y2="39.0941" gradientUnits="userSpaceOnUse">
<stop stop-color="#ADDCED"/>
<stop offset="0.5534" stop-color="#ADDCED" stop-opacity="0.01"/>
<stop offset="0.9349" stop-color="#ADDCED" stop-opacity="0.8543"/>
<stop offset="1" stop-color="#ADDCED"/>
</linearGradient>
<linearGradient id="paint27_linear_1412_1366" x1="90.6142" y1="23.1446" x2="105.434" y2="59.7749" gradientUnits="userSpaceOnUse">
<stop stop-color="#ADDCED"/>
<stop offset="0.5508" stop-color="#ADDCED" stop-opacity="0.01"/>
<stop offset="0.9345" stop-color="#ADDCED" stop-opacity="0.8543"/>
<stop offset="1" stop-color="#ADDCED"/>
</linearGradient>
<linearGradient id="paint28_linear_1412_1366" x1="85.0209" y1="14.0823" x2="99.8066" y2="50.6289" gradientUnits="userSpaceOnUse">
<stop offset="0.0046" stop-color="#013854"/>
<stop offset="0.4907" stop-color="#8A345F" stop-opacity="0.01"/>
<stop offset="0.7053" stop-color="#8C335E" stop-opacity="0.2949"/>
<stop offset="0.7937" stop-color="#932F59" stop-opacity="0.4165"/>
<stop offset="0.8589" stop-color="#9F2950" stop-opacity="0.506"/>
<stop offset="0.9126" stop-color="#B11F44" stop-opacity="0.5799"/>
<stop offset="0.9588" stop-color="#C71434" stop-opacity="0.6434"/>
<stop offset="1" stop-color="#E30521" stop-opacity="0.7"/>
</linearGradient>
<linearGradient id="paint29_linear_1412_1366" x1="88.2104" y1="5.06547" x2="141.205" y2="63.2705" gradientUnits="userSpaceOnUse">
<stop stop-color="#D7EDFC"/>
<stop offset="0.5534" stop-color="#ACDDF8" stop-opacity="0.01"/>
<stop offset="0.7634" stop-color="#AEDEF8" stop-opacity="0.4702"/>
<stop offset="0.8499" stop-color="#B5E0F8" stop-opacity="0.6639"/>
<stop offset="0.9137" stop-color="#C1E5F8" stop-opacity="0.8067"/>
<stop offset="0.9659" stop-color="#D3ECF8" stop-opacity="0.9237"/>
<stop offset="1" stop-color="#E3F2F8"/>
</linearGradient>
<linearGradient id="paint30_linear_1412_1366" x1="107.596" y1="14.6507" x2="118.149" y2="51.3685" gradientUnits="userSpaceOnUse">
<stop stop-color="white"/>
<stop offset="0.5534" stop-color="#FFF6F4" stop-opacity="0.01"/>
<stop offset="0.8564" stop-color="#FFF8F6" stop-opacity="0.6784"/>
<stop offset="0.9811" stop-color="#FFFDFD" stop-opacity="0.9576"/>
<stop offset="1" stop-color="white"/>
</linearGradient>
<linearGradient id="paint31_linear_1412_1366" x1="93.4329" y1="7.53176" x2="97.9616" y2="43.3532" gradientUnits="userSpaceOnUse">
<stop stop-color="#ADDCED"/>
<stop offset="0.5534" stop-color="#ADDCED" stop-opacity="0.01"/>
<stop offset="0.9349" stop-color="#ADDCED" stop-opacity="0.8543"/>
<stop offset="1" stop-color="#ADDCED"/>
</linearGradient>
<linearGradient id="paint32_linear_1412_1366" x1="117.71" y1="12.9661" x2="137.783" y2="28.9787" gradientUnits="userSpaceOnUse">
<stop stop-color="#A0D9F7"/>
<stop offset="0.5061" stop-color="#BCE3F9" stop-opacity="0.01"/>
</linearGradient>
<linearGradient id="paint33_linear_1412_1366" x1="116.359" y1="26.7333" x2="139.292" y2="59.0123" gradientUnits="userSpaceOnUse">
<stop stop-color="#ADDCED"/>
<stop offset="0.5534" stop-color="#ADDCED" stop-opacity="0.01"/>
<stop offset="0.9349" stop-color="#ADDCED" stop-opacity="0.8543"/>
<stop offset="1" stop-color="#ADDCED"/>
</linearGradient>
<linearGradient id="paint34_linear_1412_1366" x1="110.82" y1="30.1818" x2="139.794" y2="54.1006" gradientUnits="userSpaceOnUse">
<stop stop-color="white"/>
<stop offset="0.5534" stop-color="#FFF6F4" stop-opacity="0.01"/>
<stop offset="0.8564" stop-color="#FFF8F6" stop-opacity="0.6784"/>
<stop offset="0.9811" stop-color="#FFFDFD" stop-opacity="0.9576"/>
<stop offset="1" stop-color="white"/>
</linearGradient>
<linearGradient id="paint35_linear_1412_1366" x1="116.809" y1="34.246" x2="147.187" y2="54.961" gradientUnits="userSpaceOnUse">
<stop stop-color="#ADDCED"/>
<stop offset="0.5534" stop-color="#ADDCED" stop-opacity="0.01"/>
<stop offset="0.9349" stop-color="#ADDCED" stop-opacity="0.8543"/>
<stop offset="1" stop-color="#ADDCED"/>
</linearGradient>
<linearGradient id="paint36_linear_1412_1366" x1="114.372" y1="30.0896" x2="144.563" y2="50.6779" gradientUnits="userSpaceOnUse">
<stop stop-color="#ADDCED"/>
<stop offset="0.5534" stop-color="#ADDCED" stop-opacity="0.01"/>
<stop offset="0.9349" stop-color="#ADDCED" stop-opacity="0.8543"/>
<stop offset="1" stop-color="#ADDCED"/>
</linearGradient>
<linearGradient id="paint37_linear_1412_1366" x1="113.204" y1="15.6992" x2="141.869" y2="40.3864" gradientUnits="userSpaceOnUse">
<stop stop-color="#E73374"/>
<stop offset="0.5526" stop-color="#824068" stop-opacity="0.01"/>
<stop offset="0.7751" stop-color="#843F66" stop-opacity="0.4973"/>
<stop offset="0.8667" stop-color="#8B3A60" stop-opacity="0.7021"/>
<stop offset="0.9341" stop-color="#973154" stop-opacity="0.8527"/>
<stop offset="0.9895" stop-color="#A92544" stop-opacity="0.9766"/>
<stop offset="1" stop-color="#AD2240"/>
</linearGradient>
<linearGradient id="paint38_linear_1412_1366" x1="118.019" y1="20.9572" x2="134.149" y2="56.8377" gradientUnits="userSpaceOnUse">
<stop stop-color="#55B7D7"/>
<stop offset="0.5534" stop-color="#55B7D7" stop-opacity="0.01"/>
<stop offset="0.9349" stop-color="#55B7D7" stop-opacity="0.8543"/>
<stop offset="1" stop-color="#55B7D7"/>
</linearGradient>
<linearGradient id="paint39_linear_1412_1366" x1="110.929" y1="20.4773" x2="121.482" y2="57.1951" gradientUnits="userSpaceOnUse">
<stop stop-color="#ADDCED"/>
<stop offset="0.5534" stop-color="#ADDCED" stop-opacity="0.01"/>
<stop offset="0.9349" stop-color="#ADDCED" stop-opacity="0.8543"/>
<stop offset="1" stop-color="#ADDCED"/>
</linearGradient>
<linearGradient id="paint40_linear_1412_1366" x1="102.782" y1="7.28752" x2="113.335" y2="44.0053" gradientUnits="userSpaceOnUse">
<stop stop-color="#55B7D7"/>
<stop offset="0.5534" stop-color="#55B7D7" stop-opacity="0.01"/>
<stop offset="0.9349" stop-color="#55B7D7" stop-opacity="0.8543"/>
<stop offset="1" stop-color="#55B7D7"/>
</linearGradient>
</defs>
</svg>
